<svg width="713" height="458" viewBox="0 0 713 458" fill="none" xmlns="http://www.w3.org/2000/svg">


<path d="M353.586 244.992C352.228 244.207 352.228 242.936 353.586 242.152L394.735 218.394L396.131 217.588L465.254 257.497L463.859 258.303L422.71 282.06C421.351 282.844 419.149 282.844 417.791 282.06L353.586 244.992Z" fill="#0F1013"/>
<path d="M434.765 245.875L400.254 265.8L416.94 275.434L451.451 255.509L434.765 245.875Z" fill="#07080A"/>
<path d="M244.114 270.208L238.531 273.432L239.911 274.229L244.944 277.135L249.148 274.708L250.528 273.911L244.114 270.208Z" fill="#07080A"/>
<path d="M335.165 236.47L418.037 284.317C419.396 285.101 421.598 285.101 422.956 284.317L466.026 259.554L465.254 259.108L463.859 258.303L422.71 282.06C421.351 282.844 419.149 282.844 417.791 282.06L353.586 244.992C352.228 244.207 352.228 242.936 353.586 242.152L394.735 218.394L379.785 209.763L335.165 235.524C334.917 235.667 334.714 235.827 334.556 235.997C334.714 236.167 334.917 236.327 335.165 236.47Z" fill="#07080A"/>
<path d="M229.858 287.492L352.104 358.07V349.909L345.949 346.305L343.507 344.875V347.715L339.917 345.642L241.268 288.687L237.989 286.794V283.954L233.646 281.518L229.858 279.331C228.97 278.818 228.517 278.149 228.5 277.477V285.645C228.52 286.315 228.973 286.981 229.858 287.492Z" fill="#07080A"/>
<path d="M482.936 278.16L358.662 349.909V358.07L482.936 286.321C483.806 285.818 484.295 285.137 484.295 284.427V277.586V276.266C484.295 276.977 483.806 277.658 482.936 278.16Z" fill="#07080A"/>
<path d="M358.662 349.909C356.851 350.955 353.915 350.955 352.104 349.909V358.07C353.915 359.116 356.851 359.116 358.662 358.07V349.909Z" fill="#07080A"/>
<path d="M314.304 239.894L237.989 283.954V286.794L314.304 242.734V239.894Z" fill="#07080A"/>
<path d="M419.822 297.028L320.862 239.894V242.734L419.822 299.868V297.028Z" fill="#07080A"/>
<path d="M320.862 239.894C319.051 238.848 316.115 238.848 314.304 239.894V242.734C316.115 241.688 319.051 241.688 320.862 242.734V239.894Z" fill="#07080A"/>
<path d="M320.862 246.52C319.051 245.475 316.115 245.475 314.304 246.52L241.268 288.687L339.917 345.642L412.728 303.326C414.618 302.234 413.762 300.066 411.174 298.662L320.862 246.52Z" fill="#0F1013"/>
<path d="M419.822 300.814C421.633 299.769 421.633 298.073 419.822 297.028V299.868L320.862 242.734C319.051 241.688 316.115 241.688 314.304 242.734L237.989 286.794L241.268 288.687L314.304 246.52C316.115 245.475 319.051 245.475 320.862 246.52L411.174 298.662C413.762 300.066 414.618 302.234 412.728 303.326L339.917 345.642L343.507 347.715V344.875L417.362 302.234L419.822 300.814Z" fill="#07080A"/>
<path fill-rule="evenodd" clip-rule="evenodd" d="M360.057 200.374L229.858 275.544C228.935 276.077 228.483 276.779 228.5 277.477C228.517 278.149 228.97 278.818 229.858 279.331L233.646 281.518L237.989 283.954L314.304 239.894C316.115 238.848 319.051 238.848 320.862 239.894L419.822 297.028C421.633 298.073 421.633 299.769 419.822 300.814L417.362 302.234L343.507 344.875L345.949 346.305L352.104 349.909C353.915 350.955 356.851 350.955 358.662 349.909L482.936 278.16C483.806 277.658 484.295 276.977 484.295 276.266V269.425C484.295 268.715 483.806 268.034 482.936 267.532L467.597 258.676L466.026 259.554L422.956 284.317C421.598 285.101 419.396 285.101 418.037 284.317L335.165 236.47C334.917 236.327 334.714 236.167 334.556 235.997C333.852 235.237 334.055 234.271 335.165 233.63L379.785 207.977L366.616 200.374C364.805 199.328 361.868 199.328 360.057 200.374ZM238.531 273.432L244.114 270.208L250.528 273.911L249.148 274.708L244.944 277.135L239.911 274.229L238.531 273.432Z" fill="#07080A"/>
<path d="M379.785 207.977L335.165 233.63C334.055 234.271 333.852 235.237 334.556 235.997C334.714 235.827 334.917 235.667 335.165 235.524L379.785 209.763V207.977Z" fill="#07080A"/>
<path d="M352.104 349.909C353.915 350.955 356.851 350.955 358.662 349.909M352.104 349.909V358.07M352.104 349.909L345.949 346.305L343.507 344.875M358.662 349.909L482.936 278.16C483.806 277.658 484.295 276.977 484.295 276.266M358.662 349.909V358.07M352.104 358.07L229.858 287.492C228.973 286.981 228.52 286.315 228.5 285.645V277.477M352.104 358.07C353.915 359.116 356.851 359.116 358.662 358.07M343.507 344.875V347.715L339.917 345.642M343.507 344.875L417.362 302.234L419.822 300.814C421.633 299.769 421.633 298.073 419.822 297.028M484.295 276.266V269.425C484.295 268.715 483.806 268.034 482.936 267.532L467.597 258.676L466.026 259.554M484.295 276.266V277.586V284.427C484.295 285.137 483.806 285.818 482.936 286.321L358.662 358.07M466.026 259.554L422.956 284.317C421.598 285.101 419.396 285.101 418.037 284.317L335.165 236.47C334.917 236.327 334.714 236.167 334.556 235.997M466.026 259.554L465.254 259.108M228.5 277.477C228.483 276.779 228.935 276.077 229.858 275.544L360.057 200.374C361.868 199.328 364.805 199.328 366.616 200.374L379.785 207.977M228.5 277.477C228.517 278.149 228.97 278.818 229.858 279.331L233.646 281.518L237.989 283.954M379.785 207.977L335.165 233.63C334.055 234.271 333.852 235.237 334.556 235.997M379.785 207.977V209.763M237.989 283.954L314.304 239.894M237.989 283.954V286.794M314.304 239.894C316.115 238.848 319.051 238.848 320.862 239.894M314.304 239.894V242.734M237.989 286.794L314.304 242.734M237.989 286.794L241.268 288.687M339.917 345.642L412.728 303.326C414.618 302.234 413.762 300.066 411.174 298.662L320.862 246.52C319.051 245.475 316.115 245.475 314.304 246.52L241.268 288.687M339.917 345.642L241.268 288.687M419.822 297.028L320.862 239.894M419.822 297.028V299.868L320.862 242.734M320.862 239.894V242.734M320.862 242.734C319.051 241.688 316.115 241.688 314.304 242.734M334.556 235.997C334.714 235.827 334.917 235.667 335.165 235.524L379.785 209.763M379.785 209.763L394.735 218.394M394.735 218.394L396.131 217.588L465.254 257.497M394.735 218.394L353.586 242.152C352.228 242.936 352.228 244.207 353.586 244.992L417.791 282.06C419.149 282.844 421.351 282.844 422.71 282.06L463.859 258.303M465.254 259.108V257.497M465.254 259.108L463.859 258.303M465.254 257.497L463.859 258.303M244.114 270.208L238.531 273.432L239.911 274.229M244.114 270.208L250.528 273.911L249.148 274.708M244.114 270.208V271.802M239.911 274.229L244.114 271.802M239.911 274.229L244.944 277.135L249.148 274.708M249.148 274.708L244.114 271.802M400.254 265.8L434.765 245.875L451.451 255.509L416.94 275.434L400.254 265.8Z" stroke="#545454" stroke-width="0.473334"/>
<path d="M353.586 237.309C352.228 236.525 352.228 235.253 353.586 234.469L394.735 210.712L396.131 209.906L465.254 249.814L463.859 250.62L422.71 274.377C421.351 275.162 419.149 275.162 417.791 274.377L353.586 237.309Z" fill="#0F1013"/>
<path d="M434.765 238.192L400.254 258.117L416.94 267.751L451.451 247.826L434.765 238.192Z" fill="#07080A"/>
<path d="M244.114 262.526L238.531 265.749L239.911 266.546L244.944 269.452L249.148 267.025L250.528 266.228L244.114 262.526Z" fill="#07080A"/>
<path d="M335.165 228.788L418.037 276.634C419.396 277.418 421.598 277.418 422.956 276.634L466.026 251.872L465.254 251.426L463.859 250.62L422.71 274.377C421.351 275.162 419.149 275.162 417.791 274.377L353.586 237.309C352.228 236.525 352.228 235.253 353.586 234.469L394.735 210.712L379.785 202.08L335.165 227.841C334.917 227.985 334.714 228.144 334.556 228.314C334.714 228.485 334.917 228.644 335.165 228.788Z" fill="#07080A"/>
<path d="M229.858 279.809L352.104 350.388V342.227L345.949 338.622L343.507 337.192V340.032L339.917 337.96L241.268 281.005L237.989 279.111V276.271L233.646 273.836L229.858 271.648C228.97 271.136 228.517 270.466 228.5 269.794V277.962C228.52 278.632 228.973 279.298 229.858 279.809Z" fill="#07080A"/>
<path d="M482.936 270.477L358.662 342.227V350.388L482.936 278.638C483.806 278.136 484.295 277.455 484.295 276.745V269.903V268.584C484.295 269.294 483.806 269.975 482.936 270.477Z" fill="#07080A"/>
<path d="M358.662 342.227C356.851 343.272 353.915 343.272 352.104 342.227V350.388C353.915 351.433 356.851 351.433 358.662 350.388V342.227Z" fill="#07080A"/>
<path d="M314.304 232.211L237.989 276.271V279.111L314.304 235.051V232.211Z" fill="#07080A"/>
<path d="M419.822 289.345L320.862 232.211V235.051L419.822 292.185V289.345Z" fill="#07080A"/>
<path d="M320.862 232.211C319.051 231.165 316.115 231.165 314.304 232.211V235.051C316.115 234.005 319.051 234.005 320.862 235.051V232.211Z" fill="#07080A"/>
<path d="M320.862 238.838C319.051 237.792 316.115 237.792 314.304 238.838L241.268 281.005L339.917 337.96L412.728 295.643C414.618 294.552 413.762 292.384 411.174 290.979L320.862 238.838Z" fill="#0F1013"/>
<path d="M419.822 293.132C421.633 292.086 421.633 290.391 419.822 289.345V292.185L320.862 235.051C319.051 234.005 316.115 234.005 314.304 235.051L237.989 279.111L241.268 281.005L314.304 238.838C316.115 237.792 319.051 237.792 320.862 238.838L411.174 290.979C413.762 292.384 414.618 294.552 412.728 295.643L339.917 337.96L343.507 340.032V337.192L417.362 294.552L419.822 293.132Z" fill="#07080A"/>
<path fill-rule="evenodd" clip-rule="evenodd" d="M360.057 192.691L229.858 267.862C228.935 268.395 228.483 269.096 228.5 269.794C228.517 270.466 228.97 271.136 229.858 271.648L233.646 273.836L237.989 276.271L314.304 232.211C316.115 231.165 319.051 231.165 320.862 232.211L419.822 289.345C421.633 290.391 421.633 292.086 419.822 293.132L417.362 294.552L343.507 337.192L345.949 338.622L352.104 342.227C353.915 343.272 356.851 343.272 358.662 342.227L482.936 270.477C483.806 269.975 484.295 269.294 484.295 268.584V261.743C484.295 261.032 483.806 260.351 482.936 259.849L467.597 250.993L466.026 251.872L422.956 276.634C421.598 277.418 419.396 277.418 418.037 276.634L335.165 228.788C334.917 228.644 334.714 228.485 334.556 228.314C333.852 227.555 334.055 226.589 335.165 225.948L379.785 200.295L366.616 192.691C364.805 191.646 361.868 191.646 360.057 192.691ZM238.531 265.749L244.114 262.526L250.528 266.228L249.148 267.025L244.944 269.452L239.911 266.546L238.531 265.749Z" fill="#07080A"/>
<path d="M379.785 200.295L335.165 225.948C334.055 226.589 333.852 227.555 334.556 228.314C334.714 228.144 334.917 227.985 335.165 227.841L379.785 202.08V200.295Z" fill="#07080A"/>
<path d="M352.104 342.227C353.915 343.272 356.851 343.272 358.662 342.227M352.104 342.227V350.388M352.104 342.227L345.949 338.622L343.507 337.192M358.662 342.227L482.936 270.477C483.806 269.975 484.295 269.294 484.295 268.584M358.662 342.227V350.388M352.104 350.388L229.858 279.809C228.973 279.298 228.52 278.632 228.5 277.962V269.794M352.104 350.388C353.915 351.433 356.851 351.433 358.662 350.388M343.507 337.192V340.032L339.917 337.96M343.507 337.192L417.362 294.552L419.822 293.132C421.633 292.086 421.633 290.391 419.822 289.345M484.295 268.584V261.743C484.295 261.032 483.806 260.351 482.936 259.849L467.597 250.993L466.026 251.872M484.295 268.584V269.903V276.745C484.295 277.455 483.806 278.136 482.936 278.638L358.662 350.388M466.026 251.872L422.956 276.634C421.598 277.418 419.396 277.418 418.037 276.634L335.165 228.788C334.917 228.644 334.714 228.485 334.556 228.314M466.026 251.872L465.254 251.426M228.5 269.794C228.483 269.096 228.935 268.395 229.858 267.862L360.057 192.691C361.868 191.646 364.805 191.646 366.616 192.691L379.785 200.295M228.5 269.794C228.517 270.466 228.97 271.136 229.858 271.648L233.646 273.836L237.989 276.271M379.785 200.295L335.165 225.948C334.055 226.589 333.852 227.555 334.556 228.314M379.785 200.295V202.08M237.989 276.271L314.304 232.211M237.989 276.271V279.111M314.304 232.211C316.115 231.165 319.051 231.165 320.862 232.211M314.304 232.211V235.051M237.989 279.111L314.304 235.051M237.989 279.111L241.268 281.005M339.917 337.96L412.728 295.643C414.618 294.552 413.762 292.384 411.174 290.979L320.862 238.838C319.051 237.792 316.115 237.792 314.304 238.838L241.268 281.005M339.917 337.96L241.268 281.005M419.822 289.345L320.862 232.211M419.822 289.345V292.185L320.862 235.051M320.862 232.211V235.051M320.862 235.051C319.051 234.005 316.115 234.005 314.304 235.051M334.556 228.314C334.714 228.144 334.917 227.985 335.165 227.841L379.785 202.08M379.785 202.08L394.735 210.712M394.735 210.712L396.131 209.906L465.254 249.814M394.735 210.712L353.586 234.469C352.228 235.253 352.228 236.525 353.586 237.309L417.791 274.377C419.149 275.162 421.351 275.162 422.71 274.377L463.859 250.62M465.254 251.426V249.814M465.254 251.426L463.859 250.62M465.254 249.814L463.859 250.62M244.114 262.526L238.531 265.749L239.911 266.546M244.114 262.526L250.528 266.228L249.148 267.025M244.114 262.526V264.119M239.911 266.546L244.114 264.119M239.911 266.546L244.944 269.452L249.148 267.025M249.148 267.025L244.114 264.119M400.254 258.117L434.765 238.192L451.451 247.826L416.94 267.751L400.254 258.117Z" stroke="#545454" stroke-width="0.473334"/>
<path d="M353.586 229.845C352.228 229.061 352.228 227.79 353.586 227.005L394.735 203.248L396.131 202.442L465.254 242.351L463.859 243.156L422.71 266.914C421.351 267.698 419.149 267.698 417.791 266.914L353.586 229.845Z" fill="#0F1013"/>
<path d="M434.765 230.729L400.254 250.654L416.94 260.287L451.451 240.362L434.765 230.729Z" fill="#07080A"/>
<path d="M244.114 255.062L238.531 258.286L239.911 259.082L244.944 261.988L249.148 259.562L250.528 258.765L244.114 255.062Z" fill="#07080A"/>
<path d="M335.165 221.324L418.037 269.17C419.396 269.955 421.598 269.955 422.956 269.17L466.026 244.408L465.254 243.962L463.859 243.156L422.71 266.914C421.351 267.698 419.149 267.698 417.791 266.914L353.586 229.845C352.228 229.061 352.228 227.79 353.586 227.005L394.735 203.248L379.785 194.616L335.165 220.378C334.917 220.521 334.714 220.681 334.556 220.851C334.714 221.021 334.917 221.181 335.165 221.324Z" fill="#07080A"/>
<path d="M229.858 272.346L352.104 342.924V334.763L345.949 331.159L343.507 329.729V332.569L339.917 330.496L241.268 273.541L237.989 271.648V268.808L233.646 266.372L229.858 264.185C228.97 263.672 228.517 263.003 228.5 262.331V270.499C228.52 271.168 228.973 271.835 229.858 272.346Z" fill="#07080A"/>
<path d="M482.936 263.014L358.662 334.763V342.924L482.936 271.174C483.806 270.672 484.295 269.991 484.295 269.281V262.44V261.12C484.295 261.83 483.806 262.511 482.936 263.014Z" fill="#07080A"/>
<path d="M358.662 334.763C356.851 335.809 353.915 335.809 352.104 334.763V342.924C353.915 343.97 356.851 343.97 358.662 342.924V334.763Z" fill="#07080A"/>
<path d="M314.304 224.747L237.989 268.808V271.648L314.304 227.587V224.747Z" fill="#07080A"/>
<path d="M419.822 281.882L320.862 224.747V227.587L419.822 284.722V281.882Z" fill="#07080A"/>
<path d="M320.862 224.747C319.051 223.702 316.115 223.702 314.304 224.747V227.587C316.115 226.542 319.051 226.542 320.862 227.587V224.747Z" fill="#07080A"/>
<path d="M320.862 231.374C319.051 230.328 316.115 230.328 314.304 231.374L241.268 273.541L339.917 330.496L412.728 288.179C414.618 287.088 413.762 284.92 411.174 283.516L320.862 231.374Z" fill="#0F1013"/>
<path d="M419.822 285.668C421.633 284.623 421.633 282.927 419.822 281.882V284.722L320.862 227.587C319.051 226.542 316.115 226.542 314.304 227.587L237.989 271.648L241.268 273.541L314.304 231.374C316.115 230.328 319.051 230.328 320.862 231.374L411.174 283.516C413.762 284.92 414.618 287.088 412.728 288.179L339.917 330.496L343.507 332.569V329.729L417.362 287.088L419.822 285.668Z" fill="#07080A"/>
<path fill-rule="evenodd" clip-rule="evenodd" d="M360.057 185.228L229.858 260.398C228.935 260.931 228.483 261.632 228.5 262.331C228.517 263.003 228.97 263.672 229.858 264.185L233.646 266.372L237.989 268.808L314.304 224.747C316.115 223.702 319.051 223.702 320.862 224.747L419.822 281.882C421.633 282.927 421.633 284.623 419.822 285.668L417.362 287.088L343.507 329.729L345.949 331.159L352.104 334.763C353.915 335.809 356.851 335.809 358.662 334.763L482.936 263.014C483.806 262.511 484.295 261.83 484.295 261.12V254.279C484.295 253.569 483.806 252.888 482.936 252.386L467.597 243.529L466.026 244.408L422.956 269.17C421.598 269.955 419.396 269.955 418.037 269.17L335.165 221.324C334.917 221.181 334.714 221.021 334.556 220.851C333.852 220.091 334.055 219.125 335.165 218.484L379.785 192.831L366.616 185.228C364.805 184.182 361.868 184.182 360.057 185.228ZM238.531 258.286L244.114 255.062L250.528 258.765L249.148 259.562L244.944 261.988L239.911 259.082L238.531 258.286Z" fill="#07080A"/>
<path d="M379.785 192.831L335.165 218.484C334.055 219.125 333.852 220.091 334.556 220.851C334.714 220.681 334.917 220.521 335.165 220.378L379.785 194.616V192.831Z" fill="#07080A"/>
<path d="M352.104 334.763C353.915 335.809 356.851 335.809 358.662 334.763M352.104 334.763V342.924M352.104 334.763L345.949 331.159L343.507 329.729M358.662 334.763L482.936 263.014C483.806 262.511 484.295 261.83 484.295 261.12M358.662 334.763V342.924M352.104 342.924L229.858 272.346C228.973 271.835 228.52 271.168 228.5 270.499V262.331M352.104 342.924C353.915 343.97 356.851 343.97 358.662 342.924M343.507 329.729V332.569L339.917 330.496M343.507 329.729L417.362 287.088L419.822 285.668C421.633 284.623 421.633 282.927 419.822 281.882M484.295 261.12V254.279C484.295 253.569 483.806 252.888 482.936 252.386L467.597 243.529L466.026 244.408M484.295 261.12V262.44V269.281C484.295 269.991 483.806 270.672 482.936 271.174L358.662 342.924M466.026 244.408L422.956 269.17C421.598 269.955 419.396 269.955 418.037 269.17L335.165 221.324C334.917 221.181 334.714 221.021 334.556 220.851M466.026 244.408L465.254 243.962M228.5 262.331C228.483 261.632 228.935 260.931 229.858 260.398L360.057 185.228C361.868 184.182 364.805 184.182 366.616 185.228L379.785 192.831M228.5 262.331C228.517 263.003 228.97 263.672 229.858 264.185L233.646 266.372L237.989 268.808M379.785 192.831L335.165 218.484C334.055 219.125 333.852 220.091 334.556 220.851M379.785 192.831V194.616M237.989 268.808L314.304 224.747M237.989 268.808V271.648M314.304 224.747C316.115 223.702 319.051 223.702 320.862 224.747M314.304 224.747V227.587M237.989 271.648L314.304 227.587M237.989 271.648L241.268 273.541M339.917 330.496L412.728 288.179C414.618 287.088 413.762 284.92 411.174 283.516L320.862 231.374C319.051 230.328 316.115 230.328 314.304 231.374L241.268 273.541M339.917 330.496L241.268 273.541M419.822 281.882L320.862 224.747M419.822 281.882V284.722L320.862 227.587M320.862 224.747V227.587M320.862 227.587C319.051 226.542 316.115 226.542 314.304 227.587M334.556 220.851C334.714 220.681 334.917 220.521 335.165 220.378L379.785 194.616M379.785 194.616L394.735 203.248M394.735 203.248L396.131 202.442L465.254 242.351M394.735 203.248L353.586 227.005C352.228 227.79 352.228 229.061 353.586 229.845L417.791 266.914C419.149 267.698 421.351 267.698 422.71 266.914L463.859 243.156M465.254 243.962V242.351M465.254 243.962L463.859 243.156M465.254 242.351L463.859 243.156M244.114 255.062L238.531 258.286L239.911 259.082M244.114 255.062L250.528 258.765L249.148 259.562M244.114 255.062V256.656M239.911 259.082L244.114 256.656M239.911 259.082L244.944 261.988L249.148 259.562M249.148 259.562L244.114 256.656M400.254 250.654L434.765 230.729L451.451 240.362L416.94 260.287L400.254 250.654Z" stroke="#545454" stroke-width="0.473334"/>
<path d="M353.586 223.109C352.228 222.325 352.228 221.053 353.586 220.269L394.735 196.511L396.131 195.706L465.254 235.614L463.859 236.42L422.71 260.177C421.351 260.961 419.149 260.961 417.791 260.177L353.586 223.109Z" fill="#0F1013"/>
<path d="M434.765 223.992L400.254 243.917L416.94 253.551L451.451 233.626L434.765 223.992Z" fill="#07080A"/>
<path d="M244.114 248.325L238.531 251.549L239.911 252.346L244.944 255.252L249.148 252.825L250.528 252.028L244.114 248.325Z" fill="#07080A"/>
<path d="M335.165 214.588L418.037 262.434C419.396 263.218 421.598 263.218 422.956 262.434L466.026 237.671L465.254 237.226L463.859 236.42L422.71 260.177C421.351 260.961 419.149 260.961 417.791 260.177L353.586 223.109C352.228 222.325 352.228 221.053 353.586 220.269L394.735 196.511L379.785 187.88L335.165 213.641C334.917 213.784 334.714 213.944 334.556 214.114C334.714 214.284 334.917 214.444 335.165 214.588Z" fill="#07080A"/>
<path d="M229.858 265.609L352.104 336.187V328.027L345.949 324.422L343.507 322.992V325.832L339.917 323.759L241.268 266.804L237.989 264.911V262.071L233.646 259.635L229.858 257.448C228.97 256.935 228.517 256.266 228.5 255.594V263.762C228.52 264.432 228.973 265.098 229.858 265.609Z" fill="#07080A"/>
<path d="M482.936 256.277L358.662 328.027V336.187L482.936 264.438C483.806 263.936 484.295 263.255 484.295 262.544V255.703V254.384C484.295 255.094 483.806 255.775 482.936 256.277Z" fill="#07080A"/>
<path d="M358.662 328.027C356.851 329.072 353.915 329.072 352.104 328.027V336.187C353.915 337.233 356.851 337.233 358.662 336.187V328.027Z" fill="#07080A"/>
<path d="M314.304 218.011L237.989 262.071V264.911L314.304 220.851V218.011Z" fill="#07080A"/>
<path d="M419.822 275.145L320.862 218.011V220.851L419.822 277.985V275.145Z" fill="#07080A"/>
<path d="M320.862 218.011C319.051 216.965 316.115 216.965 314.304 218.011V220.851C316.115 219.805 319.051 219.805 320.862 220.851V218.011Z" fill="#07080A"/>
<path d="M320.862 224.637C319.051 223.592 316.115 223.592 314.304 224.637L241.268 266.804L339.917 323.759L412.728 281.443C414.618 280.352 413.762 278.184 411.174 276.779L320.862 224.637Z" fill="#0F1013"/>
<path d="M419.822 278.932C421.633 277.886 421.633 276.191 419.822 275.145V277.985L320.862 220.851C319.051 219.805 316.115 219.805 314.304 220.851L237.989 264.911L241.268 266.804L314.304 224.637C316.115 223.592 319.051 223.592 320.862 224.637L411.174 276.779C413.762 278.184 414.618 280.352 412.728 281.443L339.917 323.759L343.507 325.832V322.992L417.362 280.352L419.822 278.932Z" fill="#07080A"/>
<path fill-rule="evenodd" clip-rule="evenodd" d="M360.057 178.491L229.858 253.662C228.935 254.194 228.483 254.896 228.5 255.594C228.517 256.266 228.97 256.935 229.858 257.448L233.646 259.635L237.989 262.071L314.304 218.011C316.115 216.965 319.051 216.965 320.862 218.011L419.822 275.145C421.633 276.191 421.633 277.886 419.822 278.932L417.362 280.352L343.507 322.992L345.949 324.422L352.104 328.027C353.915 329.072 356.851 329.072 358.662 328.027L482.936 256.277C483.806 255.775 484.295 255.094 484.295 254.384V247.542C484.295 246.832 483.806 246.151 482.936 245.649L467.597 236.793L466.026 237.671L422.956 262.434C421.598 263.218 419.396 263.218 418.037 262.434L335.165 214.588C334.917 214.444 334.714 214.284 334.556 214.114C333.852 213.354 334.055 212.388 335.165 211.748L379.785 186.094L366.616 178.491C364.805 177.446 361.868 177.446 360.057 178.491ZM238.531 251.549L244.114 248.325L250.528 252.028L249.148 252.825L244.944 255.252L239.911 252.346L238.531 251.549Z" fill="#07080A"/>
<path d="M379.785 186.094L335.165 211.748C334.055 212.388 333.852 213.354 334.556 214.114C334.714 213.944 334.917 213.784 335.165 213.641L379.785 187.88V186.094Z" fill="#07080A"/>
<path d="M352.104 328.027C353.915 329.072 356.851 329.072 358.662 328.027M352.104 328.027V336.187M352.104 328.027L345.949 324.422L343.507 322.992M358.662 328.027L482.936 256.277C483.806 255.775 484.295 255.094 484.295 254.384M358.662 328.027V336.187M352.104 336.187L229.858 265.609C228.973 265.098 228.52 264.432 228.5 263.762V255.594M352.104 336.187C353.915 337.233 356.851 337.233 358.662 336.187M343.507 322.992V325.832L339.917 323.759M343.507 322.992L417.362 280.352L419.822 278.932C421.633 277.886 421.633 276.191 419.822 275.145M484.295 254.384V247.542C484.295 246.832 483.806 246.151 482.936 245.649L467.597 236.793L466.026 237.671M484.295 254.384V255.703V262.544C484.295 263.255 483.806 263.936 482.936 264.438L358.662 336.187M466.026 237.671L422.956 262.434C421.598 263.218 419.396 263.218 418.037 262.434L335.165 214.588C334.917 214.444 334.714 214.284 334.556 214.114M466.026 237.671L465.254 237.226M228.5 255.594C228.483 254.896 228.935 254.194 229.858 253.662L360.057 178.491C361.868 177.446 364.805 177.446 366.616 178.491L379.785 186.094M228.5 255.594C228.517 256.266 228.97 256.935 229.858 257.448L233.646 259.635L237.989 262.071M379.785 186.094L335.165 211.748C334.055 212.388 333.852 213.354 334.556 214.114M379.785 186.094V187.88M237.989 262.071L314.304 218.011M237.989 262.071V264.911M314.304 218.011C316.115 216.965 319.051 216.965 320.862 218.011M314.304 218.011V220.851M237.989 264.911L314.304 220.851M237.989 264.911L241.268 266.804M339.917 323.759L412.728 281.443C414.618 280.352 413.762 278.184 411.174 276.779L320.862 224.637C319.051 223.592 316.115 223.592 314.304 224.637L241.268 266.804M339.917 323.759L241.268 266.804M419.822 275.145L320.862 218.011M419.822 275.145V277.985L320.862 220.851M320.862 218.011V220.851M320.862 220.851C319.051 219.805 316.115 219.805 314.304 220.851M334.556 214.114C334.714 213.944 334.917 213.784 335.165 213.641L379.785 187.88M379.785 187.88L394.735 196.511M394.735 196.511L396.131 195.706L465.254 235.614M394.735 196.511L353.586 220.269C352.228 221.053 352.228 222.325 353.586 223.109L417.791 260.177C419.149 260.961 421.351 260.961 422.71 260.177L463.859 236.42M465.254 237.226V235.614M465.254 237.226L463.859 236.42M465.254 235.614L463.859 236.42M244.114 248.325L238.531 251.549L239.911 252.346M244.114 248.325L250.528 252.028L249.148 252.825M244.114 248.325V249.919M239.911 252.346L244.114 249.919M239.911 252.346L244.944 255.252L249.148 252.825M249.148 252.825L244.114 249.919M400.254 243.917L434.765 223.992L451.451 233.626L416.94 253.551L400.254 243.917Z" stroke="#545454" stroke-width="0.473334"/>
<path d="M353.586 215.645C352.228 214.861 352.228 213.589 353.586 212.805L394.735 189.048L396.131 188.242L465.254 228.15L463.859 228.956L422.71 252.713C421.351 253.498 419.149 253.498 417.791 252.713L353.586 215.645Z" fill="#0F1013"/>
<path d="M434.765 216.528L400.254 236.453L416.94 246.087L451.451 226.162L434.765 216.528Z" fill="#07080A"/>
<path d="M244.114 240.861L238.531 244.085L239.911 244.882L244.944 247.788L249.148 245.361L250.528 244.564L244.114 240.861Z" fill="#07080A"/>
<path d="M335.165 207.124L418.037 254.97C419.396 255.754 421.598 255.754 422.956 254.97L466.026 230.208L465.254 229.762L463.859 228.956L422.71 252.713C421.351 253.498 419.149 253.498 417.791 252.713L353.586 215.645C352.228 214.861 352.228 213.589 353.586 212.805L394.735 189.048L379.785 180.416L335.165 206.177C334.917 206.321 334.714 206.48 334.556 206.65C334.714 206.821 334.917 206.98 335.165 207.124Z" fill="#07080A"/>
<path d="M229.858 258.145L352.104 328.724V320.563L345.949 316.958L343.507 315.528V318.368L339.917 316.296L241.268 259.341L237.989 257.447V254.607L233.646 252.171L229.858 249.984C228.97 249.472 228.517 248.802 228.5 248.13V256.298C228.52 256.968 228.973 257.634 229.858 258.145Z" fill="#07080A"/>
<path d="M482.936 248.813L358.662 320.563V328.724L482.936 256.974C483.806 256.472 484.295 255.791 484.295 255.081V248.239V246.92C484.295 247.63 483.806 248.311 482.936 248.813Z" fill="#07080A"/>
<path d="M358.662 320.562C356.851 321.607 353.915 321.607 352.104 320.562V328.724C353.915 329.769 356.851 329.769 358.662 328.724V320.562Z" fill="#07080A"/>
<path d="M314.304 210.547L237.989 254.607V257.447L314.304 213.387V210.547Z" fill="#07080A"/>
<path d="M419.822 267.681L320.862 210.547V213.387L419.822 270.521V267.681Z" fill="#07080A"/>
<path d="M320.862 210.547C319.051 209.501 316.115 209.501 314.304 210.547V213.387C316.115 212.341 319.051 212.341 320.862 213.387V210.547Z" fill="#07080A"/>
<path d="M320.862 217.174C319.051 216.128 316.115 216.128 314.304 217.174L241.268 259.341L339.917 316.296L412.728 273.979C414.618 272.888 413.762 270.72 411.174 269.315L320.862 217.174Z" fill="#0F1013"/>
<path d="M419.822 271.468C421.633 270.422 421.633 268.727 419.822 267.681V270.521L320.862 213.387C319.051 212.341 316.115 212.341 314.304 213.387L237.989 257.447L241.268 259.341L314.304 217.174C316.115 216.128 319.051 216.128 320.862 217.174L411.174 269.315C413.762 270.72 414.618 272.888 412.728 273.979L339.917 316.296L343.507 318.368V315.528L417.362 272.888L419.822 271.468Z" fill="#07080A"/>
<path fill-rule="evenodd" clip-rule="evenodd" d="M360.057 171.027L229.858 246.198C228.935 246.731 228.483 247.432 228.5 248.13C228.517 248.802 228.97 249.472 229.858 249.984L233.646 252.171L237.989 254.607L314.304 210.547C316.115 209.501 319.051 209.501 320.862 210.547L419.822 267.681C421.633 268.727 421.633 270.422 419.822 271.468L417.362 272.888L343.507 315.528L345.949 316.958L352.104 320.563C353.915 321.608 356.851 321.608 358.662 320.563L482.936 248.813C483.806 248.311 484.295 247.63 484.295 246.92V240.078C484.295 239.368 483.806 238.687 482.936 238.185L467.597 229.329L466.026 230.208L422.956 254.97C421.598 255.754 419.396 255.754 418.037 254.97L335.165 207.124C334.917 206.98 334.714 206.821 334.556 206.65C333.852 205.891 334.055 204.925 335.165 204.284L379.785 178.631L366.616 171.027C364.805 169.982 361.868 169.982 360.057 171.027ZM238.531 244.085L244.114 240.861L250.528 244.564L249.148 245.361L244.944 247.788L239.911 244.882L238.531 244.085Z" fill="#07080A"/>
<path d="M379.785 178.631L335.165 204.284C334.055 204.925 333.852 205.891 334.556 206.65C334.714 206.48 334.917 206.321 335.165 206.177L379.785 180.416V178.631Z" fill="#07080A"/>
<path d="M352.104 320.563C353.915 321.608 356.851 321.608 358.662 320.563M352.104 320.563V328.724M352.104 320.563L345.949 316.958L343.507 315.528M358.662 320.563L482.936 248.813C483.806 248.311 484.295 247.63 484.295 246.92M358.662 320.563V328.724M352.104 328.724L229.858 258.145C228.973 257.634 228.52 256.968 228.5 256.298V248.13M352.104 328.724C353.915 329.769 356.851 329.769 358.662 328.724M343.507 315.528V318.368L339.917 316.296M343.507 315.528L417.362 272.888L419.822 271.468C421.633 270.422 421.633 268.727 419.822 267.681M484.295 246.92V240.078C484.295 239.368 483.806 238.687 482.936 238.185L467.597 229.329L466.026 230.208M484.295 246.92V248.239V255.081C484.295 255.791 483.806 256.472 482.936 256.974L358.662 328.724M466.026 230.208L422.956 254.97C421.598 255.754 419.396 255.754 418.037 254.97L335.165 207.124C334.917 206.98 334.714 206.821 334.556 206.65M466.026 230.208L465.254 229.762M228.5 248.13C228.483 247.432 228.935 246.731 229.858 246.198L360.057 171.027C361.868 169.982 364.805 169.982 366.616 171.027L379.785 178.631M228.5 248.13C228.517 248.802 228.97 249.472 229.858 249.984L233.646 252.171L237.989 254.607M379.785 178.631L335.165 204.284C334.055 204.925 333.852 205.891 334.556 206.65M379.785 178.631V180.416M237.989 254.607L314.304 210.547M237.989 254.607V257.447M314.304 210.547C316.115 209.501 319.051 209.501 320.862 210.547M314.304 210.547V213.387M237.989 257.447L314.304 213.387M237.989 257.447L241.268 259.341M339.917 316.296L412.728 273.979C414.618 272.888 413.762 270.72 411.174 269.315L320.862 217.174C319.051 216.128 316.115 216.128 314.304 217.174L241.268 259.341M339.917 316.296L241.268 259.341M419.822 267.681L320.862 210.547M419.822 267.681V270.521L320.862 213.387M320.862 210.547V213.387M320.862 213.387C319.051 212.341 316.115 212.341 314.304 213.387M334.556 206.65C334.714 206.48 334.917 206.321 335.165 206.177L379.785 180.416M379.785 180.416L394.735 189.048M394.735 189.048L396.131 188.242L465.254 228.15M394.735 189.048L353.586 212.805C352.228 213.589 352.228 214.861 353.586 215.645L417.791 252.713C419.149 253.498 421.351 253.498 422.71 252.713L463.859 228.956M465.254 229.762V228.15M465.254 229.762L463.859 228.956M465.254 228.15L463.859 228.956M244.114 240.861L238.531 244.085L239.911 244.882M244.114 240.861L250.528 244.564L249.148 245.361M244.114 240.861V242.455M239.911 244.882L244.114 242.455M239.911 244.882L244.944 247.788L249.148 245.361M249.148 245.361L244.114 242.455M400.254 236.453L434.765 216.528L451.451 226.162L416.94 246.087L400.254 236.453Z" stroke="#545454" stroke-width="0.473334"/>
<path d="M244.114 232.861L238.531 236.085L239.911 236.882L244.944 239.788L249.148 237.361L250.528 236.564L244.114 232.861Z" fill="#02193B"/>
<path d="M335.165 199.124L418.037 246.97C419.396 247.754 421.598 247.754 422.956 246.97L466.026 222.208L465.254 221.762L463.859 220.956L422.71 244.713C421.351 245.498 419.149 245.498 417.791 244.713L353.586 207.645C352.228 206.861 352.228 205.589 353.586 204.805L394.735 181.048L379.785 172.416L335.165 198.177C334.917 198.321 334.714 198.48 334.556 198.651C334.714 198.821 334.917 198.98 335.165 199.124Z" fill="#02193B"/>
<path d="M229.858 250.145L352.104 320.724V312.563L345.949 308.958L343.507 307.528V310.368L339.917 308.296L241.268 251.341L237.989 249.447V246.607L233.646 244.171L229.858 241.984C228.97 241.472 228.517 240.802 228.5 240.13V248.298C228.52 248.968 228.973 249.634 229.858 250.145Z" fill="#02193B"/>
<path d="M482.936 240.813L358.662 312.563V320.724L482.936 248.974C483.806 248.472 484.295 247.791 484.295 247.081V240.239V238.92C484.295 239.63 483.806 240.311 482.936 240.813Z" fill="#02193B"/>
<path d="M358.662 312.563C356.851 313.608 353.915 313.608 352.104 312.563V320.724C353.915 321.769 356.851 321.769 358.662 320.724V312.563Z" fill="#02193B"/>
<path d="M314.304 202.547L237.989 246.607V249.447L314.304 205.387V202.547Z" fill="#02193B"/>
<path d="M419.822 259.681L320.862 202.547V205.387L419.822 262.521V259.681Z" fill="#02193B"/>
<path d="M320.862 202.547C319.051 201.501 316.115 201.501 314.304 202.547V205.387C316.115 204.341 319.051 204.341 320.862 205.387V202.547Z" fill="#02193B"/>
<path d="M320.862 209.174C319.051 208.128 316.115 208.128 314.304 209.174L241.268 251.341L339.917 308.296L412.728 265.979C414.618 264.888 413.762 262.72 411.174 261.315L320.862 209.174Z" fill="#032049"/>
<path d="M419.822 263.468C421.633 262.422 421.633 260.727 419.822 259.681V262.521L320.862 205.387C319.051 204.341 316.115 204.341 314.304 205.387L237.989 249.447L241.268 251.341L314.304 209.173C316.115 208.128 319.051 208.128 320.862 209.173L411.174 261.315C413.762 262.72 414.618 264.888 412.728 265.979L339.917 308.296L343.507 310.368V307.528L417.362 264.888L419.822 263.468Z" fill="#02193B"/>
<path fill-rule="evenodd" clip-rule="evenodd" d="M360.057 163.027L229.858 238.198C228.935 238.731 228.483 239.432 228.5 240.13C228.517 240.802 228.97 241.472 229.858 241.984L233.646 244.171L237.989 246.607L314.304 202.547C316.115 201.501 319.051 201.501 320.862 202.547L419.822 259.681C421.633 260.727 421.633 262.422 419.822 263.468L417.362 264.888L343.507 307.528L345.949 308.958L352.104 312.563C353.915 313.608 356.851 313.608 358.662 312.563L482.936 240.813C483.806 240.311 484.295 239.63 484.295 238.92V232.078C484.295 231.368 483.806 230.687 482.936 230.185L467.597 221.329L466.026 222.208L422.956 246.97C421.598 247.754 419.396 247.754 418.037 246.97L335.165 199.124C334.917 198.98 334.714 198.821 334.556 198.65C333.852 197.891 334.055 196.925 335.165 196.284L379.785 170.631L366.616 163.027C364.805 161.982 361.868 161.982 360.057 163.027ZM238.531 236.085L244.114 232.861L250.528 236.564L249.148 237.361L244.944 239.788L239.911 236.882L238.531 236.085Z" fill="#02193B"/>
<path d="M379.785 170.631L335.165 196.284C334.055 196.925 333.852 197.891 334.556 198.651C334.714 198.481 334.917 198.321 335.165 198.177L379.785 172.416V170.631Z" fill="#02193B"/>
<path d="M352.104 312.563C353.915 313.608 356.851 313.608 358.662 312.563M352.104 312.563V320.724M352.104 312.563L345.949 308.958L343.507 307.528M358.662 312.563L482.936 240.813C483.806 240.311 484.295 239.63 484.295 238.92M358.662 312.563V320.724M352.104 320.724L229.858 250.145C228.973 249.634 228.52 248.968 228.5 248.298V240.13M352.104 320.724C353.915 321.769 356.851 321.769 358.662 320.724M343.507 307.528V310.368L339.917 308.296M343.507 307.528L417.362 264.888L419.822 263.468C421.633 262.422 421.633 260.727 419.822 259.681M484.295 238.92V232.078C484.295 231.368 483.806 230.687 482.936 230.185L467.597 221.329L466.026 222.208M484.295 238.92V240.239V247.081C484.295 247.791 483.806 248.472 482.936 248.974L358.662 320.724M466.026 222.208L422.956 246.97C421.598 247.754 419.396 247.754 418.037 246.97L335.165 199.124C334.917 198.98 334.714 198.821 334.556 198.65M466.026 222.208L465.254 221.762M228.5 240.13C228.483 239.432 228.935 238.731 229.858 238.198L360.057 163.027C361.868 161.982 364.805 161.982 366.616 163.027L379.785 170.631M228.5 240.13C228.517 240.802 228.97 241.472 229.858 241.984L233.646 244.171L237.989 246.607M379.785 170.631L335.165 196.284C334.055 196.925 333.852 197.891 334.556 198.65M379.785 170.631V172.416M237.989 246.607L314.304 202.547M237.989 246.607V249.447M314.304 202.547C316.115 201.501 319.051 201.501 320.862 202.547M314.304 202.547V205.387M237.989 249.447L314.304 205.387M237.989 249.447L241.268 251.341M339.917 308.296L412.728 265.979C414.618 264.888 413.762 262.72 411.174 261.315L320.862 209.174C319.051 208.128 316.115 208.128 314.304 209.174L241.268 251.341M339.917 308.296L241.268 251.341M419.822 259.681L320.862 202.547M419.822 259.681V262.521L320.862 205.387M320.862 202.547V205.387M320.862 205.387C319.051 204.341 316.115 204.341 314.304 205.387M334.556 198.65C334.714 198.48 334.917 198.321 335.165 198.177L379.785 172.416M379.785 172.416L394.735 181.048M394.735 181.048L396.131 180.242L465.254 220.15M394.735 181.048L353.586 204.805C352.228 205.589 352.228 206.861 353.586 207.645L417.791 244.713C419.149 245.498 421.351 245.498 422.71 244.713L463.859 220.956M465.254 221.762V220.15M465.254 221.762L463.859 220.956M465.254 220.15L463.859 220.956M244.114 232.861L238.531 236.085L239.911 236.882M244.114 232.861L250.528 236.564L249.148 237.361M244.114 232.861V234.455M239.911 236.882L244.114 234.455M239.911 236.882L244.944 239.788L249.148 237.361M249.148 237.361L244.114 234.455M400.254 228.453L434.765 208.528L451.451 218.162L416.94 238.087L400.254 228.453Z" stroke="#143CA3" stroke-width="0.473334"/>
<path fill-rule="evenodd" clip-rule="evenodd" d="M315.859 251.967L312.729 253.775V245.107L315.863 245.114L315.859 251.967ZM315.859 255.582L312.729 253.775V262.443L315.859 262.444V255.582ZM339.597 262.436L342.727 262.435V245.115L339.597 245.116L339.59 251.964L336.007 249.895L336.004 245.12L332.873 245.119V248.094L331.08 247.058L319.44 253.779L331.08 260.499L332.88 259.46V262.435L336.011 262.436V257.653L339.593 255.584L339.597 262.436ZM329.294 245.115L326.164 245.116V247.054L329.294 247.053V245.115ZM329.294 260.496L326.17 260.499V262.438L329.301 262.437L329.294 260.496ZM322.578 245.116H319.445V249.897L322.578 248.089V245.116ZM322.578 259.461L319.445 257.653V262.434H322.578V259.461Z" fill="#02193B"/>
<path d="M353.586 207.645C352.228 206.861 352.228 205.589 353.586 204.805L394.735 181.048L396.131 180.242L465.254 220.15L463.859 220.956L422.71 244.713C421.351 245.498 419.149 245.498 417.791 244.713L353.586 207.645Z" fill="#63A1FF"/>
<path d="M434.765 208.528L400.254 228.453L416.94 238.087L451.451 218.162L434.765 208.528Z" fill="#02193B"/>


<defs>
<filter id="filter0_di_49_405" x="0" y="0" width="713" height="458" filterUnits="userSpaceOnUse" color-interpolation-filters="sRGB">
<feFlood flood-opacity="0" result="BackgroundImageFix"/>
<feColorMatrix in="SourceAlpha" type="matrix" values="0 0 0 0 0 0 0 0 0 0 0 0 0 0 0 0 0 0 127 0" result="hardAlpha"/>
<feMorphology radius="1" operator="dilate" in="SourceAlpha" result="effect1_dropShadow_49_405"/>
<feOffset/>
<feComposite in2="hardAlpha" operator="out"/>
<feColorMatrix type="matrix" values="0 0 0 0 0.105882 0 0 0 0 0.109804 0 0 0 0 0.117647 0 0 0 1 0"/>
<feBlend mode="normal" in2="BackgroundImageFix" result="effect1_dropShadow_49_405"/>
<feBlend mode="normal" in="SourceGraphic" in2="effect1_dropShadow_49_405" result="shape"/>
<feColorMatrix in="SourceAlpha" type="matrix" values="0 0 0 0 0 0 0 0 0 0 0 0 0 0 0 0 0 0 127 0" result="hardAlpha"/>
<feMorphology radius="1" operator="erode" in="SourceAlpha" result="effect2_innerShadow_49_405"/>
<feOffset/>
<feComposite in2="hardAlpha" operator="arithmetic" k2="-1" k3="1"/>
<feColorMatrix type="matrix" values="0 0 0 0 0.027451 0 0 0 0 0.0313726 0 0 0 0 0.0392157 0 0 0 1 0"/>
<feBlend mode="normal" in2="shape" result="effect2_innerShadow_49_405"/>
</filter>
<radialGradient id="paint0_radial_49_405" cx="0" cy="0" r="1" gradientUnits="userSpaceOnUse" gradientTransform="translate(355.5 228) scale(502.753 322.441)">
<stop offset="0.0207973" stop-color="#2F3031"/>
<stop offset="0.0207973" stop-color="#2F3031" stop-opacity="0"/>
</radialGradient>
</defs>
</svg>

