<svg width="713" height="458" viewBox="0 0 713 458" fill="none" xmlns="http://www.w3.org/2000/svg">


<path fill-rule="evenodd" clip-rule="evenodd" d="M374.682 325.982L375.871 367.431L485.111 312.12C486.244 311.546 486.909 310.299 486.902 308.762L486.228 165.221C486.224 164.471 486.06 163.685 485.749 162.924L474.146 134.529C473.616 133.507 472.941 132.733 472.277 132.156C471.082 131.117 469.923 130.716 469.717 130.65C469.701 130.645 469.685 130.641 469.67 130.636L469.651 130.63L431.852 119.061C431.079 118.824 430.318 118.811 429.646 119.023L392.41 130.759L379.732 104.516L343.941 94.1575C343.263 93.9613 342.595 93.9374 341.99 94.0876L248.375 117.32C248.065 117.318 247.813 117.389 247.61 117.51L248.375 117.32C248.646 117.322 248.961 117.38 249.328 117.51L367.804 159.478C369.74 160.181 370.906 161.68 371.458 163.274C371.76 164.148 371.879 165.051 371.838 165.867C371.815 166.312 371.312 172.081 370.513 181.224C370.513 181.227 370.512 181.229 370.512 181.232C368.801 200.819 365.738 235.881 363.16 267.265C361.105 292.284 359.357 316.963 358.848 324.257C358.784 325.178 359.714 326.083 360.465 325.837L370.792 322.459C372.491 321.903 374.62 323.832 374.682 325.982Z" fill="#07080A"/>
<path d="M379.732 104.516L331.343 119.672C330.912 119.807 331.061 120.564 331.555 120.747L372.991 136.141C374.005 136.517 375.015 136.562 375.892 136.269L392.41 130.759M379.732 104.516L392.41 130.759M379.732 104.516L343.941 94.1575C343.263 93.9613 342.595 93.9374 341.99 94.0876L248.375 117.32M392.41 130.759L429.646 119.023C430.318 118.811 431.079 118.824 431.852 119.061L469.651 130.63L469.67 130.636M371.458 163.274C371.76 164.148 371.879 165.051 371.838 165.867C371.815 166.312 371.312 172.081 370.513 181.224M371.458 163.274C370.906 161.68 369.74 160.181 367.804 159.478L249.328 117.51C248.961 117.38 248.646 117.322 248.375 117.32M371.458 163.274L472.277 132.156M370.513 181.224L370.512 181.232M370.513 181.224C370.513 181.227 370.512 181.229 370.512 181.232M248.375 117.32C248.065 117.318 247.813 117.389 247.61 117.51M248.375 117.32L247.61 117.51M472.277 132.156C472.941 132.733 473.616 133.507 474.146 134.529L485.749 162.924C486.06 163.685 486.224 164.471 486.228 165.221L486.902 308.762C486.909 310.299 486.244 311.546 485.111 312.12L375.871 367.431L374.682 325.982M472.277 132.156C471.082 131.117 469.923 130.716 469.717 130.65M469.717 130.65C469.701 130.645 469.685 130.641 469.67 130.636M469.717 130.65C469.709 130.648 469.703 130.646 469.698 130.645C469.689 130.642 469.679 130.639 469.67 130.636M363.16 267.265C361.105 292.284 359.357 316.963 358.848 324.257M363.16 267.265C365.738 235.881 368.801 200.819 370.512 181.232M363.16 267.265L255.466 322.754C254.405 323.3 253.171 323.33 252.369 321.941C252.083 321.445 251.858 320.516 251.878 320.007L253.233 286.088C253.318 283.981 251.278 281.911 249.512 282.31L239.517 284.567C238.774 284.735 237.919 283.857 237.967 282.976L246.796 119.16C246.852 118.55 247.052 117.842 247.61 117.51M358.848 324.257C358.784 325.178 359.714 326.083 360.465 325.837M358.848 324.257C358.784 325.175 359.717 326.082 360.465 325.837M374.682 325.982C374.62 323.832 372.491 321.903 370.792 322.459M374.682 325.982C374.62 323.832 372.49 321.903 370.792 322.459M370.792 322.459L360.465 325.837" stroke="#545454" stroke-width="0.510966"/>
<path d="M344.01 117.831L333.29 121.35L374.154 136.413C374.41 136.507 374.69 136.511 374.948 136.424L386.881 132.411L346.072 117.857C345.407 117.62 344.681 117.61 344.01 117.831Z" stroke="#545454" stroke-width="0.510966"/>
<path fill-rule="evenodd" clip-rule="evenodd" d="M395.984 342.127C395.984 342.027 396.04 341.935 396.13 341.89L410.233 334.754C410.409 334.665 410.618 334.793 410.618 334.991V335.792C410.618 335.892 410.562 335.984 410.473 336.029L396.369 343.193C396.193 343.283 395.984 343.154 395.984 342.957V342.127ZM412.963 334.764C412.786 334.854 412.577 334.726 412.577 334.528V333.731C412.577 333.631 412.634 333.539 412.723 333.494L426.831 326.355C427.008 326.266 427.216 326.394 427.216 326.592V327.361C427.216 327.461 427.16 327.552 427.071 327.598L412.963 334.764ZM427.216 328.92C427.216 328.723 427.008 328.594 426.831 328.684L412.723 335.822C412.634 335.867 412.577 335.959 412.577 336.059V336.856C412.577 337.054 412.786 337.182 412.963 337.092L427.071 329.926C427.16 329.881 427.216 329.789 427.216 329.689V328.92ZM429.561 328.661C429.384 328.751 429.175 328.622 429.175 328.424V327.66C429.175 327.56 429.232 327.469 429.321 327.424L443.426 320.286C443.603 320.197 443.811 320.325 443.811 320.523V321.259C443.811 321.359 443.755 321.451 443.666 321.496L429.561 328.661ZM446.156 320.231C445.98 320.321 445.771 320.193 445.771 319.995V319.263C445.771 319.163 445.827 319.072 445.916 319.027L454.72 314.572C454.897 314.482 455.105 314.611 455.105 314.809V315.522C455.105 315.622 455.049 315.714 454.96 315.759L446.156 320.231ZM455.105 317.12C455.105 316.922 454.897 316.794 454.72 316.883L445.916 321.338C445.827 321.383 445.771 321.474 445.771 321.574V322.306C445.771 322.504 445.98 322.632 446.156 322.542L454.96 318.07C455.049 318.025 455.105 317.933 455.105 317.834V317.12ZM457.45 316.805C457.274 316.895 457.065 316.767 457.065 316.569V315.86C457.065 315.76 457.121 315.668 457.21 315.623L482.711 302.72C482.887 302.631 483.096 302.759 483.096 302.957V303.615C483.096 303.715 483.04 303.807 482.951 303.852L457.45 316.805ZM455.105 319.475C455.105 319.277 454.897 319.149 454.72 319.238L445.916 323.693C445.827 323.738 445.771 323.83 445.771 323.93V324.661C445.771 324.859 445.98 324.987 446.156 324.898L454.96 320.426C455.049 320.38 455.105 320.289 455.105 320.189V319.475ZM457.45 319.161C457.274 319.251 457.065 319.122 457.065 318.924V318.215C457.065 318.115 457.121 318.024 457.21 317.978L482.813 305.024C482.989 304.934 483.198 305.063 483.198 305.26V305.919C483.198 306.019 483.142 306.11 483.053 306.155L457.45 319.161ZM455.105 321.787C455.105 321.589 454.897 321.461 454.72 321.55L445.916 326.005C445.827 326.05 445.771 326.142 445.771 326.242V326.973C445.771 327.171 445.98 327.3 446.156 327.21L454.96 322.738C455.049 322.693 455.105 322.601 455.105 322.501V321.787ZM457.45 321.473C457.274 321.563 457.065 321.434 457.065 321.236V320.527C457.065 320.427 457.121 320.336 457.21 320.29L482.827 307.328C483.004 307.239 483.213 307.367 483.213 307.565V308.224C483.213 308.324 483.156 308.415 483.067 308.46L457.45 321.473ZM457.45 314.494C457.274 314.584 457.065 314.456 457.065 314.258V313.549C457.065 313.449 457.121 313.357 457.21 313.312L482.698 300.415C482.875 300.326 483.083 300.454 483.083 300.652V301.311C483.083 301.41 483.027 301.502 482.938 301.547L457.45 314.494ZM457.065 311.93C457.065 312.127 457.274 312.256 457.45 312.166L482.938 299.219C483.027 299.174 483.083 299.082 483.083 298.982V298.324C483.083 298.126 482.875 297.998 482.698 298.087L457.21 310.984C457.121 311.029 457.065 311.12 457.065 311.221V311.93ZM455.105 312.48C455.105 312.283 454.897 312.154 454.72 312.244L445.916 316.698C445.827 316.744 445.771 316.835 445.771 316.935V317.666C445.771 317.864 445.98 317.993 446.156 317.903L454.96 313.431C455.049 313.386 455.105 313.294 455.105 313.194V312.48ZM429.175 329.972C429.175 329.872 429.232 329.78 429.321 329.735L443.426 322.598C443.603 322.508 443.811 322.637 443.811 322.834V323.571C443.811 323.67 443.755 323.762 443.666 323.807L429.561 330.972C429.384 331.062 429.175 330.934 429.175 330.736V329.972ZM429.175 332.327C429.175 332.227 429.232 332.135 429.321 332.09L443.426 324.953C443.603 324.864 443.811 324.992 443.811 325.19V325.926C443.811 326.026 443.755 326.117 443.666 326.163L429.561 333.328C429.384 333.417 429.175 333.289 429.175 333.091V332.327ZM429.175 334.639C429.175 334.539 429.232 334.447 429.321 334.402L443.426 327.265C443.603 327.176 443.811 327.304 443.811 327.502V328.238C443.811 328.338 443.755 328.429 443.666 328.475L427.678 336.596L429.04 335.836C429.123 335.789 429.175 335.7 429.175 335.604V334.639ZM443.666 319.168C443.755 319.123 443.811 319.031 443.811 318.931V318.195C443.811 317.997 443.603 317.869 443.426 317.958L429.321 325.096C429.232 325.141 429.175 325.232 429.175 325.332V326.096C429.175 326.294 429.384 326.423 429.561 326.333L443.666 319.168ZM427.216 331.231C427.216 331.034 427.008 330.905 426.831 330.995L412.723 338.133C412.634 338.179 412.577 338.27 412.577 338.37V339.167C412.577 339.365 412.786 339.493 412.963 339.403L427.071 332.237C427.16 332.192 427.216 332.1 427.216 332V331.231ZM427.216 333.587C427.216 333.389 427.008 333.261 426.831 333.35L412.723 340.489C412.634 340.534 412.577 340.625 412.577 340.725V341.522C412.577 341.72 412.786 341.849 412.963 341.759L427.071 334.592C427.16 334.547 427.216 334.456 427.216 334.356V333.587ZM427.216 335.899C427.216 335.701 427.008 335.573 426.831 335.662L412.723 342.801C412.634 342.846 412.577 342.938 412.577 343.038V343.835C412.577 344.033 412.786 344.161 412.963 344.071L427.071 336.905C427.16 336.859 427.216 336.768 427.216 336.668V335.899ZM395.984 344.455C395.984 344.355 396.04 344.264 396.13 344.218L410.233 337.082C410.409 336.993 410.618 337.121 410.618 337.319V338.121C410.618 338.22 410.562 338.312 410.473 338.357L396.369 345.521C396.193 345.611 395.984 345.483 395.984 345.285V344.455ZM395.984 346.766C395.984 346.666 396.04 346.575 396.13 346.53L410.233 339.393C410.409 339.304 410.618 339.432 410.618 339.63V340.432C410.618 340.532 410.562 340.623 410.473 340.668L396.369 347.832C396.193 347.922 395.984 347.794 395.984 347.596V346.766ZM395.984 349.122C395.984 349.022 396.04 348.93 396.13 348.885L410.233 341.749C410.409 341.659 410.618 341.788 410.618 341.985V342.787C410.618 342.887 410.562 342.979 410.473 343.024L396.369 350.188C396.193 350.278 395.984 350.149 395.984 349.951V349.122ZM395.984 351.434C395.984 351.334 396.04 351.242 396.13 351.197L410.233 344.061C410.409 343.971 410.618 344.1 410.618 344.297V345.099C410.618 345.199 410.562 345.291 410.473 345.336L396.369 352.5C396.193 352.59 395.984 352.461 395.984 352.263V351.434ZM394.025 343.387C394.025 343.189 393.816 343.061 393.64 343.15L379.314 350.399C379.225 350.444 379.169 350.535 379.169 350.635V351.498C379.169 351.696 379.378 351.824 379.554 351.735L393.88 344.458C393.969 344.413 394.025 344.321 394.025 344.221V343.387ZM394.025 345.715C394.025 345.517 393.816 345.389 393.64 345.478L379.314 352.727C379.225 352.772 379.169 352.863 379.169 352.963V353.826C379.169 354.024 379.378 354.152 379.554 354.063L393.88 346.786C393.969 346.741 394.025 346.649 394.025 346.549V345.715ZM394.025 348.026C394.025 347.828 393.816 347.7 393.64 347.789L379.327 355.031C379.238 355.077 379.182 355.168 379.182 355.268V356.131C379.182 356.329 379.391 356.457 379.567 356.367L393.88 349.097C393.969 349.052 394.025 348.96 394.025 348.861V348.026ZM394.025 350.381C394.025 350.184 393.816 350.055 393.64 350.145L379.429 357.335C379.34 357.38 379.284 357.472 379.284 357.572V358.435C379.284 358.633 379.493 358.761 379.669 358.671L393.88 351.453C393.969 351.407 394.025 351.316 394.025 351.216V350.381ZM394.025 352.694C394.025 352.496 393.816 352.368 393.64 352.457L379.444 359.64C379.355 359.685 379.298 359.777 379.298 359.877V360.739C379.298 360.937 379.507 361.065 379.684 360.976L393.88 353.765C393.969 353.72 394.025 353.628 394.025 353.528V352.694Z" fill="#1C1E24"/>
<path d="M356.61 163.121C359.524 164.145 361.73 167.581 361.447 170.656L345.717 341.623L359.229 337.177C361.191 336.532 363.651 338.77 363.709 341.251L364.445 372.683L375.797 367.496L374.628 326.752C374.558 324.277 372.107 322.056 370.152 322.695L360.695 325.79C359.823 326.076 358.746 325.005 358.834 323.941L371.819 166.693C372.072 163.632 369.877 160.236 366.986 159.214L248.236 117.248C247.355 116.936 246.477 116.876 245.689 117.071L233.918 120L356.61 163.121Z" fill="#07080A"/>
<path d="M345.717 341.623C340.877 342.718 337.016 340.182 337.016 340.182L251.328 305.07V318.234C251.328 321.03 253.239 323.963 255.788 325.08L364.445 372.683L363.709 341.251C363.651 338.77 361.191 336.532 359.229 337.177L345.717 341.623Z" fill="#07080A"/>
<path d="M346.894 169.417C349.777 170.469 351.944 173.871 351.671 176.918L337.016 340.182C337.016 340.182 340.877 342.718 345.717 341.623L361.447 170.656C361.73 167.581 359.524 164.145 356.61 163.121L233.918 120C229.999 121.556 227.79 127.145 227.79 127.145C228.292 126.697 229.102 126.462 230.403 126.936L346.894 169.417Z" fill="#07080A"/>
<path d="M337.016 340.182L351.671 176.918C351.944 173.871 349.777 170.469 346.894 169.417L230.403 126.936C229.102 126.461 228.293 126.696 227.79 127.144C227.157 127.748 227.014 128.538 226.983 128.822C226.975 128.894 226.972 128.967 226.967 129.04L216.64 285.445C216.447 288.38 218.474 291.607 221.218 292.732L251.328 305.07L337.016 340.182Z" fill="#07080A"/>
<path d="M337.016 340.182L351.671 176.918C351.944 173.871 349.777 170.469 346.893 169.417L230.403 126.936C229.102 126.462 228.293 126.696 227.79 127.145M337.016 340.182C337.016 340.182 340.877 342.718 345.717 341.623M337.016 340.182L251.328 305.07M227.79 127.145C227.156 127.748 227.014 128.538 226.983 128.823C226.975 128.895 226.972 128.968 226.967 129.041L216.64 285.445C216.447 288.38 218.474 291.607 221.218 292.732L251.328 305.07M227.79 127.145C227.79 127.145 230 121.555 233.918 120M345.717 341.623L361.447 170.656C361.73 167.581 359.524 164.145 356.61 163.121L233.918 120M345.717 341.623L359.229 337.177C361.191 336.532 363.651 338.77 363.709 341.251L364.445 372.683M251.328 305.07V318.234C251.328 321.03 253.239 323.963 255.788 325.08L364.445 372.683M233.918 120L245.689 117.071C246.477 116.876 247.354 116.936 248.236 117.248L366.986 159.214C369.877 160.236 372.072 163.632 371.819 166.693L358.834 323.941C358.746 325.005 359.823 326.076 360.695 325.79L370.152 322.695C372.107 322.056 374.558 324.277 374.628 326.752L375.797 367.496L364.445 372.683" stroke="#545454" stroke-width="0.510966"/>
<path d="M235.974 144.611C236.17 141.628 238.585 140.054 241.382 141.086L335.904 175.951C338.801 177.02 340.963 180.456 340.655 183.504L332.073 268.694C331.779 271.62 329.314 273.079 326.539 271.971L235.11 235.442C232.346 234.338 230.29 231.092 230.484 228.138L235.974 144.611Z" fill="#07080A" stroke="#545454" stroke-width="0.510966"/>
<path d="M316.55 305.493L328.393 310.102L328.684 306.875L316.961 302.9L306.655 301.343L261.642 283.016V284.633L314.022 305.873L316.55 305.493Z" fill="black"/>
<path d="M328.684 306.875L329.117 302.062C329.331 299.684 327.64 297.028 325.389 296.207L317.71 293.406L316.961 302.9L328.684 306.875Z" fill="#07080A"/>
<path d="M316.55 305.493L316.204 311.14L327.891 315.692L328.393 310.102L316.55 305.493Z" fill="#07080A"/>
<path d="M305.519 318.554L322.867 325.658C325.062 326.557 327.018 325.396 327.227 323.069L327.891 315.692L316.204 311.14L305.519 318.554Z" fill="#07080A"/>
<path d="M306.29 306.875L305.519 318.554L316.204 311.14L316.55 305.493L314.022 305.873L306.29 306.875Z" fill="#07080A"/>
<path d="M311.356 291.088C309.179 290.294 307.303 291.523 307.15 293.844L306.655 301.343L316.961 302.9L317.71 293.406L311.356 291.088Z" fill="#07080A"/>
<path d="M257.024 286.534L306.29 306.875L314.022 305.873L261.641 284.633L257.024 286.534Z" fill="#07080A"/>
<path d="M258.173 281.603C257.677 281.402 257.242 281.68 257.218 282.214L257.024 286.534L261.641 284.633V283.016L258.173 281.603Z" fill="#07080A"/>
<path d="M305.519 318.554L322.867 325.658C325.062 326.557 327.018 325.396 327.227 323.069L327.891 315.692M305.519 318.554L306.29 306.875M305.519 318.554L316.204 311.14M327.891 315.692L316.204 311.14M327.891 315.692L328.393 310.102M306.29 306.875L257.024 286.534M306.29 306.875L314.022 305.873M316.204 311.14L316.55 305.493M306.655 301.343L307.15 293.844C307.303 291.523 309.179 290.294 311.356 291.088L317.71 293.406M306.655 301.343L316.961 302.9M306.655 301.343L261.641 283.016M317.71 293.406L316.961 302.9M317.71 293.406L325.389 296.207C327.64 297.028 329.331 299.684 329.117 302.062L328.684 306.875M316.961 302.9L328.684 306.875M261.641 283.016L258.173 281.603C257.677 281.402 257.242 281.68 257.218 282.214L257.024 286.534M261.641 283.016V284.633M257.024 286.534L261.641 284.633M261.641 284.633L314.022 305.873M314.022 305.873L316.55 305.493M316.55 305.493L328.393 310.102M328.393 310.102L328.684 306.875" stroke="#545454" stroke-width="0.510966"/>
<path d="M249.897 144.201L335.902 175.946C338.801 177.016 340.962 180.455 340.652 183.504L332.949 259.231C285.533 250.465 256.974 229.906 247.941 222.513C245.92 220.859 244.606 218.38 244.362 215.886C243.363 205.677 241.672 176.786 249.897 144.201Z" fill="#02193B" stroke="#143CA3" stroke-width="0.510966"/>
<path fill-rule="evenodd" clip-rule="evenodd" d="M280.947 202.763V204.798L276.318 198.376L277.288 197.685L280.947 202.763ZM282.878 205.442L280.947 204.798L285.576 211.22L286.542 210.525L282.878 205.442ZM293.856 205.244L294.821 204.548L285.572 191.715L284.607 192.412L288.262 197.487L286.053 196.75L283.501 193.213L282.536 193.908L284.124 196.112L283.019 195.744V203.31L290.196 205.702V204.532L291.785 206.736L292.751 206.041L290.196 202.498V200.169L293.856 205.244ZM281.43 194.701L280.465 195.397L281.501 196.833L282.465 196.137L281.43 194.701ZM289.644 206.097L288.683 206.793L289.718 208.23L290.683 207.533L289.644 206.097ZM279.36 196.194L278.394 196.89L280.947 200.432V198.396L279.36 196.194ZM287.02 206.823L285.089 206.179L287.642 209.721L288.608 209.025L287.02 206.823Z" fill="#63A1FF"/>
<path fill-rule="evenodd" clip-rule="evenodd" d="M223.913 280.846C223.915 280.843 223.918 280.84 223.921 280.837C224.402 280.36 225.063 280.233 225.631 280.46C226.21 280.691 226.52 281.176 226.998 281.367C227.462 281.552 227.798 281.326 228.466 281.593C228.971 281.796 229.461 282.304 229.763 282.965C229.648 282.984 229.542 283.016 229.445 283.059L223.913 280.846Z" fill="#3782F3"/>
<path fill-rule="evenodd" clip-rule="evenodd" d="M228.047 280.822C228.341 280.586 228.599 280.19 228.607 279.682C228.205 279.552 227.699 279.637 227.374 279.88C227.078 280.1 226.801 280.493 226.809 280.984C227.24 281.172 227.731 281.075 228.047 280.822Z" fill="#3782F3"/>
<path fill-rule="evenodd" clip-rule="evenodd" d="M223.897 280.828C223.689 281.038 223.513 281.388 223.429 281.723L228.778 283.862C228.895 283.506 229.143 283.22 229.491 283.066L223.897 280.828Z" fill="#2065CD"/>
<path fill-rule="evenodd" clip-rule="evenodd" d="M223.319 282.751C223.322 282.376 223.367 282.031 223.448 281.731L228.755 283.853C228.65 284.172 228.639 284.544 228.721 284.912L223.319 282.751Z" fill="#114FAB"/>
<path fill-rule="evenodd" clip-rule="evenodd" d="M223.419 283.864C223.347 283.475 223.314 283.1 223.317 282.751L228.719 284.912C228.824 285.382 229.08 285.848 229.488 286.198C229.471 286.224 229.454 286.248 229.437 286.272L223.419 283.864Z" fill="#02337B"/>
<path fill-rule="evenodd" clip-rule="evenodd" d="M229.439 286.271C229.235 286.563 229.12 286.71 228.86 286.964C228.826 286.998 228.79 287.033 228.752 287.068L223.766 285.074C223.754 285.042 223.742 285.01 223.73 284.979C223.591 284.601 223.489 284.226 223.421 283.863L229.439 286.271Z" fill="#052A61"/>
<path fill-rule="evenodd" clip-rule="evenodd" d="M228.753 287.073C228.374 287.428 227.882 287.79 227.385 287.596C226.899 287.407 226.828 287.015 226.169 286.756C225.511 286.497 225.321 286.777 224.837 286.578C224.32 286.366 223.997 285.689 223.766 285.079L228.753 287.073Z" fill="#02193B"/>


<defs>
<filter id="filter0_di_49_206" x="0" y="0" width="713" height="458" filterUnits="userSpaceOnUse" color-interpolation-filters="sRGB">
<feFlood flood-opacity="0" result="BackgroundImageFix"/>
<feColorMatrix in="SourceAlpha" type="matrix" values="0 0 0 0 0 0 0 0 0 0 0 0 0 0 0 0 0 0 127 0" result="hardAlpha"/>
<feMorphology radius="1" operator="dilate" in="SourceAlpha" result="effect1_dropShadow_49_206"/>
<feOffset/>
<feComposite in2="hardAlpha" operator="out"/>
<feColorMatrix type="matrix" values="0 0 0 0 0.105882 0 0 0 0 0.109804 0 0 0 0 0.117647 0 0 0 1 0"/>
<feBlend mode="normal" in2="BackgroundImageFix" result="effect1_dropShadow_49_206"/>
<feBlend mode="normal" in="SourceGraphic" in2="effect1_dropShadow_49_206" result="shape"/>
<feColorMatrix in="SourceAlpha" type="matrix" values="0 0 0 0 0 0 0 0 0 0 0 0 0 0 0 0 0 0 127 0" result="hardAlpha"/>
<feMorphology radius="1" operator="erode" in="SourceAlpha" result="effect2_innerShadow_49_206"/>
<feOffset/>
<feComposite in2="hardAlpha" operator="arithmetic" k2="-1" k3="1"/>
<feColorMatrix type="matrix" values="0 0 0 0 0.027451 0 0 0 0 0.0313726 0 0 0 0 0.0392157 0 0 0 1 0"/>
<feBlend mode="normal" in2="shape" result="effect2_innerShadow_49_206"/>
</filter>
<radialGradient id="paint0_radial_49_206" cx="0" cy="0" r="1" gradientUnits="userSpaceOnUse" gradientTransform="translate(355.5 228) scale(502.753 322.441)">
<stop offset="0.0207973" stop-color="#2F3031"/>
<stop offset="0.0207973" stop-color="#2F3031" stop-opacity="0"/>
</radialGradient>
</defs>
</svg>

