<svg width="713" height="431" viewBox="0 0 713 431" fill="none" xmlns="http://www.w3.org/2000/svg">


<mask id="mask0_49_353" style="mask-type:luminance" maskUnits="userSpaceOnUse" x="174" y="51" width="365" height="329">
<path d="M538.5 51H174.5V380H538.5V51Z" fill="white"/>
</mask>
<g mask="url(#mask0_49_353)">
<path d="M188.568 263.203C188.568 253.68 192.147 247.188 197.836 244.576C202.775 242.308 209.305 242.963 216.464 247.097L283.062 285.547C298.469 294.442 310.958 316.075 310.958 333.865V365.633L188.567 294.971L188.568 263.203Z" fill="#07080A"/>
<path d="M427.186 250.064C427.186 242.739 422.044 233.833 415.7 230.17C412.76 228.472 410.077 228.2 408.046 229.125L387.635 240.776C389.662 239.87 392.33 240.15 395.253 241.837C401.596 245.499 406.738 254.406 406.738 261.731C406.738 265.339 405.49 267.89 403.465 269.112L423.961 257.484C425.971 256.256 427.186 253.657 427.186 250.064Z" fill="#0F1013"/>
<path d="M414.458 262.968L423.961 257.484L403.465 269.112C405.49 267.89 406.738 265.339 406.738 261.731C406.738 254.406 401.596 245.499 395.253 241.837C392.33 240.15 389.662 239.87 387.635 240.776L383.206 243.303L310.945 284.549L310.948 284.552C312.998 283.534 315.747 283.774 318.768 285.518C325.111 289.18 330.254 298.087 330.254 305.411C330.254 308.776 329.168 311.222 327.38 312.528C327.115 312.721 326.834 312.89 326.54 313.033C326.588 313.227 326.635 313.422 326.681 313.617L414.458 262.968Z" fill="#07080A"/>
<path d="M327.965 324.046L409.401 277.575L436.931 261.865L426.797 255.848L423.961 257.484L414.458 262.968L326.681 313.617C327.515 317.156 327.965 320.67 327.965 324.046Z" fill="#07080A"/>
<path d="M353.913 230.282C353.913 222.957 348.771 214.051 342.428 210.388C339.505 208.701 336.837 208.421 334.81 209.327L326.963 213.806L259.505 252.309L259.935 252.557C261.683 252.325 263.741 252.798 265.943 254.069C268.145 255.341 270.203 257.245 271.951 259.495L292.048 271.098L350.641 237.664C352.665 236.442 353.913 233.89 353.913 230.282Z" fill="#07080A"/>
<path d="M315.51 194.936C312.587 193.248 309.92 192.969 307.892 193.874L232.653 236.82C232.815 236.908 232.978 236.998 233.141 237.09C234.862 236.895 236.875 237.375 239.026 238.617C241.175 239.858 243.187 241.701 244.908 243.881L259.506 252.309L326.963 213.806C326.518 206.694 321.561 198.429 315.51 194.936Z" fill="#07080A"/>
<path d="M374.361 218.615C374.361 211.291 369.219 202.384 362.876 198.722C359.935 197.024 357.252 196.751 355.221 197.677L347.411 202.135L334.81 209.327C336.837 208.421 339.505 208.701 342.428 210.388C348.771 214.051 353.913 222.957 353.913 230.282C353.913 233.89 352.665 236.442 350.641 237.664L371.113 225.982C371.429 225.789 371.725 225.564 372.001 225.308C373.481 223.929 374.361 221.645 374.361 218.615Z" fill="#0F1013"/>
<path d="M342.437 175.097L409.034 213.547C424.441 222.442 436.931 244.075 436.931 261.865L446.344 256.429C446.344 238.639 433.854 217.006 418.448 208.111L351.85 169.661C344.502 165.419 337.819 164.84 332.836 167.325L331.432 168.136L323.444 172.75C328.424 170.278 335.1 170.861 342.437 175.097Z" fill="#07080A"/>
<path d="M310.958 365.633L507.992 252.609L507.988 220.839C507.988 203.049 495.498 181.416 480.091 172.521L413.494 134.071C405.994 129.74 399.185 129.227 394.171 131.893L332.836 167.325C337.819 164.84 344.502 165.419 351.85 169.661L418.448 208.111C433.854 217.006 446.344 238.639 446.344 256.429L436.931 261.865L409.401 277.575L327.965 324.046C327.965 320.67 327.515 317.156 326.681 313.617C326.635 313.422 326.588 313.227 326.54 313.033C326.168 311.529 325.727 310.022 325.223 308.52C324.514 306.407 323.678 304.305 322.731 302.238C321.263 299.032 319.525 295.909 317.57 292.96C317.47 292.809 317.37 292.659 317.269 292.51C316.588 291.499 315.881 290.51 315.151 289.546C314.675 288.917 314.189 288.299 313.694 287.692C312.807 286.606 311.891 285.558 310.948 284.552C310.925 284.563 310.902 284.575 310.879 284.586L310.945 284.549C307.603 280.983 303.927 277.956 300.068 275.728L296.293 273.549L292.518 271.369L292.048 271.098L271.951 259.495L269.93 258.328L267.009 256.642L265.635 255.848L265.207 255.601L263.444 254.583L259.935 252.557L259.506 252.309L244.908 243.881L242.314 242.384L233.634 237.372L233.471 237.278C233.361 237.215 233.251 237.152 233.141 237.09C232.978 236.998 232.815 236.908 232.653 236.82C225.287 232.812 218.636 232.514 213.769 235.31L197.836 244.576C202.775 242.308 209.305 242.963 216.464 247.097L283.062 285.547C298.469 294.442 310.958 316.075 310.958 333.865V365.633Z" fill="#07080A"/>
<path d="M409.034 213.547L342.437 175.097C335.1 170.861 328.424 170.278 323.444 172.75L321.999 173.585C317.58 176.524 314.8 182.192 314.558 190.07L328.303 182.224C330.335 181.299 333.017 181.571 335.958 183.269C342.007 186.762 346.964 195.024 347.411 202.135L355.221 197.677C357.252 196.751 359.935 197.024 362.876 198.722C369.219 202.384 374.361 211.291 374.361 218.615C374.361 221.645 373.481 223.929 372.001 225.308L372.837 224.823L376.767 227.034C376.767 232.3 379.38 238.739 383.206 243.303L387.635 240.776L408.046 229.125C410.077 228.2 412.76 228.472 415.7 230.17C422.044 233.833 427.186 242.739 427.186 250.064C427.186 253.657 425.971 256.256 423.961 257.484L426.797 255.848L436.931 261.865C436.931 244.075 424.441 222.442 409.034 213.547Z" fill="#07080A"/>
<path d="M296.293 273.549L300.068 275.728C303.927 277.956 307.603 280.983 310.945 284.549L383.206 243.303C379.38 238.739 376.767 232.3 376.767 227.034L296.293 273.549Z" fill="#07080A"/>
<path d="M335.958 183.269C333.017 181.571 330.335 181.299 328.303 182.224L314.558 190.07L307.892 193.874C309.92 192.969 312.587 193.248 315.51 194.936C321.561 198.429 326.518 206.694 326.963 213.806L334.81 209.327L347.411 202.135C346.964 195.024 342.007 186.762 335.958 183.269Z" fill="#0F1013"/>
<path d="M315.151 289.546C315.881 290.51 316.588 291.499 317.269 292.51C317.37 292.659 317.47 292.809 317.57 292.96C317.719 293.03 317.871 293.109 318.024 293.197C320.653 294.715 322.784 298.407 322.784 301.443C322.784 301.723 322.766 301.989 322.731 302.238C323.678 304.305 324.514 306.407 325.223 308.52C326.272 307.485 326.892 305.815 326.892 303.619C326.892 298.161 323.06 291.523 318.333 288.794C316.623 287.807 315.03 287.466 313.694 287.692C314.189 288.299 314.675 288.917 315.151 289.546Z" fill="#0F1013"/>
<path d="M330.254 305.411C330.254 298.087 325.111 289.18 318.768 285.518C315.747 283.774 312.998 283.534 310.948 284.552C311.891 285.558 312.807 286.606 313.694 287.692C315.03 287.466 316.623 287.807 318.333 288.794C323.06 291.523 326.892 298.161 326.892 303.619C326.892 305.815 326.272 307.485 325.223 308.52C325.727 310.022 326.168 311.529 326.54 313.033C326.834 312.89 327.115 312.721 327.38 312.528C329.168 311.222 330.254 308.776 330.254 305.411Z" fill="#0F1013"/>
<path d="M322.784 301.443C322.784 298.407 320.653 294.715 318.024 293.197C317.871 293.109 317.719 293.03 317.57 292.96C319.525 295.909 321.263 299.032 322.731 302.238C322.766 301.989 322.784 301.723 322.784 301.443Z" fill="#0F1013"/>
<path d="M265.634 255.848L267.009 256.642L269.929 258.328L271.951 259.495C270.203 257.245 268.146 255.341 265.943 254.069C263.741 252.798 261.683 252.325 259.935 252.557L263.444 254.583L265.207 255.601L265.634 255.848Z" fill="#0F1013"/>
<path d="M233.471 237.278L233.634 237.372L242.314 242.384L244.908 243.881C243.187 241.701 241.175 239.858 239.026 238.617C236.875 237.375 234.862 236.895 233.141 237.09C233.251 237.152 233.361 237.215 233.471 237.278Z" fill="#0F1013"/>
<path d="M386.077 221.873C386.077 220.256 387.213 219.6 388.613 220.409C388.613 220.409 387.205 219.806 389.359 220.839C391.513 221.873 391.895 223.615 391.895 225.232L390.001 234.782C390.001 236.4 388.866 237.055 387.465 236.247L386.719 235.816C385.319 235.007 384.183 233.041 384.183 231.424L386.077 221.873Z" fill="#0F1013"/>
<path d="M376.767 227.034L372.837 224.823L372.001 225.308C371.725 225.564 371.429 225.789 371.113 225.982L350.641 237.664L292.048 271.098L292.518 271.369L296.293 273.549L376.767 227.034Z" fill="#07080A"/>
<path d="M310.958 365.633L507.992 252.609L507.988 220.839C507.988 203.049 495.498 181.416 480.091 172.521L413.494 134.071C405.994 129.74 399.185 129.227 394.171 131.893L332.836 167.325M310.958 365.633L188.567 294.971L188.568 263.203C188.568 253.68 192.147 247.188 197.836 244.576M310.958 365.633V333.865M332.836 167.325C337.819 164.84 344.502 165.419 351.85 169.661L418.448 208.111C433.854 217.006 446.344 238.639 446.344 256.429L436.931 261.865M332.836 167.325L331.432 168.136M332.836 167.325C332.352 167.566 331.883 167.837 331.432 168.136M197.836 244.576C202.775 242.308 209.305 242.963 216.464 247.097L283.062 285.547C298.469 294.442 310.958 316.075 310.958 333.865M197.836 244.576L213.769 235.31C218.636 232.514 225.287 232.812 232.653 236.82M310.958 333.865L327.965 324.046M327.965 324.046L409.401 277.575L436.931 261.865M327.965 324.046C327.965 320.67 327.515 317.156 326.681 313.617M436.931 261.865C436.931 244.075 424.441 222.442 409.034 213.547L342.437 175.097C335.1 170.861 328.424 170.278 323.444 172.75M436.931 261.865L426.797 255.848M326.681 313.617L414.458 262.968M326.681 313.617C326.635 313.422 326.588 313.227 326.54 313.033M323.444 172.75C322.945 172.998 322.463 173.276 321.999 173.585M323.444 172.75L321.999 173.585M323.444 172.75L331.432 168.136M426.797 255.848C426.797 255.935 426.799 255.762 426.797 255.848ZM426.797 255.848L414.458 262.968M426.797 255.848L423.961 257.484M321.999 173.585C317.58 176.524 314.8 182.192 314.558 190.07M314.558 190.07L307.892 193.874M314.558 190.07L328.303 182.224C330.335 181.299 333.017 181.571 335.958 183.269C342.007 186.762 346.964 195.024 347.411 202.135M232.653 236.82L307.892 193.874M232.653 236.82C232.815 236.908 232.978 236.998 233.14 237.09M331.412 168.149C331.419 168.145 331.425 168.14 331.432 168.136M376.767 227.034L372.837 224.823L372.001 225.308M376.767 227.034L296.293 273.549M376.767 227.034C376.767 232.3 379.38 238.739 383.206 243.303M372.001 225.308L360.748 231.829M372.001 225.308C371.725 225.564 371.429 225.789 371.113 225.982L350.641 237.664M372.001 225.308C373.481 223.929 374.361 221.645 374.361 218.615C374.361 211.291 369.219 202.384 362.876 198.722C359.935 197.024 357.252 196.751 355.221 197.677L347.411 202.135M296.293 273.549L292.518 271.369L292.048 271.098M296.293 273.549L300.068 275.728C303.927 277.956 307.603 280.983 310.945 284.549M383.206 243.303L387.635 240.776M383.206 243.303L310.945 284.549M414.458 262.968L423.961 257.484M423.961 257.484C425.971 256.256 427.186 253.657 427.186 250.064C427.186 242.739 422.044 233.833 415.7 230.17C412.76 228.472 410.077 228.2 408.046 229.125L387.635 240.776M423.961 257.484L403.465 269.112C405.49 267.89 406.738 265.339 406.738 261.731C406.738 254.406 401.596 245.499 395.253 241.837C392.33 240.15 389.662 239.87 387.635 240.776M292.048 271.098L350.641 237.664M292.048 271.098L271.951 259.495M310.945 284.549L310.879 284.586C310.902 284.575 310.925 284.563 310.948 284.552M310.945 284.549L310.948 284.552M326.54 313.033C326.834 312.89 327.115 312.721 327.38 312.528C329.168 311.222 330.254 308.776 330.254 305.411C330.254 298.087 325.111 289.18 318.768 285.518C315.747 283.774 312.998 283.534 310.948 284.552M326.54 313.033C326.168 311.529 325.727 310.022 325.223 308.52M307.442 194.101C307.588 194.019 307.739 193.943 307.892 193.874M307.892 193.874C309.92 192.969 312.587 193.248 315.51 194.936C321.561 198.429 326.518 206.694 326.963 213.806M326.963 213.806L334.81 209.327M326.963 213.806L259.505 252.309M244.907 243.881C243.187 241.701 241.175 239.858 239.025 238.617C236.874 237.375 234.862 236.895 233.14 237.09M244.907 243.881L242.314 242.384L233.633 237.372L233.471 237.278C233.36 237.215 233.25 237.152 233.14 237.09M244.907 243.881L259.505 252.309M259.505 252.309L259.935 252.557M347.411 202.135L334.81 209.327M334.36 209.553C334.506 209.471 334.656 209.396 334.81 209.327M334.81 209.327C336.837 208.421 339.505 208.701 342.428 210.388C348.771 214.051 353.913 222.957 353.913 230.282C353.913 233.89 352.665 236.442 350.641 237.664M259.935 252.557C261.683 252.325 263.741 252.798 265.943 254.069C268.146 255.341 270.203 257.245 271.951 259.495M259.935 252.557L263.444 254.583L265.207 255.601L265.634 255.848L267.009 256.642L269.929 258.328L271.951 259.495M387.635 240.776C387.481 240.844 387.331 240.92 387.185 241.002M310.948 284.552C311.891 285.558 312.807 286.606 313.694 287.692M325.223 308.52C326.272 307.485 326.892 305.815 326.892 303.619C326.892 298.161 323.06 291.523 318.333 288.794C316.623 287.807 315.03 287.466 313.694 287.692M325.223 308.52C324.514 306.407 323.678 304.305 322.731 302.238M313.694 287.692C314.189 288.299 314.675 288.917 315.151 289.546C315.881 290.51 316.588 291.499 317.269 292.51C317.37 292.659 317.47 292.809 317.57 292.96M317.57 292.96C317.719 293.03 317.871 293.109 318.024 293.197C320.653 294.715 322.784 298.407 322.784 301.443C322.784 301.723 322.766 301.989 322.731 302.238M317.57 292.96C319.525 295.909 321.263 299.032 322.731 302.238M386.719 235.816L387.465 236.247C388.866 237.055 390.001 236.4 390.001 234.782L391.895 225.232C391.895 223.615 391.513 221.873 389.359 220.839C387.205 219.806 388.613 220.409 388.613 220.409C387.213 219.6 386.077 220.256 386.077 221.873L384.183 231.424C384.183 233.041 385.319 235.007 386.719 235.816Z" stroke="#545454" stroke-width="0.488059"/>
<path d="M436.666 208.091C435.372 208.838 433.274 208.838 431.981 208.091C430.687 207.344 430.687 206.133 431.981 205.386C433.274 204.639 435.372 204.639 436.666 205.386C437.96 206.133 437.96 207.344 436.666 208.091Z" fill="#63A1FF" stroke="#0C2C76" stroke-width="0.488059"/>
<path d="M411.762 193.934C410.468 194.681 408.37 194.681 407.076 193.934C405.782 193.187 405.782 191.976 407.076 191.229C408.37 190.481 410.468 190.481 411.762 191.229C413.056 191.976 413.056 193.187 411.762 193.934Z" fill="#63A1FF" stroke="#0C2C76" stroke-width="0.488059"/>
<path fill-rule="evenodd" clip-rule="evenodd" d="M418.165 165.604L416.227 166.722V161.358L418.167 161.362L418.165 165.604ZM418.165 167.841L416.227 166.722V172.087H418.165V167.841ZM432.855 172.082H434.793V161.363H432.855L432.851 165.601L430.634 164.321L430.632 161.366L428.694 161.365V163.206L427.585 162.566L420.381 166.725L427.585 170.884L428.699 170.241V172.082H430.636V169.122L432.853 167.842L432.855 172.082ZM426.479 161.363H424.542V162.563L426.479 162.562V161.363ZM426.479 170.882L424.546 170.884V172.083H426.484L426.479 170.882ZM422.323 161.363H420.384V164.322L422.323 163.203V161.363ZM422.323 170.241L420.384 169.122V172.081H422.323V170.241Z" fill="#1C1E24"/>
<path d="M389.085 181.108C387.791 181.855 385.694 181.855 384.4 181.108C383.106 180.361 383.106 179.149 384.4 178.402C385.694 177.655 387.791 177.655 389.085 178.402C390.379 179.149 390.379 180.361 389.085 181.108Z" fill="#63A1FF" stroke="#0C2C76" stroke-width="0.488059"/>
<path d="M363.951 167.302C362.657 168.049 360.559 168.049 359.266 167.302C357.972 166.555 357.972 165.344 359.266 164.597C360.559 163.85 362.657 163.85 363.951 164.597C365.245 165.344 365.245 166.555 363.951 167.302Z" fill="#63A1FF" stroke="#0C2C76" stroke-width="0.488059"/>
<path d="M294.618 285.415C294.618 286.684 294.246 287.638 293.619 288.207C293.43 288.379 293.218 288.516 292.986 288.616C292.149 288.976 291.055 288.855 289.858 288.163C288.755 287.527 287.74 286.508 286.933 285.316C286.626 284.862 286.349 284.383 286.109 283.89C285.475 282.591 285.097 281.196 285.097 279.917C285.097 278.68 285.451 277.742 286.048 277.169C286.264 276.961 286.512 276.802 286.787 276.692C287.616 276.362 288.687 276.493 289.858 277.169C292.487 278.687 294.618 282.379 294.618 285.415Z" fill="#02193B"/>
<path d="M292.986 267.943C299.329 271.605 304.471 280.512 304.471 287.836C304.471 291.201 303.386 293.647 301.598 294.953L377.683 251.537C379.708 250.315 380.956 247.764 380.956 244.156C380.956 236.831 375.814 227.924 369.47 224.262C366.547 222.575 363.88 222.295 361.852 223.201L285.097 267.011C287.154 265.953 289.931 266.179 292.986 267.943Z" fill="#02193B"/>
<path d="M401.404 232.489C401.404 225.164 396.261 216.257 389.918 212.595C386.977 210.897 384.295 210.625 382.263 211.55L361.852 223.201C363.88 222.295 366.547 222.575 369.47 224.262C375.814 227.924 380.956 236.831 380.956 244.156C380.956 247.764 379.708 250.315 377.683 251.537L398.156 239.856C400.166 238.628 401.404 236.082 401.404 232.489Z" fill="#63A1FF"/>
<path fill-rule="evenodd" clip-rule="evenodd" d="M301.598 294.953C303.386 293.647 304.471 291.201 304.471 287.836C304.471 280.512 299.329 271.605 292.986 267.943C289.931 266.179 287.154 265.953 285.097 267.011C282.882 268.15 281.5 270.777 281.5 274.574C281.5 281.899 286.642 290.805 292.986 294.468C296.415 296.448 299.493 296.489 301.598 294.953ZM301.11 286.044C301.11 291.502 297.278 293.715 292.551 290.985C290.401 289.744 288.437 287.695 286.933 285.316C287.74 286.508 288.755 287.527 289.858 288.163C291.055 288.855 292.149 288.976 292.986 288.616C293.218 288.516 293.43 288.379 293.619 288.207L295.964 286.695C296.614 286.13 297.002 285.164 297.002 283.868C297.002 280.832 294.871 277.14 292.241 275.622C291.085 274.955 290.025 274.819 289.201 275.134L286.787 276.692C286.512 276.802 286.264 276.961 286.048 277.169C285.451 277.742 285.097 278.68 285.097 279.917C285.097 281.196 285.475 282.591 286.109 283.89C284.791 281.391 283.992 278.653 283.992 276.161C283.992 270.702 287.824 268.49 292.551 271.219C297.278 273.948 301.11 280.586 301.11 286.044Z" fill="#02193B"/>
<path d="M292.551 290.985C297.278 293.715 301.11 291.502 301.11 286.044C301.11 280.586 297.278 273.948 292.551 271.219C287.824 268.49 283.992 270.702 283.992 276.161C283.992 278.653 284.791 281.391 286.109 283.89C285.475 282.591 285.097 281.196 285.097 279.917C285.097 278.68 285.451 277.742 286.048 277.169C286.264 276.961 286.512 276.802 286.787 276.692L289.201 275.134C290.025 274.819 291.085 274.955 292.241 275.622C294.871 277.14 297.002 280.832 297.002 283.868C297.002 285.164 296.614 286.13 295.964 286.695L293.619 288.207C293.43 288.379 293.218 288.516 292.986 288.616C292.149 288.976 291.055 288.855 289.858 288.163C288.755 287.527 287.74 286.508 286.933 285.316C288.437 287.695 290.401 289.744 292.551 290.985Z" fill="#02193B"/>
<path d="M285.097 267.011C282.882 268.15 281.5 270.777 281.5 274.574C281.5 281.899 286.642 290.805 292.986 294.468C296.415 296.448 299.493 296.489 301.598 294.953M285.097 267.011C287.154 265.953 289.931 266.179 292.986 267.943C299.329 271.605 304.471 280.512 304.471 287.836C304.471 291.201 303.386 293.647 301.598 294.953M285.097 267.011L361.852 223.201M301.598 294.953L377.683 251.537M361.852 223.201C361.699 223.269 361.548 223.345 361.402 223.427M361.852 223.201C363.88 222.295 366.547 222.575 369.47 224.262C375.814 227.924 380.956 236.831 380.956 244.156C380.956 247.764 379.708 250.315 377.683 251.537M361.852 223.201L382.263 211.55C384.295 210.625 386.977 210.897 389.918 212.595C396.261 216.257 401.404 225.164 401.404 232.489C401.404 236.082 400.166 238.628 398.156 239.856L377.683 251.537M286.048 277.169C285.451 277.742 285.097 278.68 285.097 279.917C285.097 281.196 285.475 282.591 286.109 283.89M286.048 277.169C286.264 276.961 286.512 276.802 286.787 276.692M286.048 277.169L286.787 276.692M286.109 283.89C284.791 281.391 283.992 278.653 283.992 276.161C283.992 270.702 287.824 268.49 292.551 271.219C297.278 273.948 301.11 280.586 301.11 286.044C301.11 291.502 297.278 293.715 292.551 290.985C290.401 289.744 288.437 287.695 286.933 285.316M286.109 283.89C286.349 284.383 286.626 284.862 286.933 285.316M286.109 283.89C286.365 284.376 286.64 284.852 286.933 285.316M286.787 276.692L289.201 275.134C290.025 274.819 291.085 274.955 292.241 275.622C294.871 277.14 297.002 280.832 297.002 283.868C297.002 285.164 296.614 286.13 295.964 286.695L293.619 288.207M286.787 276.692C287.616 276.362 288.687 276.493 289.858 277.169C292.487 278.687 294.618 282.379 294.618 285.415C294.618 286.684 294.246 287.638 293.619 288.207M292.986 288.616C292.149 288.976 291.055 288.855 289.858 288.163C288.755 287.527 287.74 286.508 286.933 285.316M292.986 288.616C293.218 288.516 293.43 288.379 293.619 288.207M292.986 288.616L293.619 288.207" stroke="#143CA3" stroke-width="0.976119"/>
<path d="M188.568 262.755C188.568 253.233 192.147 246.741 197.836 244.129C202.775 241.86 209.305 242.516 216.464 246.65L283.062 285.1C298.469 293.995 310.958 315.627 310.958 333.418V365.186L188.567 294.524L188.568 262.755Z" fill="#07080A"/>
<path d="M427.186 249.617C427.186 242.292 422.044 233.385 415.7 229.723C412.76 228.025 410.077 227.752 408.046 228.678L387.635 240.328C389.662 239.423 392.33 239.702 395.253 241.39C401.596 245.052 406.738 253.959 406.738 261.283C406.738 264.892 405.49 267.443 403.465 268.665L423.961 257.037C425.971 255.809 427.186 253.21 427.186 249.617Z" fill="#0F1013"/>
<path d="M414.458 262.52L423.961 257.037L403.465 268.665C405.49 267.443 406.738 264.892 406.738 261.283C406.738 253.959 401.596 245.052 395.253 241.39C392.33 239.702 389.662 239.423 387.635 240.328L383.206 242.856L310.945 284.101L310.948 284.104C312.998 283.086 315.747 283.326 318.768 285.071C325.111 288.733 330.254 297.64 330.254 304.964C330.254 308.329 329.168 310.775 327.38 312.081C327.115 312.274 326.834 312.443 326.54 312.585C326.588 312.78 326.635 312.975 326.681 313.17L414.458 262.52Z" fill="#07080A"/>
<path d="M315.151 289.099C315.881 290.063 316.588 291.052 317.269 292.062C317.37 292.212 317.47 292.362 317.57 292.513C317.719 292.582 317.871 292.661 318.024 292.75C320.653 294.268 322.784 297.96 322.784 300.996C322.784 301.276 322.766 301.541 322.731 301.79C323.678 303.858 324.514 305.96 325.223 308.073C326.272 307.038 326.892 305.367 326.892 303.172C326.892 297.713 323.06 291.076 318.333 288.347C316.623 287.36 315.03 287.019 313.694 287.245C314.189 287.852 314.675 288.47 315.151 289.099Z" fill="#0F1013"/>
<path d="M330.254 304.964C330.254 297.64 325.111 288.733 318.768 285.071C315.747 283.326 312.998 283.086 310.948 284.104C311.891 285.11 312.807 286.159 313.694 287.245C315.03 287.019 316.623 287.36 318.333 288.347C323.06 291.076 326.892 297.713 326.892 303.172C326.892 305.367 326.272 307.038 325.223 308.073C325.727 309.575 326.168 311.082 326.54 312.585C326.834 312.443 327.115 312.274 327.38 312.081C329.168 310.775 330.254 308.329 330.254 304.964Z" fill="#0F1013"/>
<path d="M322.784 300.996C322.784 297.96 320.653 294.268 318.024 292.75C317.871 292.661 317.719 292.582 317.57 292.513C319.525 295.462 321.263 298.585 322.731 301.79C322.766 301.541 322.784 301.276 322.784 300.996Z" fill="#0F1013"/>
<path d="M216.464 246.65L283.062 285.1C298.469 293.995 310.958 315.627 310.958 333.418L327.965 323.599C327.965 320.223 327.515 316.709 326.681 313.17C326.635 312.975 326.588 312.78 326.54 312.585C326.168 311.082 325.727 309.575 325.223 308.073C324.514 305.96 323.678 303.858 322.731 301.79C321.263 298.585 319.525 295.462 317.57 292.513C317.47 292.362 317.37 292.212 317.269 292.062C316.588 291.052 315.881 290.063 315.151 289.099C314.675 288.47 314.189 287.852 313.694 287.245C312.807 286.159 311.891 285.11 310.948 284.104C310.925 284.116 310.902 284.127 310.879 284.139L310.945 284.101C307.603 280.536 303.927 277.509 300.068 275.281L233.471 236.831C225.78 232.39 218.815 231.964 213.769 234.863L197.836 244.129C202.775 241.86 209.305 242.516 216.464 246.65Z" fill="#07080A"/>
<path d="M310.958 333.418V365.186L188.567 294.524L188.568 262.755C188.568 253.233 192.147 246.741 197.836 244.129M310.958 333.418C310.958 315.627 298.469 293.995 283.062 285.1L216.464 246.65C209.305 242.516 202.775 241.86 197.836 244.129M310.958 333.418L327.965 323.599C327.965 320.223 327.515 316.709 326.681 313.17M197.836 244.129L213.769 234.863C218.815 231.964 225.779 232.39 233.471 236.831L300.068 275.281C303.927 277.509 307.603 280.536 310.945 284.101M326.681 313.17L414.458 262.52L423.961 257.037M326.681 313.17C326.635 312.975 326.588 312.78 326.54 312.585M310.945 284.101L383.206 242.856L387.635 240.328M310.945 284.101L310.879 284.139C310.902 284.127 310.925 284.116 310.948 284.104M310.945 284.101L310.948 284.104M423.961 257.037C425.971 255.809 427.186 253.21 427.186 249.617C427.186 242.292 422.044 233.385 415.7 229.723C412.76 228.025 410.077 227.752 408.046 228.678L387.635 240.328M423.961 257.037L403.465 268.665C405.49 267.443 406.738 264.892 406.738 261.283C406.738 253.959 401.596 245.052 395.253 241.39C392.33 239.702 389.662 239.423 387.635 240.328M326.54 312.585C326.834 312.443 327.115 312.274 327.38 312.081C329.168 310.775 330.254 308.329 330.254 304.964C330.254 297.64 325.111 288.733 318.768 285.071C315.747 283.326 312.998 283.086 310.948 284.104M326.54 312.585C326.168 311.082 325.727 309.575 325.223 308.073M387.635 240.328C387.481 240.397 387.331 240.472 387.185 240.555M310.948 284.104C311.891 285.11 312.807 286.159 313.694 287.245M325.223 308.073C326.272 307.038 326.892 305.367 326.892 303.172C326.892 297.713 323.06 291.076 318.333 288.347C316.623 287.36 315.03 287.019 313.694 287.245M325.223 308.073C324.514 305.96 323.678 303.858 322.731 301.79M313.694 287.245C314.189 287.852 314.675 288.47 315.151 289.099C315.881 290.063 316.588 291.052 317.269 292.062C317.37 292.212 317.47 292.362 317.57 292.513M317.57 292.513C317.719 292.582 317.871 292.661 318.024 292.75C320.653 294.268 322.784 297.96 322.784 300.996C322.784 301.276 322.766 301.541 322.731 301.79M317.57 292.513C319.525 295.462 321.263 298.585 322.731 301.79" stroke="#545454" stroke-width="0.488059"/>
</g>


<defs>
<filter id="filter0_di_49_353" x="0" y="0" width="713" height="431" filterUnits="userSpaceOnUse" color-interpolation-filters="sRGB">
<feFlood flood-opacity="0" result="BackgroundImageFix"/>
<feColorMatrix in="SourceAlpha" type="matrix" values="0 0 0 0 0 0 0 0 0 0 0 0 0 0 0 0 0 0 127 0" result="hardAlpha"/>
<feMorphology radius="1" operator="dilate" in="SourceAlpha" result="effect1_dropShadow_49_353"/>
<feOffset/>
<feComposite in2="hardAlpha" operator="out"/>
<feColorMatrix type="matrix" values="0 0 0 0 0.105882 0 0 0 0 0.109804 0 0 0 0 0.117647 0 0 0 1 0"/>
<feBlend mode="normal" in2="BackgroundImageFix" result="effect1_dropShadow_49_353"/>
<feBlend mode="normal" in="SourceGraphic" in2="effect1_dropShadow_49_353" result="shape"/>
<feColorMatrix in="SourceAlpha" type="matrix" values="0 0 0 0 0 0 0 0 0 0 0 0 0 0 0 0 0 0 127 0" result="hardAlpha"/>
<feMorphology radius="1" operator="erode" in="SourceAlpha" result="effect2_innerShadow_49_353"/>
<feOffset/>
<feComposite in2="hardAlpha" operator="arithmetic" k2="-1" k3="1"/>
<feColorMatrix type="matrix" values="0 0 0 0 0.027451 0 0 0 0 0.0313726 0 0 0 0 0.0392157 0 0 0 1 0"/>
<feBlend mode="normal" in2="shape" result="effect2_innerShadow_49_353"/>
</filter>
<radialGradient id="paint0_radial_49_353" cx="0" cy="0" r="1" gradientUnits="userSpaceOnUse" gradientTransform="translate(355.5 214.5) scale(502.753 303.349)">
<stop offset="0.0207973" stop-color="#2F3031"/>
<stop offset="0.0207973" stop-color="#2F3031" stop-opacity="0"/>
</radialGradient>
</defs>
</svg>

