<svg width="713" height="487" viewBox="0 0 713 487" fill="none" xmlns="http://www.w3.org/2000/svg">


<g clip-path="url(#clip0_49_127)">
<path d="M437.345 409.52C433.515 411.733 427.3 411.731 423.475 409.515L161.05 257.477L147.205 249.456C145.328 248.368 144.376 246.95 144.348 245.527V269.527C144.376 270.95 145.328 272.368 147.205 273.456L423.475 433.515C427.3 435.731 433.515 435.733 437.345 433.52L596.253 341.712C598.303 340.528 599.254 338.949 599.105 337.398V314.029C598.976 315.37 598.025 316.688 596.253 317.712L582.404 325.713L437.345 409.52Z" fill="#07080A"/>
<path d="M596.253 309.715L319.668 149.902C315.842 147.691 309.636 147.69 305.809 149.9L147.217 241.463C145.333 242.551 144.376 243.972 144.348 245.398V245.527C144.376 246.95 145.328 248.368 147.205 249.456L161.05 257.477L305.809 173.9C309.636 171.69 315.842 171.691 319.668 173.902L582.404 325.713L596.253 317.712C598.025 316.688 598.976 315.37 599.105 314.029V313.398C598.976 312.058 598.026 310.74 596.253 309.715Z" fill="#07080A"/>
<path d="M423.475 409.515C427.3 411.731 433.515 411.733 437.345 409.52L582.404 325.713L319.668 173.902C315.842 171.691 309.636 171.69 305.809 173.9L161.05 257.477L423.475 409.515Z" fill="#07080A"/>
<path d="M147.205 249.456L161.05 257.477M147.205 249.456C145.328 248.368 144.376 246.95 144.348 245.527M147.205 249.456V273.456M161.05 257.477L423.475 409.515M161.05 257.477L305.809 173.9C309.636 171.69 315.842 171.691 319.668 173.902L582.404 325.713M144.348 245.527V269.527C144.376 270.95 145.328 272.368 147.205 273.456M144.348 245.527V245.398M144.348 245.527C144.347 245.484 144.347 245.441 144.348 245.398M147.205 273.456L423.475 433.515M423.475 409.515C427.3 411.731 433.515 411.733 437.345 409.52M423.475 409.515V433.515M437.345 409.52L582.404 325.713M437.345 409.52V433.52M423.475 433.515C427.3 435.731 433.515 435.733 437.345 433.52M582.404 325.713L596.253 317.712M437.345 433.52L596.253 341.712M596.253 317.712C598.025 316.688 598.976 315.37 599.105 314.029M596.253 317.712V341.712M599.105 314.029V337.398C599.254 338.949 598.303 340.528 596.253 341.712M599.105 314.029V313.398M599.105 314.029C599.125 313.819 599.125 313.609 599.105 313.398M599.105 313.398C598.976 312.058 598.026 310.74 596.253 309.715L319.668 149.902C315.842 147.691 309.636 147.69 305.809 149.9L147.217 241.463C145.333 242.551 144.376 243.972 144.348 245.398" stroke="#545454" stroke-width="0.5" stroke-dasharray="3 1"/>
<path d="M437.345 409.52C433.515 411.733 427.3 411.731 423.475 409.515L161.05 257.477L147.205 249.456C145.328 248.368 144.376 246.95 144.348 245.527V269.527C144.376 270.95 145.328 272.368 147.205 273.456L423.475 433.515C427.3 435.731 433.515 435.733 437.345 433.52L596.253 341.713C598.303 340.528 599.254 338.949 599.105 337.399V314.029C598.976 315.37 598.025 316.688 596.253 317.713L582.404 325.713L437.345 409.52Z" fill="#07090B"/>
<path d="M147.217 241.463C145.333 242.551 144.376 243.972 144.348 245.398M144.348 245.398V245.527M144.348 245.398C144.347 245.441 144.347 245.484 144.348 245.527M147.205 249.456L161.05 257.477L423.475 409.515M147.205 249.456C145.328 248.368 144.376 246.95 144.348 245.527M147.205 249.456V273.456M423.475 409.515C427.3 411.731 433.515 411.733 437.345 409.52M423.475 409.515V433.515M144.348 245.527V269.527C144.376 270.95 145.328 272.368 147.205 273.456M147.205 273.456L423.475 433.515M437.345 409.52L582.404 325.713L596.253 317.713M437.345 409.52V433.52M423.475 433.515C427.3 435.731 433.515 435.733 437.345 433.52M596.253 317.713C598.025 316.688 598.976 315.37 599.105 314.029M596.253 317.713V341.713M437.345 433.52L596.253 341.713M596.253 309.716C598.026 310.74 598.976 312.058 599.105 313.398M599.105 313.398V314.029M599.105 313.398C599.125 313.609 599.125 313.819 599.105 314.029M599.105 314.029V337.399C599.254 338.949 598.303 340.528 596.253 341.713" stroke="#545454" stroke-width="0.5" stroke-dasharray="3 1"/>
<path d="M437.345 368.52C433.515 370.733 427.3 370.731 423.475 368.515L147.205 208.456C146.094 207.812 145.306 207.052 144.843 206.243C144.525 205.687 144.36 205.107 144.348 204.527V205.243V207.527C144.376 208.95 145.328 210.368 147.205 211.456L423.475 371.515C427.3 373.731 433.515 373.733 437.345 371.52L596.253 279.712C598.303 278.528 599.254 276.949 599.105 275.398V273.898V273.029C599.058 273.514 598.904 273.997 598.642 274.463C598.18 275.286 597.384 276.059 596.253 276.712L437.345 368.52Z" fill="#02193B"/>
<path d="M596.253 268.715L319.668 108.902C315.842 106.691 309.636 106.69 305.809 108.9L147.217 200.463C145.333 201.551 144.376 202.972 144.348 204.398V204.527C144.36 205.107 144.525 205.687 144.843 206.243C145.306 207.052 146.094 207.812 147.205 208.456L423.475 368.515C427.3 370.731 433.515 370.733 437.345 368.52L596.253 276.712C597.384 276.059 598.18 275.286 598.642 274.463C598.904 273.997 599.058 273.514 599.105 273.029V272.398C598.976 271.058 598.026 269.74 596.253 268.715Z" fill="#02193B"/>
<path d="M147.205 208.456L423.475 368.515M147.205 208.456C146.094 207.812 145.306 207.052 144.843 206.243C144.525 205.687 144.36 205.107 144.348 204.527M147.205 208.456V211.456M423.475 368.515C427.3 370.731 433.515 370.733 437.345 368.52M423.475 368.515V371.515M144.348 204.527V205.243V207.527C144.376 208.95 145.328 210.368 147.205 211.456M144.348 204.527C144.347 204.484 144.347 204.441 144.348 204.398M144.348 204.527V204.398M147.205 211.456L423.475 371.515M437.345 368.52L596.253 276.712M437.345 368.52V371.52M423.475 371.515C427.3 373.731 433.515 373.733 437.345 371.52M596.253 276.712C597.384 276.059 598.18 275.286 598.642 274.463C598.904 273.997 599.058 273.514 599.105 273.029M596.253 276.712V279.712M437.345 371.52L596.253 279.712M599.105 273.029V273.898V275.398C599.254 276.949 598.303 278.528 596.253 279.712M599.105 273.029C599.125 272.819 599.125 272.609 599.105 272.398M599.105 273.029V272.398M599.105 272.398C598.976 271.058 598.026 269.74 596.253 268.715L319.668 108.902C315.842 106.691 309.636 106.69 305.809 108.9L147.217 200.463C145.333 201.551 144.376 202.972 144.348 204.398" stroke="#143CA3" stroke-width="0.5"/>
<g opacity="0.75">
<path d="M268.074 148.399L265.826 147.101C264.084 146.095 261.259 146.095 259.516 147.101L257.269 148.399C255.526 149.405 255.526 151.036 257.269 152.042L259.516 153.339C261.259 154.345 264.084 154.345 265.826 153.339L268.074 152.042C269.817 151.036 269.817 149.405 268.074 148.399Z" stroke="#63A1FF" stroke-width="0.5"/>
<path d="M311.905 175.651L277.628 155.86C276.195 155.034 273.873 155.034 272.441 155.86C271.009 156.687 271.009 158.028 272.441 158.855L306.719 178.645C308.151 179.472 310.473 179.472 311.905 178.645C313.337 177.818 313.337 176.477 311.905 175.651Z" stroke="#63A1FF" stroke-width="0.5"/>
<path d="M334.382 188.628L322.582 181.815C321.15 180.988 318.828 180.988 317.395 181.815C315.963 182.641 315.963 183.982 317.395 184.809L329.196 191.622C330.628 192.449 332.95 192.449 334.382 191.622C335.814 190.795 335.814 189.454 334.382 188.628Z" stroke="#143CA3" stroke-width="0.5"/>
<path d="M528.809 300.88L517.571 294.392C516.139 293.565 513.817 293.565 512.384 294.392C510.952 295.219 510.952 296.559 512.384 297.386L523.623 303.875C525.055 304.701 527.377 304.701 528.809 303.875C530.241 303.048 530.241 301.707 528.809 300.88Z" stroke="#143CA3" stroke-width="0.5"/>
<path d="M245.597 161.376L243.349 160.078C241.607 159.072 238.782 159.072 237.039 160.078L234.792 161.376C233.049 162.382 233.049 164.013 234.792 165.019L237.039 166.317C238.782 167.323 241.607 167.323 243.349 166.317L245.597 165.019C247.34 164.013 247.34 162.382 245.597 161.376Z" stroke="#63A1FF" stroke-width="0.5"/>
<path d="M289.428 188.628L255.151 168.838C253.718 168.011 251.396 168.011 249.964 168.838C248.532 169.665 248.532 171.005 249.964 171.832L284.242 191.622C285.674 192.449 287.996 192.449 289.428 191.622C290.86 190.796 290.86 189.455 289.428 188.628Z" stroke="#63A1FF" stroke-width="0.5"/>
<path d="M311.905 201.605L300.105 194.792C298.672 193.965 296.35 193.965 294.918 194.792C293.486 195.619 293.486 196.96 294.918 197.786L306.719 204.599C308.151 205.426 310.473 205.426 311.905 204.599C313.337 203.773 313.337 202.432 311.905 201.605Z" stroke="#143CA3" stroke-width="0.5"/>
<path d="M506.332 313.858L495.094 307.369C493.661 306.542 491.34 306.542 489.907 307.369C488.475 308.196 488.475 309.537 489.907 310.364L501.146 316.852C502.578 317.679 504.9 317.679 506.332 316.852C507.764 316.025 507.764 314.685 506.332 313.858Z" stroke="#143CA3" stroke-width="0.5"/>
<path d="M223.12 174.354L220.873 173.056C219.13 172.05 216.305 172.05 214.562 173.056L212.315 174.354C210.572 175.36 210.572 176.991 212.315 177.997L214.562 179.295C216.305 180.301 219.13 180.301 220.873 179.295L223.12 177.997C224.863 176.991 224.863 175.36 223.12 174.354Z" stroke="#63A1FF" stroke-width="0.5"/>
<path d="M266.951 201.606L232.673 181.816C231.241 180.989 228.919 180.989 227.487 181.816C226.055 182.642 226.055 183.983 227.487 184.81L261.765 204.6C263.197 205.427 265.519 205.427 266.951 204.6C268.383 203.773 268.383 202.433 266.951 201.606Z" stroke="#63A1FF" stroke-width="0.5"/>
<path d="M289.428 214.583L277.628 207.77C276.195 206.943 273.873 206.943 272.441 207.77C271.009 208.596 271.009 209.937 272.441 210.764L284.242 217.577C285.674 218.404 287.996 218.404 289.428 217.577C290.86 216.75 290.86 215.409 289.428 214.583Z" stroke="#143CA3" stroke-width="0.5"/>
<path d="M483.854 326.834L472.616 320.346C471.183 319.519 468.861 319.519 467.429 320.346C465.997 321.173 465.997 322.513 467.429 323.34L478.668 329.829C480.1 330.655 482.422 330.655 483.854 329.829C485.286 329.002 485.286 327.661 483.854 326.834Z" stroke="#143CA3" stroke-width="0.5"/>
<path d="M200.643 187.33L198.396 186.033C196.653 185.026 193.828 185.026 192.086 186.033L189.838 187.33C188.095 188.336 188.095 189.967 189.838 190.973L192.086 192.271C193.828 193.277 196.653 193.277 198.396 192.271L200.643 190.973C202.386 189.967 202.386 188.336 200.643 187.33Z" stroke="#63A1FF" stroke-width="0.5"/>
<path d="M244.474 214.582L210.196 194.792C208.764 193.965 206.442 193.965 205.01 194.792C203.578 195.619 203.578 196.96 205.01 197.786L239.287 217.577C240.72 218.403 243.042 218.403 244.474 217.577C245.906 216.75 245.906 215.409 244.474 214.582Z" stroke="#63A1FF" stroke-width="0.5"/>
<path d="M266.951 227.559L255.151 220.746C253.718 219.919 251.396 219.919 249.964 220.746C248.532 221.573 248.532 222.914 249.964 223.74L261.765 230.553C263.197 231.38 265.519 231.38 266.951 230.553C268.383 229.727 268.383 228.386 266.951 227.559Z" stroke="#143CA3" stroke-width="0.5"/>
<path d="M461.377 339.812L450.139 333.323C448.706 332.496 446.384 332.496 444.952 333.323C443.52 334.15 443.52 335.491 444.952 336.318L456.191 342.806C457.623 343.633 459.945 343.633 461.377 342.806C462.809 341.979 462.809 340.639 461.377 339.812Z" stroke="#143CA3" stroke-width="0.5"/>
<path d="M178.166 200.308L175.919 199.01C174.176 198.004 171.351 198.004 169.609 199.01L167.361 200.308C165.618 201.314 165.618 202.945 167.361 203.951L169.609 205.249C171.351 206.255 174.176 206.255 175.919 205.249L178.166 203.951C179.909 202.945 179.909 201.314 178.166 200.308Z" stroke="#63A1FF" stroke-width="0.5"/>
<path d="M221.997 227.56L187.719 207.77C186.287 206.943 183.965 206.943 182.533 207.77C181.101 208.596 181.101 209.937 182.533 210.764L216.81 230.554C218.243 231.381 220.565 231.381 221.997 230.554C223.429 229.727 223.429 228.387 221.997 227.56Z" stroke="#63A1FF" stroke-width="0.5"/>
<path d="M244.474 240.536L232.673 233.723C231.241 232.896 228.919 232.896 227.487 233.723C226.055 234.55 226.055 235.89 227.487 236.717L239.288 243.53C240.72 244.357 243.042 244.357 244.474 243.53C245.906 242.703 245.906 241.363 244.474 240.536Z" stroke="#143CA3" stroke-width="0.5"/>
<path d="M438.9 352.788L427.661 346.3C426.229 345.473 423.907 345.473 422.475 346.3C421.043 347.127 421.043 348.467 422.475 349.294L433.714 355.783C435.146 356.61 437.468 356.61 438.9 355.783C440.332 354.956 440.332 353.615 438.9 352.788Z" stroke="#143CA3" stroke-width="0.5"/>
</g>
<path d="M283.222 113.126C286.091 111.47 290.744 111.47 293.614 113.126L567.557 271.287C569.014 272.129 569.731 273.235 569.709 274.338C569.691 275.2 569.221 276.059 568.299 276.787C568.078 276.962 567.83 277.13 567.557 277.287L555.472 284.265C552.602 285.921 547.949 285.921 545.08 284.265L271.137 126.104C270.863 125.946 270.616 125.778 270.394 125.604C269.463 124.868 268.993 123.998 268.985 123.126C268.974 122.033 269.692 120.938 271.137 120.104L283.222 113.126Z" fill="#63A1FF"/>
<path d="M567.557 277.287L555.472 284.265C552.602 285.921 547.949 285.921 545.08 284.265L271.137 126.104C270.863 125.946 270.616 125.779 270.394 125.604C269.463 124.868 268.993 123.998 268.985 123.127V125.078C268.973 126.173 269.69 127.269 271.137 128.104L545.08 286.265C547.949 287.921 552.602 287.921 555.472 286.265L567.557 279.287C568.97 278.472 569.687 277.407 569.709 276.337V274.338C569.691 275.2 569.221 276.059 568.299 276.787C568.078 276.962 567.83 277.13 567.557 277.287Z" fill="#3D5DCB"/>
<path d="M271.137 126.104L545.08 284.265M271.137 126.104C270.863 125.946 270.616 125.778 270.394 125.604C269.463 124.868 268.993 123.998 268.985 123.126M271.137 126.104V128.104M545.08 284.265C547.949 285.921 552.602 285.921 555.472 284.265M545.08 284.265V286.265M268.985 123.126V125.078C268.973 126.172 269.69 127.269 271.137 128.104M268.985 123.126C268.974 122.033 269.692 120.938 271.137 120.104L283.222 113.126C286.091 111.47 290.744 111.47 293.614 113.126L567.557 271.287C569.014 272.129 569.731 273.235 569.709 274.338M271.137 128.104L545.08 286.265M555.472 284.265L567.557 277.287C567.83 277.13 568.078 276.962 568.299 276.787C569.221 276.059 569.691 275.2 569.709 274.338M555.472 284.265V286.265M569.709 274.338V276.337C569.687 277.407 568.97 278.472 567.557 279.287L555.472 286.265M555.472 286.265C552.602 287.921 547.949 287.921 545.08 286.265" stroke="#143CA3" stroke-width="0.5"/>
<path d="M292.377 120.253L290.13 118.955C288.387 117.949 285.562 117.949 283.82 118.955L281.572 120.253C279.829 121.259 279.829 122.89 281.572 123.896L283.82 125.194C285.562 126.2 288.387 126.2 290.13 125.194L292.377 123.896C294.12 122.89 294.12 121.259 292.377 120.253Z" stroke="#1456A3" stroke-width="0.5"/>
<path d="M336.207 147.505L301.93 127.715C300.497 126.888 298.175 126.888 296.743 127.715C295.311 128.542 295.311 129.882 296.743 130.709L331.021 150.499C332.453 151.326 334.775 151.326 336.207 150.499C337.639 149.673 337.639 148.332 336.207 147.505Z" stroke="#1456A3" stroke-width="0.5"/>
<path d="M368.238 165.997L346.885 153.669C345.452 152.842 343.131 152.842 341.698 153.669C340.266 154.496 340.266 155.836 341.698 156.663L363.052 168.992C364.484 169.818 366.806 169.818 368.238 168.992C369.67 168.165 369.67 166.824 368.238 165.997Z" stroke="#3C6AC5" stroke-width="0.5"/>
<path d="M552.396 272.322L541.158 265.833C539.725 265.006 537.403 265.006 535.971 265.833C534.539 266.66 534.539 268.001 535.971 268.827L547.21 275.316C548.642 276.143 550.964 276.143 552.396 275.316C553.828 274.489 553.828 273.148 552.396 272.322Z" stroke="#3C6AC5" stroke-width="0.5"/>
<path d="M586.5 103.243H478.5V139.243H586.5V103.243Z" fill="#08090C"/>
<path d="M526.215 250.065C525.478 250.065 524.882 250.662 524.882 251.398C524.882 252.135 525.478 252.731 526.215 252.731C526.951 252.731 527.548 252.135 527.548 251.398C527.548 250.662 526.951 250.065 526.215 250.065ZM525.965 134.743V251.398H526.465V134.743H525.965Z" fill="#525252"/>
<path d="M491.85 122.923C491.91 123.243 492.023 123.527 492.19 123.773C492.357 124.02 492.57 124.21 492.83 124.343C493.097 124.477 493.4 124.543 493.74 124.543C494.02 124.543 494.267 124.503 494.48 124.423C494.7 124.337 494.87 124.213 494.99 124.053C495.117 123.887 495.18 123.687 495.18 123.453C495.18 123.1 495.023 122.807 494.71 122.573C494.397 122.333 493.903 122.117 493.23 121.923C492.61 121.75 492.103 121.503 491.71 121.183C491.317 120.863 491.12 120.443 491.12 119.923C491.12 119.537 491.217 119.197 491.41 118.903C491.603 118.61 491.867 118.383 492.2 118.223C492.54 118.063 492.92 117.983 493.34 117.983C493.8 117.983 494.217 118.08 494.59 118.273C494.97 118.467 495.273 118.737 495.5 119.083C495.727 119.423 495.863 119.807 495.91 120.233L495.03 120.293C494.99 120 494.89 119.74 494.73 119.513C494.577 119.287 494.377 119.113 494.13 118.993C493.883 118.867 493.613 118.803 493.32 118.803C492.947 118.803 492.633 118.907 492.38 119.113C492.127 119.32 492 119.59 492 119.923C492 120.183 492.077 120.397 492.23 120.563C492.39 120.73 492.583 120.86 492.81 120.953C493.037 121.047 493.347 121.15 493.74 121.263C493.76 121.263 493.79 121.273 493.83 121.293C494.503 121.493 495.043 121.767 495.45 122.113C495.857 122.453 496.06 122.873 496.06 123.373C496.06 123.787 495.947 124.147 495.72 124.453C495.493 124.753 495.197 124.98 494.83 125.133C494.463 125.287 494.077 125.363 493.67 125.363C493.19 125.363 492.75 125.263 492.35 125.063C491.957 124.863 491.637 124.583 491.39 124.223C491.143 123.863 491.003 123.45 490.97 122.983L491.85 122.923ZM502.356 118.143V118.963H498.746V121.283H502.236V122.083H498.746V124.423H502.436V125.243H497.906V118.143H502.356ZM504.402 118.143H505.242V124.843L504.812 124.423H509.002V125.243H504.402V118.143ZM515.348 118.143V118.963H511.738V121.283H515.228V122.083H511.738V124.423H515.428V125.243H510.898V118.143H515.348ZM522.144 123.013C522.004 123.76 521.714 124.347 521.274 124.773C520.834 125.193 520.284 125.403 519.624 125.403C519.051 125.403 518.554 125.253 518.134 124.953C517.721 124.653 517.408 124.227 517.194 123.673C516.981 123.12 516.874 122.463 516.874 121.703C516.874 120.937 516.981 120.277 517.194 119.723C517.408 119.163 517.721 118.733 518.134 118.433C518.554 118.133 519.051 117.983 519.624 117.983C520.244 117.983 520.768 118.18 521.194 118.573C521.621 118.967 521.918 119.513 522.084 120.213L521.184 120.273C521.058 119.807 520.861 119.447 520.594 119.193C520.328 118.933 520.004 118.803 519.624 118.803C519.224 118.803 518.884 118.917 518.604 119.143C518.331 119.37 518.121 119.7 517.974 120.133C517.828 120.567 517.754 121.09 517.754 121.703C517.754 122.317 517.828 122.84 517.974 123.273C518.121 123.7 518.331 124.027 518.604 124.253C518.884 124.473 519.224 124.583 519.624 124.583C520.038 124.583 520.384 124.443 520.664 124.163C520.951 123.877 521.148 123.473 521.254 122.953L522.144 123.013ZM528.57 118.963H526.4V125.243H525.56V118.963H523.39V118.143H528.57V118.963ZM534.837 118.143V118.963H531.227V121.283H534.717V122.083H531.227V124.423H534.917V125.243H530.387V118.143H534.837ZM538.453 118.143C539.113 118.143 539.683 118.283 540.163 118.563C540.649 118.837 541.023 119.24 541.283 119.773C541.543 120.307 541.673 120.95 541.673 121.703C541.673 122.45 541.546 123.09 541.293 123.623C541.039 124.15 540.676 124.553 540.203 124.833C539.729 125.107 539.166 125.243 538.513 125.243H536.733V118.143H538.453ZM538.453 124.423C539.206 124.423 539.783 124.197 540.183 123.743C540.589 123.283 540.793 122.603 540.793 121.703C540.793 120.797 540.593 120.113 540.193 119.653C539.793 119.193 539.213 118.963 538.453 118.963H537.573V124.423H538.453ZM554.005 118.963H552.385V124.423H554.065V125.243H549.865V124.423H551.545V118.963H549.925V118.143H554.005V118.963ZM561.051 118.963H558.881V125.243H558.041V118.963H555.871V118.143H561.051V118.963ZM567.317 118.143V118.963H563.707V121.283H567.197V122.083H563.707V124.423H567.397V125.243H562.867V118.143H567.317ZM570.443 118.143L571.643 124.293H571.263L572.463 118.143H573.813V125.243H572.973V118.803H573.023L571.813 124.743H571.093L569.883 118.803H569.933V125.243H569.093V118.143H570.443Z" fill="#6A6B6C"/>
<path d="M159.767 137.243L450.56 305.133L438.011 312.378C434.185 314.587 427.981 314.587 424.154 312.378L147.217 152.488C146.201 151.902 145.454 151.218 144.978 150.488C144.436 149.659 144.243 148.77 144.401 147.899C144.626 146.653 145.564 145.443 147.217 144.488L159.767 137.243Z" fill="#07080A"/>
<path d="M450.56 305.133L438.011 312.378C434.185 314.587 427.981 314.587 424.154 312.378L147.217 152.488C146.201 151.902 145.454 151.218 144.978 150.488C144.622 151.033 144.417 151.602 144.363 152.175L144.357 152.743C144.463 154.105 145.416 155.449 147.217 156.488L424.154 316.378C427.981 318.587 434.185 318.587 438.011 316.378L450.56 309.133V305.133Z" fill="#07080A"/>
<path d="M450.56 305.133L159.767 137.243L147.217 144.488C145.564 145.443 144.626 146.653 144.401 147.899M450.56 305.133L438.011 312.378C434.185 314.587 427.981 314.587 424.154 312.378L147.217 152.488C146.201 151.902 145.454 151.218 144.978 150.488M450.56 305.133V309.133L438.011 316.378C434.185 318.587 427.981 318.587 424.154 316.378L147.217 156.488C145.417 155.449 144.463 154.105 144.358 152.743M144.401 147.899C144.243 148.77 144.436 149.659 144.978 150.488M144.401 147.899L144.363 152.175M144.978 150.488C144.622 151.033 144.417 151.602 144.363 152.175M144.358 152.743L144.363 152.175M144.358 152.743C144.343 152.554 144.345 152.364 144.363 152.175" stroke="#545454" stroke-width="0.5"/>
<path d="M290.348 65.832L581.141 233.722V229.722L290.348 61.832V65.832Z" fill="#0E0F11"/>
<path d="M596.612 212.79L319.675 52.9C315.849 50.6909 309.645 50.6909 305.818 52.9L290.348 61.8321L581.141 229.722L596.612 220.79C597.629 220.203 598.375 219.519 598.852 218.79C599.272 218.147 599.482 217.468 599.482 216.79C599.482 215.342 598.525 213.894 596.612 212.79Z" fill="#07080A"/>
<path d="M581.141 229.722L596.612 220.79C597.629 220.203 598.375 219.519 598.852 218.79M581.141 229.722V233.722M581.141 229.722L290.348 61.8321M598.852 218.79C600.168 220.805 599.422 223.168 596.612 224.79L581.141 233.722M598.852 218.79C599.272 218.147 599.482 217.468 599.482 216.79M581.141 233.722L290.348 65.8321V61.8321M290.348 61.8321L305.818 52.9C309.645 50.6909 315.849 50.6909 319.675 52.9L596.612 212.79C598.525 213.894 599.482 215.342 599.482 216.79M599.482 216.79V221.243" stroke="#545454" stroke-width="0.5"/>
<path d="M323.732 61.2079L316.989 57.3147C315.246 56.3087 312.421 56.3087 310.678 57.3147L303.935 61.2079C302.193 62.2139 302.193 63.845 303.935 64.851L310.678 68.7442C312.421 69.7502 315.246 69.7502 316.989 68.7442L323.732 64.851C325.474 63.845 325.474 62.2139 323.732 61.2079Z" stroke="#424242" stroke-width="0.5"/>
<path d="M393.413 105.979L333.849 71.5899C332.417 70.7631 330.095 70.7631 328.662 71.5899C327.23 72.4168 327.23 73.7574 328.662 74.5842L388.227 108.974C389.659 109.801 391.981 109.801 393.413 108.974C394.845 108.147 394.845 106.806 393.413 105.979Z" stroke="#424242" stroke-width="0.5"/>
<path d="M437.345 312.52C433.515 314.733 427.3 314.731 423.475 312.515L147.205 152.456C146.094 151.812 145.306 151.052 144.843 150.243C144.525 149.687 144.36 149.107 144.348 148.527V149.243V152.527C144.376 153.95 145.328 155.368 147.205 156.456L423.475 316.515C427.3 318.731 433.515 318.733 437.345 316.52L596.253 224.712C598.303 223.528 599.254 221.949 599.105 220.398V217.898V217.029C599.058 217.514 598.904 217.997 598.642 218.463C598.18 219.286 597.384 220.059 596.253 220.712L437.345 312.52Z" fill="#0E0F11"/>
<path d="M290.348 65.818V61.8262L159.77 137.215L163.558 139.384L290.348 65.818Z" fill="#0E0F11"/>
<path d="M147.205 152.456L423.475 312.515M147.205 152.456C146.094 151.812 145.306 151.052 144.843 150.243C144.525 149.687 144.36 149.107 144.348 148.527M147.205 152.456V156.456M423.475 312.515C427.3 314.731 433.515 314.733 437.345 312.52M423.475 312.515V316.515M144.348 148.527V149.243V152.527C144.376 153.95 145.328 155.368 147.205 156.456M144.348 148.527C144.347 148.484 144.347 148.441 144.348 148.398M144.348 148.527V148.398M147.205 156.456L423.475 316.515M437.345 312.52L596.253 220.712M437.345 312.52V316.52M423.475 316.515C427.3 318.731 433.515 318.733 437.345 316.52M596.253 220.712C597.384 220.059 598.18 219.286 598.642 218.463C598.904 217.997 599.058 217.514 599.105 217.029M596.253 220.712V224.712M437.345 316.52L596.253 224.712M599.105 217.029V217.898V220.398C599.254 221.949 598.303 223.528 596.253 224.712M599.105 217.029C599.125 216.819 599.125 216.609 599.105 216.398M599.105 217.029V216.398M599.105 216.398C598.976 215.058 598.026 213.74 596.253 212.715L319.668 52.9016C318.377 52.1557 316.815 51.6614 315.165 51.4187C311.925 50.9422 308.345 51.4359 305.809 52.9L290.348 61.8266M290.348 61.8266V65.8184L163.558 139.384L159.77 137.216M290.348 61.8266L159.77 137.216M144.348 148.398C144.376 146.972 145.333 145.551 147.217 144.463L159.77 137.216" stroke="#545454" stroke-width="0.5"/>
<path d="M167.536 148.072L163.719 145.868C162.404 145.109 160.272 145.109 158.956 145.868L155.162 148.059C153.846 148.818 153.846 150.05 155.162 150.809L158.978 153.013C160.293 153.772 162.426 153.772 163.741 153.013L167.536 150.822C168.851 150.062 168.851 148.831 167.536 148.072Z" stroke="#424242" stroke-width="0.5"/>
<path d="M430.109 302.362L398.268 283.979C396.714 283.081 394.193 283.081 392.639 283.979C391.085 284.876 391.085 286.331 392.639 287.229L424.48 305.612C426.034 306.509 428.555 306.509 430.109 305.612C431.664 304.714 431.664 303.259 430.109 302.362Z" stroke="#424242" stroke-width="0.5"/>
<path d="M382.963 274.686L350.721 256.071C349.167 255.174 346.646 255.174 345.092 256.071C343.537 256.969 343.537 258.424 345.092 259.321L377.334 277.936C378.888 278.834 381.408 278.834 382.963 277.936C384.517 277.039 384.517 275.584 382.963 274.686Z" stroke="#424242" stroke-width="0.5"/>
<path d="M312.5 367.242H210.5V403.242H312.5V367.242Z" fill="#08090C"/>
<path d="M255.732 270.684C256.469 270.684 257.066 270.087 257.066 269.351C257.066 268.614 256.469 268.017 255.732 268.017C254.996 268.017 254.399 268.614 254.399 269.351C254.399 270.087 254.996 270.684 255.732 270.684ZM255.982 375.525V269.351H255.482V375.525H255.982Z" fill="#494949"/>
<path d="M223.41 382.142H224.25V388.842L223.82 388.422H228.01V389.242H223.41V382.142ZM234.036 382.962H232.416V388.422H234.096V389.242H229.896V388.422H231.576V382.962H229.956V382.142H234.036V382.962ZM236.842 386.922C236.902 387.242 237.016 387.525 237.182 387.772C237.349 388.019 237.562 388.209 237.822 388.342C238.089 388.475 238.392 388.542 238.732 388.542C239.012 388.542 239.259 388.502 239.472 388.422C239.692 388.335 239.862 388.212 239.982 388.052C240.109 387.885 240.172 387.685 240.172 387.452C240.172 387.099 240.016 386.805 239.702 386.572C239.389 386.332 238.896 386.115 238.222 385.922C237.602 385.749 237.096 385.502 236.702 385.182C236.309 384.862 236.112 384.442 236.112 383.922C236.112 383.535 236.209 383.195 236.402 382.902C236.596 382.609 236.859 382.382 237.192 382.222C237.532 382.062 237.912 381.982 238.332 381.982C238.792 381.982 239.209 382.079 239.582 382.272C239.962 382.465 240.266 382.735 240.492 383.082C240.719 383.422 240.856 383.805 240.902 384.232L240.022 384.292C239.982 383.999 239.882 383.739 239.722 383.512C239.569 383.285 239.369 383.112 239.122 382.992C238.876 382.865 238.606 382.802 238.312 382.802C237.939 382.802 237.626 382.905 237.372 383.112C237.119 383.319 236.992 383.589 236.992 383.922C236.992 384.182 237.069 384.395 237.222 384.562C237.382 384.729 237.576 384.859 237.802 384.952C238.029 385.045 238.339 385.149 238.732 385.262C238.752 385.262 238.782 385.272 238.822 385.292C239.496 385.492 240.036 385.765 240.442 386.112C240.849 386.452 241.052 386.872 241.052 387.372C241.052 387.785 240.939 388.145 240.712 388.452C240.486 388.752 240.189 388.979 239.822 389.132C239.456 389.285 239.069 389.362 238.662 389.362C238.182 389.362 237.742 389.262 237.342 389.062C236.949 388.862 236.629 388.582 236.382 388.222C236.136 387.862 235.996 387.449 235.962 386.982L236.842 386.922ZM247.578 382.962H245.408V389.242H244.568V382.962H242.398V382.142H247.578V382.962ZM260.64 387.012C260.5 387.759 260.21 388.345 259.77 388.772C259.33 389.192 258.78 389.402 258.12 389.402C257.547 389.402 257.05 389.252 256.63 388.952C256.217 388.652 255.904 388.225 255.69 387.672C255.477 387.119 255.37 386.462 255.37 385.702C255.37 384.935 255.477 384.275 255.69 383.722C255.904 383.162 256.217 382.732 256.63 382.432C257.05 382.132 257.547 381.982 258.12 381.982C258.74 381.982 259.264 382.179 259.69 382.572C260.117 382.965 260.414 383.512 260.58 384.212L259.68 384.272C259.554 383.805 259.357 383.445 259.09 383.192C258.824 382.932 258.5 382.802 258.12 382.802C257.72 382.802 257.38 382.915 257.1 383.142C256.827 383.369 256.617 383.699 256.47 384.132C256.324 384.565 256.25 385.089 256.25 385.702C256.25 386.315 256.324 386.839 256.47 387.272C256.617 387.699 256.827 388.025 257.1 388.252C257.38 388.472 257.72 388.582 258.12 388.582C258.534 388.582 258.88 388.442 259.16 388.162C259.447 387.875 259.644 387.472 259.75 386.952L260.64 387.012ZM264.477 389.402C263.93 389.402 263.46 389.252 263.067 388.952C262.68 388.652 262.383 388.225 262.177 387.672C261.97 387.112 261.867 386.455 261.867 385.702C261.867 384.942 261.97 384.282 262.177 383.722C262.383 383.162 262.68 382.732 263.067 382.432C263.46 382.132 263.93 381.982 264.477 381.982C265.023 381.982 265.49 382.132 265.877 382.432C266.27 382.732 266.57 383.162 266.777 383.722C266.983 384.282 267.087 384.942 267.087 385.702C267.087 386.455 266.983 387.112 266.777 387.672C266.57 388.225 266.27 388.652 265.877 388.952C265.49 389.252 265.023 389.402 264.477 389.402ZM264.477 388.582C264.837 388.582 265.147 388.465 265.407 388.232C265.673 387.999 265.873 387.665 266.007 387.232C266.147 386.799 266.217 386.289 266.217 385.702C266.217 385.109 266.147 384.595 266.007 384.162C265.873 383.722 265.673 383.385 265.407 383.152C265.147 382.919 264.837 382.802 264.477 382.802C264.117 382.802 263.803 382.919 263.537 383.152C263.277 383.385 263.077 383.722 262.937 384.162C262.803 384.595 262.737 385.109 262.737 385.702C262.737 386.289 262.803 386.799 262.937 387.232C263.077 387.665 263.277 387.999 263.537 388.232C263.803 388.465 264.117 388.582 264.477 388.582ZM269.953 382.142L272.343 388.182V382.142H273.183V389.242H271.893L269.603 383.402V389.242H268.763V382.142H269.953ZM280.059 382.962H277.889V389.242H277.049V382.962H274.879V382.142H280.059V382.962ZM286.325 382.142V382.962H282.715V385.282H286.205V386.082H282.715V388.422H286.405V389.242H281.875V382.142H286.325ZM289.441 382.142L291.831 388.182V382.142H292.671V389.242H291.381L289.091 383.402V389.242H288.251V382.142H289.441ZM299.547 382.962H297.377V389.242H296.537V382.962H294.367V382.142H299.547V382.962Z" fill="#6A6B6C"/>
<path d="M482.5 54.2432H393.5V90.2432H482.5V54.2432Z" fill="#08090C"/>
<path d="M439.355 130.282V86.4766H433.355V130.282H439.355Z" fill="#07080A"/>
<path d="M436.355 129.948C435.619 129.948 435.022 130.545 435.022 131.281C435.022 132.018 435.619 132.615 436.355 132.615C437.092 132.615 437.689 132.018 437.689 131.281C437.689 130.545 437.092 129.948 436.355 129.948ZM436.105 88.4521V131.281H436.605V88.4521H436.105Z" fill="#525252"/>
<path d="M406.85 73.9234C406.91 74.2434 407.023 74.5267 407.19 74.7734C407.357 75.02 407.57 75.21 407.83 75.3434C408.097 75.4767 408.4 75.5434 408.74 75.5434C409.02 75.5434 409.267 75.5034 409.48 75.4234C409.7 75.3367 409.87 75.2134 409.99 75.0534C410.117 74.8867 410.18 74.6867 410.18 74.4534C410.18 74.1 410.023 73.8067 409.71 73.5734C409.397 73.3334 408.903 73.1167 408.23 72.9234C407.61 72.75 407.103 72.5034 406.71 72.1834C406.317 71.8634 406.12 71.4434 406.12 70.9234C406.12 70.5367 406.217 70.1967 406.41 69.9034C406.603 69.61 406.867 69.3834 407.2 69.2234C407.54 69.0634 407.92 68.9834 408.34 68.9834C408.8 68.9834 409.217 69.08 409.59 69.2734C409.97 69.4667 410.273 69.7367 410.5 70.0834C410.727 70.4234 410.863 70.8067 410.91 71.2334L410.03 71.2934C409.99 71 409.89 70.74 409.73 70.5134C409.577 70.2867 409.377 70.1134 409.13 69.9934C408.883 69.8667 408.613 69.8034 408.32 69.8034C407.947 69.8034 407.633 69.9067 407.38 70.1134C407.127 70.32 407 70.59 407 70.9234C407 71.1834 407.077 71.3967 407.23 71.5634C407.39 71.73 407.583 71.86 407.81 71.9534C408.037 72.0467 408.347 72.15 408.74 72.2634C408.76 72.2634 408.79 72.2734 408.83 72.2934C409.503 72.4934 410.043 72.7667 410.45 73.1134C410.857 73.4534 411.06 73.8734 411.06 74.3734C411.06 74.7867 410.947 75.1467 410.72 75.4534C410.493 75.7534 410.197 75.98 409.83 76.1334C409.463 76.2867 409.077 76.3634 408.67 76.3634C408.19 76.3634 407.75 76.2634 407.35 76.0634C406.957 75.8634 406.637 75.5834 406.39 75.2234C406.143 74.8634 406.003 74.45 405.97 73.9834L406.85 73.9234ZM417.356 69.1434V69.9634H413.746V72.2834H417.236V73.0834H413.746V75.4234H417.436V76.2434H412.906V69.1434H417.356ZM420.932 69.1434H422.052L424.222 76.2434H423.362L421.492 69.8834L419.622 76.2434H418.762L420.932 69.1434ZM419.852 74.2134L420.142 73.4434H422.842L423.132 74.2134H419.852ZM427.958 69.1434C428.712 69.1434 429.302 69.3367 429.728 69.7234C430.162 70.1034 430.378 70.6234 430.378 71.2834C430.378 71.5967 430.305 71.8834 430.158 72.1434C430.018 72.4034 429.832 72.61 429.598 72.7634C429.372 72.9167 429.135 73 428.888 73.0134L428.578 72.8934C429.145 72.8934 429.552 72.99 429.798 73.1834C430.052 73.37 430.202 73.6934 430.248 74.1534L430.448 76.2434H429.598L429.418 74.2334C429.392 73.92 429.258 73.7 429.018 73.5734C428.785 73.44 428.405 73.3734 427.878 73.3734H426.568V76.2434H425.728V69.1434H427.958ZM427.958 72.5534C428.452 72.5534 428.832 72.4434 429.098 72.2234C429.365 72.0034 429.498 71.6834 429.498 71.2634C429.498 70.85 429.365 70.53 429.098 70.3034C428.832 70.0767 428.452 69.9634 427.958 69.9634H426.568V72.5534H427.958ZM437.144 74.0134C437.004 74.76 436.714 75.3467 436.274 75.7734C435.834 76.1934 435.284 76.4034 434.624 76.4034C434.051 76.4034 433.554 76.2534 433.134 75.9534C432.721 75.6534 432.408 75.2267 432.194 74.6734C431.981 74.12 431.874 73.4634 431.874 72.7034C431.874 71.9367 431.981 71.2767 432.194 70.7234C432.408 70.1634 432.721 69.7334 433.134 69.4334C433.554 69.1334 434.051 68.9834 434.624 68.9834C435.244 68.9834 435.768 69.18 436.194 69.5734C436.621 69.9667 436.918 70.5134 437.084 71.2134L436.184 71.2734C436.058 70.8067 435.861 70.4467 435.594 70.1934C435.328 69.9334 435.004 69.8034 434.624 69.8034C434.224 69.8034 433.884 69.9167 433.604 70.1434C433.331 70.37 433.121 70.7 432.974 71.1334C432.828 71.5667 432.754 72.09 432.754 72.7034C432.754 73.3167 432.828 73.84 432.974 74.2734C433.121 74.7 433.331 75.0267 433.604 75.2534C433.884 75.4734 434.224 75.5834 434.624 75.5834C435.038 75.5834 435.384 75.4434 435.664 75.1634C435.951 74.8767 436.148 74.4734 436.254 73.9534L437.144 74.0134ZM438.69 69.1434H439.53V72.5934L439.11 72.2534H442.85L442.43 72.5934V69.1434H443.27V76.2434H442.43V72.7434L442.85 73.0834H439.11L439.53 72.7434V76.2434H438.69V69.1434ZM451.763 69.1434H453.713C454.519 69.1434 455.139 69.3134 455.573 69.6534C456.013 69.9934 456.233 70.48 456.233 71.1134C456.233 71.4 456.159 71.6567 456.013 71.8834C455.873 72.11 455.676 72.29 455.423 72.4234C455.176 72.55 454.896 72.6134 454.583 72.6134L454.573 72.5534C455.173 72.5534 455.649 72.7067 456.003 73.0134C456.356 73.3134 456.533 73.7234 456.533 74.2434C456.533 74.8567 456.316 75.3434 455.883 75.7034C455.449 76.0634 454.859 76.2434 454.113 76.2434H451.763V69.1434ZM454.113 75.4234C454.586 75.4234 454.959 75.32 455.233 75.1134C455.513 74.9 455.653 74.61 455.653 74.2434C455.653 73.8634 455.519 73.57 455.253 73.3634C454.986 73.1567 454.606 73.0534 454.113 73.0534H452.603V75.4234H454.113ZM453.713 72.2234C454.239 72.2234 454.643 72.13 454.923 71.9434C455.209 71.75 455.353 71.4734 455.353 71.1134C455.353 70.7467 455.209 70.4634 454.923 70.2634C454.643 70.0634 454.239 69.9634 453.713 69.9634H452.603V72.2234H453.713ZM459.909 69.1434H461.029L463.199 76.2434H462.339L460.469 69.8834L458.599 76.2434H457.739L459.909 69.1434ZM458.829 74.2134L459.119 73.4434H461.819L462.109 74.2134H458.829ZM466.935 69.1434C467.688 69.1434 468.278 69.3367 468.705 69.7234C469.138 70.1034 469.355 70.6234 469.355 71.2834C469.355 71.5967 469.282 71.8834 469.135 72.1434C468.995 72.4034 468.808 72.61 468.575 72.7634C468.348 72.9167 468.112 73 467.865 73.0134L467.555 72.8934C468.122 72.8934 468.528 72.99 468.775 73.1834C469.028 73.37 469.178 73.6934 469.225 74.1534L469.425 76.2434H468.575L468.395 74.2334C468.368 73.92 468.235 73.7 467.995 73.5734C467.762 73.44 467.382 73.3734 466.855 73.3734H465.545V76.2434H464.705V69.1434H466.935ZM466.935 72.5534C467.428 72.5534 467.808 72.4434 468.075 72.2234C468.342 72.0034 468.475 71.6834 468.475 71.2634C468.475 70.85 468.342 70.53 468.075 70.3034C467.808 70.0767 467.428 69.9634 466.935 69.9634H465.545V72.5534H466.935Z" fill="#6A6B6C"/>
<path d="M201.5 71.2432H112.5V107.243H201.5V71.2432Z" fill="#08090C"/>
<path d="M162.5 140.805V97H156.5V140.805H162.5Z" fill="#07080A"/>
<path d="M159.5 140.667C158.764 140.667 158.167 141.264 158.167 142C158.167 142.736 158.764 143.333 159.5 143.333C160.236 143.333 160.833 142.736 160.833 142C160.833 141.264 160.236 140.667 159.5 140.667ZM159.25 107V142H159.75V107H159.25Z" fill="#525252"/>
<path d="M126.94 86.1434H128.06L130.23 93.2434H129.37L127.5 86.8834L125.63 93.2434H124.77L126.94 86.1434ZM125.86 91.2134L126.15 90.4434H128.85L129.14 91.2134H125.86ZM136.656 91.0134C136.516 91.76 136.226 92.3467 135.786 92.7734C135.346 93.1934 134.796 93.4034 134.136 93.4034C133.563 93.4034 133.066 93.2534 132.646 92.9534C132.233 92.6534 131.919 92.2267 131.706 91.6734C131.493 91.12 131.386 90.4634 131.386 89.7034C131.386 88.9367 131.493 88.2767 131.706 87.7234C131.919 87.1634 132.233 86.7334 132.646 86.4334C133.066 86.1334 133.563 85.9834 134.136 85.9834C134.756 85.9834 135.279 86.18 135.706 86.5734C136.133 86.9667 136.429 87.5134 136.596 88.2134L135.696 88.2734C135.569 87.8067 135.373 87.4467 135.106 87.1934C134.839 86.9334 134.516 86.8034 134.136 86.8034C133.736 86.8034 133.396 86.9167 133.116 87.1434C132.843 87.37 132.633 87.7 132.486 88.1334C132.339 88.5667 132.266 89.09 132.266 89.7034C132.266 90.3167 132.339 90.84 132.486 91.2734C132.633 91.7 132.843 92.0267 133.116 92.2534C133.396 92.4734 133.736 92.5834 134.136 92.5834C134.549 92.5834 134.896 92.4434 135.176 92.1634C135.463 91.8767 135.659 91.4734 135.766 90.9534L136.656 91.0134ZM143.082 86.9634H140.912V93.2434H140.072V86.9634H137.902V86.1434H143.082V86.9634ZM149.028 86.9634H147.408V92.4234H149.088V93.2434H144.888V92.4234H146.568V86.9634H144.948V86.1434H149.028V86.9634ZM153.484 93.4034C152.938 93.4034 152.468 93.2534 152.074 92.9534C151.688 92.6534 151.391 92.2267 151.184 91.6734C150.978 91.1134 150.874 90.4567 150.874 89.7034C150.874 88.9434 150.978 88.2834 151.184 87.7234C151.391 87.1634 151.688 86.7334 152.074 86.4334C152.468 86.1334 152.938 85.9834 153.484 85.9834C154.031 85.9834 154.498 86.1334 154.884 86.4334C155.278 86.7334 155.578 87.1634 155.784 87.7234C155.991 88.2834 156.094 88.9434 156.094 89.7034C156.094 90.4567 155.991 91.1134 155.784 91.6734C155.578 92.2267 155.278 92.6534 154.884 92.9534C154.498 93.2534 154.031 93.4034 153.484 93.4034ZM153.484 92.5834C153.844 92.5834 154.154 92.4667 154.414 92.2334C154.681 92 154.881 91.6667 155.014 91.2334C155.154 90.8 155.224 90.29 155.224 89.7034C155.224 89.11 155.154 88.5967 155.014 88.1634C154.881 87.7234 154.681 87.3867 154.414 87.1534C154.154 86.92 153.844 86.8034 153.484 86.8034C153.124 86.8034 152.811 86.92 152.544 87.1534C152.284 87.3867 152.084 87.7234 151.944 88.1634C151.811 88.5967 151.744 89.11 151.744 89.7034C151.744 90.29 151.811 90.8 151.944 91.2334C152.084 91.6667 152.284 92 152.544 92.2334C152.811 92.4667 153.124 92.5834 153.484 92.5834ZM158.961 86.1434L161.351 92.1834V86.1434H162.191V93.2434H160.901L158.611 87.4034V93.2434H157.771V86.1434H158.961ZM170.763 86.1434H172.713C173.519 86.1434 174.139 86.3134 174.573 86.6534C175.013 86.9934 175.233 87.48 175.233 88.1134C175.233 88.4 175.159 88.6567 175.013 88.8834C174.873 89.11 174.676 89.29 174.423 89.4234C174.176 89.55 173.896 89.6134 173.583 89.6134L173.573 89.5534C174.173 89.5534 174.649 89.7067 175.003 90.0134C175.356 90.3134 175.533 90.7234 175.533 91.2434C175.533 91.8567 175.316 92.3434 174.883 92.7034C174.449 93.0634 173.859 93.2434 173.113 93.2434H170.763V86.1434ZM173.113 92.4234C173.586 92.4234 173.959 92.32 174.233 92.1134C174.513 91.9 174.653 91.61 174.653 91.2434C174.653 90.8634 174.519 90.57 174.253 90.3634C173.986 90.1567 173.606 90.0534 173.113 90.0534H171.603V92.4234H173.113ZM172.713 89.2234C173.239 89.2234 173.643 89.13 173.923 88.9434C174.209 88.75 174.353 88.4734 174.353 88.1134C174.353 87.7467 174.209 87.4634 173.923 87.2634C173.643 87.0634 173.239 86.9634 172.713 86.9634H171.603V89.2234H172.713ZM178.909 86.1434H180.029L182.199 93.2434H181.339L179.469 86.8834L177.599 93.2434H176.739L178.909 86.1434ZM177.829 91.2134L178.119 90.4434H180.819L181.109 91.2134H177.829ZM185.935 86.1434C186.688 86.1434 187.278 86.3367 187.705 86.7234C188.138 87.1034 188.355 87.6234 188.355 88.2834C188.355 88.5967 188.282 88.8834 188.135 89.1434C187.995 89.4034 187.808 89.61 187.575 89.7634C187.348 89.9167 187.112 90 186.865 90.0134L186.555 89.8934C187.122 89.8934 187.528 89.99 187.775 90.1834C188.028 90.37 188.178 90.6934 188.225 91.1534L188.425 93.2434H187.575L187.395 91.2334C187.368 90.92 187.235 90.7 186.995 90.5734C186.762 90.44 186.382 90.3734 185.855 90.3734H184.545V93.2434H183.705V86.1434H185.935ZM185.935 89.5534C186.428 89.5534 186.808 89.4434 187.075 89.2234C187.342 89.0034 187.475 88.6834 187.475 88.2634C187.475 87.85 187.342 87.53 187.075 87.3034C186.808 87.0767 186.428 86.9634 185.935 86.9634H184.545V89.5534H185.935Z" fill="#6A6B6C"/>
</g>


<defs>
<filter id="filter0_di_49_127" x="0" y="0" width="713" height="487" filterUnits="userSpaceOnUse" color-interpolation-filters="sRGB">
<feFlood flood-opacity="0" result="BackgroundImageFix"/>
<feColorMatrix in="SourceAlpha" type="matrix" values="0 0 0 0 0 0 0 0 0 0 0 0 0 0 0 0 0 0 127 0" result="hardAlpha"/>
<feMorphology radius="1" operator="dilate" in="SourceAlpha" result="effect1_dropShadow_49_127"/>
<feOffset/>
<feComposite in2="hardAlpha" operator="out"/>
<feColorMatrix type="matrix" values="0 0 0 0 0.105882 0 0 0 0 0.109804 0 0 0 0 0.117647 0 0 0 1 0"/>
<feBlend mode="normal" in2="BackgroundImageFix" result="effect1_dropShadow_49_127"/>
<feBlend mode="normal" in="SourceGraphic" in2="effect1_dropShadow_49_127" result="shape"/>
<feColorMatrix in="SourceAlpha" type="matrix" values="0 0 0 0 0 0 0 0 0 0 0 0 0 0 0 0 0 0 127 0" result="hardAlpha"/>
<feMorphology radius="1" operator="erode" in="SourceAlpha" result="effect2_innerShadow_49_127"/>
<feOffset/>
<feComposite in2="hardAlpha" operator="arithmetic" k2="-1" k3="1"/>
<feColorMatrix type="matrix" values="0 0 0 0 0.027451 0 0 0 0 0.0313726 0 0 0 0 0.0392157 0 0 0 1 0"/>
<feBlend mode="normal" in2="shape" result="effect2_innerShadow_49_127"/>
</filter>
<radialGradient id="paint0_radial_49_127" cx="0" cy="0" r="1" gradientUnits="userSpaceOnUse" gradientTransform="translate(355.5 242.5) scale(502.753 342.947)">
<stop offset="0.0207973" stop-color="#2F3031"/>
<stop offset="0.0207973" stop-color="#2F3031" stop-opacity="0"/>
</radialGradient>
<clipPath id="clip0_49_127">
<rect width="488" height="385" fill="white" transform="translate(112.5 51)"/>
</clipPath>
</defs>
</svg>

