<svg width="357" height="357" viewBox="0 0 357 357" fill="none" xmlns="http://www.w3.org/2000/svg">


<path fill-rule="evenodd" clip-rule="evenodd" d="M167.606 100.256L134.942 119.115C130.724 121.551 128.538 124.715 128.384 127.905L128.386 128.679C128.498 130.738 129.457 132.784 131.261 134.629C132.239 135.629 133.466 136.571 134.942 137.423L165.518 155.076L165.562 155.101C174.322 160.131 188.486 160.122 197.227 155.076L229.891 136.217C231.39 135.351 232.632 134.394 233.618 133.377C235.445 131.489 236.391 129.394 236.455 127.291V126.834C236.357 123.598 234.169 120.379 229.891 117.909L199.316 100.256C190.56 95.201 176.363 95.201 167.606 100.256ZM192.309 102.065L226.668 121.902C231.124 124.474 231.631 128.463 228.19 131.358C227.748 131.73 227.241 132.084 226.668 132.415L191.583 152.671C190.974 153.023 190.318 153.294 189.637 153.467C183.412 155.055 180.255 155.303 173.412 153.464C172.778 153.294 172.17 153.035 171.601 152.707L138.214 133.43C137.59 133.07 137.044 132.683 136.576 132.275C133.263 129.388 133.809 125.461 138.214 122.918L174.1 102.199C179.847 99.8288 186.134 99.7331 192.309 102.065Z" fill="#07080A"/>
<path d="M174.1 110.433C179.127 107.53 187.28 107.53 192.308 110.433V102.066C186.134 99.7336 179.847 99.8294 174.1 102.199V110.433Z" fill="#07080A"/>
<path d="M226.668 121.902L192.309 102.065V110.433L226.552 130.203C227.175 130.563 227.721 130.95 228.189 131.359C231.631 128.464 231.124 124.475 226.668 121.902Z" fill="#07080A"/>
<path d="M138.097 131.219L174.1 110.433V102.199L138.214 122.918C133.809 125.461 133.263 129.389 136.576 132.275C137.018 131.903 137.525 131.549 138.097 131.219Z" fill="#07080A"/>
<path d="M134.987 150.096L165.562 167.749V155.101L165.518 155.075L134.942 137.423V150.071L134.987 150.096Z" fill="#07080A"/>
<path d="M134.942 137.423C133.466 136.571 132.239 135.63 131.261 134.629C129.457 132.784 128.499 130.738 128.386 128.68L128.423 140.706C128.317 144.086 130.49 147.486 134.942 150.071V137.423Z" fill="#07080A"/>
<path d="M165.562 167.75C174.303 172.796 188.467 172.805 197.226 167.775V155.076C188.485 160.123 174.322 160.132 165.562 155.102V167.75Z" fill="#07080A"/>
<path d="M229.891 136.217L197.227 155.076V167.775L197.271 167.749L229.891 148.916V136.217Z" fill="#07080A"/>
<path d="M233.618 133.377C232.632 134.395 231.39 135.352 229.892 136.217V148.916L229.936 148.891C233.936 146.581 236.11 143.616 236.455 140.595V127.292C236.391 129.395 235.445 131.49 233.618 133.377Z" fill="#07080A"/>
<path d="M189.637 153.467C190.318 153.293 190.974 153.022 191.583 152.671L226.668 132.414C227.24 132.084 227.747 131.73 228.189 131.358C227.721 130.95 227.175 130.562 226.551 130.202L192.308 110.432C187.279 107.529 179.127 107.529 174.1 110.432L138.097 131.218C137.524 131.549 137.017 131.903 136.575 132.274C137.044 132.683 137.59 133.07 138.213 133.43L171.601 152.707C172.169 153.035 172.778 153.294 173.412 153.464C180.255 155.303 183.412 155.055 189.637 153.467Z" fill="#07080A"/>
<path d="M197.271 167.749L229.892 148.916M197.271 167.749C197.256 167.758 197.242 167.766 197.227 167.774M197.271 167.749L197.227 167.774M229.892 148.916V136.217M229.892 148.916L229.936 148.89C233.936 146.581 236.11 143.616 236.455 140.594V127.291M197.227 167.774C188.467 172.804 174.304 172.796 165.562 167.749M197.227 167.774V155.076M165.562 167.749L134.987 150.096M165.562 167.749V155.101M134.987 150.096C134.972 150.088 134.957 150.079 134.942 150.071M134.987 150.096L134.942 150.071M165.562 155.101C174.322 160.131 188.486 160.122 197.227 155.076M165.562 155.101C165.548 155.093 165.533 155.084 165.518 155.076M165.562 155.101L165.518 155.076M134.942 150.071V137.423M134.942 150.071C130.49 147.486 128.317 144.086 128.423 140.705L128.386 128.679M197.227 155.076L229.892 136.217M229.892 136.217C231.39 135.351 232.632 134.394 233.618 133.377C235.445 131.489 236.391 129.394 236.455 127.291M165.518 155.076L134.942 137.423M134.942 137.423C133.466 136.571 132.239 135.629 131.261 134.629C129.457 132.784 128.499 130.738 128.386 128.679M236.455 127.291V126.834M236.455 127.291C236.46 127.139 236.46 126.987 236.455 126.834M128.386 128.679L128.384 127.905M128.386 128.679C128.372 128.421 128.371 128.163 128.384 127.905M174.1 102.199L138.214 122.918C133.809 125.461 133.263 129.388 136.576 132.275M174.1 102.199V110.432M174.1 102.199C179.847 99.8288 186.134 99.7331 192.309 102.065M136.576 132.275C137.018 131.903 137.525 131.549 138.097 131.218L174.1 110.432M136.576 132.275C137.044 132.683 137.59 133.07 138.214 133.43L171.601 152.707C172.17 153.035 172.778 153.294 173.412 153.464C180.256 155.303 183.412 155.055 189.637 153.467C190.318 153.294 190.974 153.023 191.583 152.671L226.668 132.415C227.241 132.084 227.748 131.73 228.19 131.358M174.1 110.432C179.128 107.529 187.28 107.529 192.309 110.432M192.309 102.065L226.668 121.902C231.124 124.474 231.631 128.463 228.19 131.358M192.309 102.065C192.27 102.043 192.347 102.087 192.309 102.065ZM192.309 102.065V110.432M228.19 131.358C227.721 130.95 227.176 130.562 226.552 130.203L192.309 110.432M128.384 127.905C128.538 124.715 130.724 121.551 134.942 119.115L167.606 100.256C176.363 95.201 190.56 95.201 199.316 100.256L229.892 117.909C234.169 120.379 236.357 123.598 236.455 126.834" stroke="#545454" stroke-width="0.494186"/>
<path fill-rule="evenodd" clip-rule="evenodd" d="M236.186 141.013L203.522 159.872C199.304 162.307 197.118 165.471 196.964 168.662L196.966 169.436C197.079 171.495 198.036 173.541 199.84 175.386C200.819 176.386 202.046 177.327 203.522 178.18L234.097 195.833L234.141 195.857C242.901 200.887 257.066 200.879 265.807 195.833L298.472 176.973C299.97 176.108 301.212 175.151 302.198 174.134C304.025 172.246 304.971 170.151 305.035 168.048V167.591C304.937 164.355 302.749 161.135 298.472 158.666L267.896 141.013C259.14 135.958 244.943 135.958 236.186 141.013ZM260.889 142.822L295.248 162.659C299.704 165.231 300.211 169.22 296.77 172.115C296.328 172.487 295.821 172.841 295.248 173.171L260.162 193.428C259.554 193.779 258.898 194.05 258.217 194.224C251.991 195.812 248.836 196.06 241.992 194.221C241.359 194.051 240.75 193.792 240.181 193.464L206.793 174.187C206.171 173.827 205.624 173.44 205.155 173.031C201.842 170.145 202.388 166.218 206.793 163.674L242.68 142.955C248.427 140.586 254.713 140.49 260.889 142.822Z" fill="#02193B"/>
<path d="M242.68 151.19C247.708 148.287 255.86 148.287 260.888 151.19V142.822C254.713 140.49 248.427 140.586 242.68 142.956V151.19Z" fill="#02193B"/>
<path d="M295.247 162.659L260.889 142.822V151.19L295.132 170.96C295.754 171.32 296.301 171.707 296.77 172.116C300.211 169.221 299.704 165.232 295.247 162.659Z" fill="#02193B"/>
<path d="M206.676 171.976L242.68 151.19V142.956L206.793 163.675C202.388 166.218 201.842 170.146 205.155 173.032C205.597 172.66 206.104 172.306 206.676 171.976Z" fill="#02193B"/>
<path d="M203.566 190.853L234.141 208.506V195.857L234.097 195.833L203.521 178.18V190.827L203.566 190.853Z" fill="#02193B"/>
<path d="M203.522 178.18C202.046 177.328 200.818 176.387 199.84 175.386C198.036 173.541 197.078 171.495 196.966 169.437L197.003 181.463C196.897 184.843 199.069 188.243 203.522 190.828V178.18Z" fill="#02193B"/>
<path d="M234.142 208.506C242.884 213.553 257.047 213.561 265.807 208.532V195.833C257.066 200.88 242.902 200.888 234.142 195.858V208.506Z" fill="#02193B"/>
<path d="M298.471 176.974L265.807 195.833V208.532L265.851 208.506L298.471 189.673V176.974Z" fill="#02193B"/>
<path d="M302.198 174.134C301.212 175.152 299.97 176.109 298.472 176.974V189.673L298.516 189.647C302.516 187.338 304.69 184.373 305.035 181.352V168.049C304.971 170.151 304.025 172.247 302.198 174.134Z" fill="#02193B"/>
<path d="M258.217 194.224C258.898 194.05 259.553 193.779 260.162 193.428L295.247 173.171C295.821 172.841 296.328 172.487 296.769 172.115C296.301 171.707 295.754 171.319 295.132 170.959L260.889 151.189C255.86 148.286 247.708 148.286 242.68 151.189L206.676 171.975C206.104 172.306 205.597 172.659 205.155 173.031C205.624 173.44 206.17 173.827 206.793 174.187L240.181 193.464C240.75 193.791 241.358 194.051 241.992 194.221C248.835 196.06 251.991 195.812 258.217 194.224Z" fill="#01204D"/>
<path d="M265.851 208.506L298.471 189.673M265.851 208.506C265.836 208.515 265.822 208.523 265.807 208.531M265.851 208.506L265.807 208.531M298.471 189.673V176.973M298.471 189.673L298.516 189.647C302.516 187.337 304.689 184.373 305.035 181.351V168.048M265.807 208.531C257.047 213.561 242.883 213.552 234.141 208.506M265.807 208.531V195.833M234.141 208.506L203.566 190.853M234.141 208.506V195.857M203.566 190.853C203.551 190.845 203.536 190.836 203.521 190.827M203.566 190.853L203.521 190.827M234.141 195.857C242.901 200.887 257.066 200.879 265.807 195.833M234.141 195.857C234.126 195.85 234.112 195.841 234.097 195.833M234.141 195.857L234.097 195.833M203.521 190.827V178.18M203.521 190.827C199.069 188.242 196.896 184.842 197.003 181.462L196.966 169.436M265.807 195.833L298.471 176.973M298.471 176.973C299.97 176.108 301.212 175.151 302.198 174.134C304.025 172.246 304.971 170.151 305.035 168.048M234.097 195.833L203.521 178.18M203.521 178.18C202.046 177.327 200.818 176.386 199.84 175.386C198.036 173.541 197.078 171.495 196.966 169.436M305.035 168.048V167.591M305.035 168.048C305.04 167.896 305.04 167.743 305.035 167.591M196.966 169.436L196.964 168.662M196.966 169.436C196.952 169.178 196.951 168.92 196.964 168.662M242.68 142.955L206.793 163.674C202.388 166.218 201.842 170.145 205.155 173.031M242.68 142.955V151.189M242.68 142.955C248.427 140.586 254.713 140.49 260.889 142.822M205.155 173.031C205.597 172.66 206.104 172.306 206.676 171.975L242.68 151.189M205.155 173.031C205.624 173.44 206.17 173.827 206.793 174.187L240.181 193.464C240.75 193.792 241.358 194.051 241.992 194.221C248.835 196.06 251.991 195.812 258.217 194.224C258.898 194.05 259.553 193.779 260.162 193.428L295.247 173.171C295.821 172.841 296.328 172.487 296.769 172.115M242.68 151.189C247.708 148.286 255.86 148.286 260.889 151.189M260.889 142.822L295.247 162.659C299.704 165.231 300.211 169.22 296.769 172.115M260.889 142.822C260.849 142.8 260.927 142.844 260.889 142.822ZM260.889 142.822V151.189M296.769 172.115C296.301 171.707 295.754 171.319 295.132 170.959L260.889 151.189M196.964 168.662C197.118 165.471 199.304 162.307 203.521 159.872L236.186 141.013C244.943 135.958 259.14 135.958 267.896 141.013L298.471 158.666C302.749 161.135 304.936 164.355 305.035 167.591" stroke="#143CA3" stroke-width="0.494186"/>
<path d="M278.421 169.294C278.421 170.589 276.604 171.638 274.362 171.638C259.941 171.638 249.467 171.674 237.579 175.487C236.177 175.937 234.448 175.867 233.166 175.311C232.14 174.864 231.555 174.172 231.548 173.45C231.546 173.271 231.581 173.09 231.652 172.911L235.958 162.138C236.462 160.876 238.641 160.09 240.827 160.381C243.011 160.672 244.374 161.93 243.87 163.192L242.082 167.663L241.428 169.301C242.196 169.135 242.962 168.98 243.725 168.836C253.741 166.95 263.392 166.95 274.027 166.95L274.362 166.95C276.604 166.95 278.421 168 278.421 169.294Z" fill="#63A1FF"/>
<path d="M278.422 169.294C278.422 170.589 276.604 171.638 274.362 171.638C259.941 171.638 249.467 171.673 237.579 175.486V182.467C249.467 178.654 259.941 178.618 274.362 178.618C276.604 178.618 278.422 177.569 278.422 176.275V169.294Z" fill="#2E6FCF"/>
<path d="M237.579 175.487C236.177 175.936 234.448 175.867 233.166 175.31C232.14 174.864 231.555 174.172 231.548 173.45L231.551 180.515C231.6 181.206 232.179 181.862 233.166 182.291C234.448 182.848 236.177 182.917 237.579 182.467V175.487Z" fill="#2E6FCF"/>
<path d="M278.421 169.294C278.421 170.589 276.604 171.638 274.362 171.638C259.941 171.638 249.467 171.674 237.579 175.487M278.421 169.294C278.421 168 276.604 166.95 274.362 166.95L274.027 166.95C263.392 166.95 253.741 166.95 243.725 168.836C242.962 168.98 242.196 169.135 241.428 169.301L242.082 167.663L243.87 163.192C244.374 161.93 243.011 160.672 240.827 160.381C238.641 160.09 236.462 160.876 235.958 162.138L231.652 172.911C231.581 173.09 231.546 173.271 231.548 173.45M278.421 169.294V176.275C278.421 177.569 276.604 178.619 274.362 178.619C259.941 178.619 249.467 178.654 237.579 182.467M237.579 175.487C236.177 175.937 234.448 175.867 233.166 175.311C232.14 174.864 231.555 174.172 231.548 173.45M237.579 175.487V182.467M231.548 173.45L231.551 180.515C231.6 181.206 232.18 181.862 233.166 182.291C234.448 182.848 236.177 182.917 237.579 182.467" stroke="#143CA3" stroke-width="0.494186"/>
<path d="M70.0008 170.924C84.3135 162.661 107.519 162.661 121.832 170.924C129.344 175.78 132.303 182.202 130.707 188.255C129.573 192.56 126.134 196.701 120.392 200.016C106.316 208.144 83.638 208.278 69.2775 200.419C63.969 197.18 60.7716 193.208 59.6853 189.087C57.9916 182.662 61.4301 175.872 70.0008 170.924Z" fill="#02193B"/>
<path d="M52.015 196.749C52.3872 202.902 56.6413 208.992 64.7772 213.688V204.237C61.2572 202.205 58.4639 199.911 56.3971 197.465C53.4709 194.003 52.0013 190.208 51.9883 186.437L52.015 196.749Z" fill="#02193B"/>
<path d="M64.7773 213.689C81.8293 223.534 109.476 223.534 126.528 213.689C134.345 209.176 138.578 203.377 139.229 197.472L139.313 186.761C139.161 193.095 134.9 199.403 126.528 204.236C109.476 214.081 81.8293 214.082 64.7773 204.237V213.689Z" fill="#02193B"/>
<path fill-rule="evenodd" clip-rule="evenodd" d="M64.7772 204.237C81.8292 214.082 109.476 214.081 126.528 204.236C134.9 199.403 139.161 193.095 139.313 186.761L139.316 186.29C139.264 179.879 135.001 173.476 126.528 168.584C109.476 158.739 81.8292 158.74 64.7772 168.585C56.24 173.514 51.977 179.977 51.9883 186.437C52.0013 190.208 53.4709 194.003 56.3971 197.465C58.4639 199.912 61.2572 202.205 64.7772 204.237ZM70.0008 170.924C84.3135 162.661 107.519 162.661 121.832 170.924C129.344 175.78 132.303 182.202 130.707 188.255C129.573 192.56 126.134 196.701 120.392 200.016C106.316 208.144 83.638 208.278 69.2775 200.42C63.969 197.18 60.7716 193.208 59.6854 189.087C57.9916 182.662 61.4301 175.873 70.0008 170.924Z" fill="#01204D"/>
<path d="M64.7772 213.689C81.8292 223.534 109.476 223.534 126.528 213.689C134.345 209.176 138.578 203.377 139.228 197.472L139.313 186.761M64.7772 213.689C56.6413 208.992 52.3873 202.903 52.015 196.749L51.9883 186.437M64.7772 213.689V204.237M139.313 186.761C139.161 193.095 134.9 199.403 126.528 204.236C109.476 214.081 81.8292 214.082 64.7772 204.237M139.313 186.761L139.316 186.29M139.313 186.761C139.316 186.604 139.318 186.447 139.316 186.29M51.9883 186.437C52.0013 190.208 53.4709 194.003 56.3971 197.465C58.4639 199.912 61.2572 202.205 64.7772 204.237M51.9883 186.437C51.977 179.977 56.24 173.514 64.7772 168.585C81.8292 158.74 109.476 158.739 126.528 168.584C135.001 173.476 139.264 179.879 139.316 186.29M51.9883 186.437C51.9883 186.428 51.9883 186.445 51.9883 186.437ZM70.0008 170.924C84.3135 162.661 107.519 162.661 121.832 170.924M70.0008 170.924C61.4301 175.873 57.9916 182.662 59.6854 189.087M70.0008 170.924V177.326M121.832 170.924V177.326M121.832 170.924C129.344 175.78 132.303 182.202 130.707 188.255M59.6854 189.087C60.8201 184.782 64.2585 180.641 70.0008 177.326M59.6854 189.087C60.7716 193.208 63.969 197.18 69.2775 200.42C83.638 208.278 106.316 208.144 120.392 200.016C126.134 196.701 129.573 192.56 130.707 188.255M70.0008 177.326C84.3135 169.062 107.519 169.062 121.832 177.326M121.832 177.326C126.712 180.48 129.671 184.323 130.707 188.255" stroke="#143CA3" stroke-width="0.494186"/>
<path d="M110.392 198.887L111.438 198.283C115.565 195.901 117.713 192.81 117.885 189.688V182.759C117.708 185.876 115.559 188.962 111.438 191.341L110.392 191.945C101.779 196.918 87.8159 196.918 79.2034 191.945C75.1791 189.621 73.0352 186.623 72.7718 183.581L72.7446 189.968C72.7811 193.199 74.9341 196.422 79.2034 198.887C87.8159 203.86 101.779 203.86 110.392 198.887Z" fill="#2E6FCF"/>
<path d="M80.2498 173.334L79.2036 173.938C75.2005 176.249 73.058 179.228 72.7763 182.253L72.772 183.581C73.0354 186.623 75.1793 189.621 79.2036 191.944C87.8161 196.917 101.78 196.917 110.392 191.944L111.438 191.34C115.559 188.961 117.708 185.875 117.886 182.758V181.916C117.708 178.799 115.559 175.713 111.438 173.334C102.826 168.361 88.8623 168.361 80.2498 173.334Z" fill="#63A1FF"/>
<path d="M117.885 181.916C117.708 178.799 115.559 175.713 111.438 173.334C102.826 168.361 88.8621 168.361 80.2496 173.334L79.2034 173.938C75.2003 176.249 73.0578 179.228 72.7762 182.253M117.885 181.916C117.901 182.197 117.901 182.478 117.885 182.758M117.885 181.916V182.758M72.7762 182.253C72.7349 182.696 72.7336 183.139 72.7718 183.581M72.7762 182.253L72.7718 183.581M117.885 182.758V189.688C117.713 192.809 115.565 195.901 111.438 198.283L110.392 198.887C101.779 203.859 87.8159 203.859 79.2034 198.887C74.9341 196.422 72.7811 193.198 72.7446 189.968L72.7718 183.581M117.885 182.758C117.708 185.875 115.559 188.961 111.438 191.34L110.392 191.944C101.779 196.917 87.8159 196.917 79.2034 191.944C75.1791 189.621 73.0352 186.623 72.7718 183.581" stroke="#143CA3" stroke-width="0.494186"/>
<path d="M134.01 210.21C148.322 201.946 171.528 201.946 185.841 210.21C193.353 215.064 196.311 221.488 194.716 227.54C193.582 231.845 190.143 235.986 184.401 239.301C170.324 247.429 147.647 247.563 133.286 239.705C127.978 236.465 124.78 232.493 123.694 228.372C122 221.946 125.439 215.157 134.01 210.21Z" fill="#07080A"/>
<path d="M116.024 236.034C116.396 242.187 120.65 248.276 128.786 252.973L128.786 243.521C125.266 241.489 122.473 239.196 120.406 236.751C117.48 233.288 116.01 229.492 115.997 225.722L116.024 236.034Z" fill="#07080A"/>
<path d="M128.786 252.973C145.838 262.818 173.485 262.818 190.537 252.973C198.354 248.46 202.587 242.662 203.237 236.757L203.322 226.045C203.17 232.379 198.908 238.687 190.537 243.52C173.485 253.366 145.838 253.366 128.786 243.521L128.786 252.973Z" fill="#07080A"/>
<path fill-rule="evenodd" clip-rule="evenodd" d="M128.786 243.521C145.838 253.366 173.485 253.365 190.536 243.52C198.908 238.687 203.17 232.379 203.322 226.045L203.325 225.574C203.273 219.163 199.01 212.761 190.536 207.869C173.485 198.024 145.838 198.025 128.786 207.87C120.249 212.799 115.986 219.261 115.997 225.722C116.01 229.492 117.48 233.288 120.406 236.751C122.473 239.196 125.266 241.489 128.786 243.521ZM134.01 210.209C148.322 201.945 171.528 201.945 185.841 210.209C193.353 215.064 196.312 221.488 194.716 227.539C193.582 231.845 190.143 235.986 184.401 239.301C170.324 247.428 147.647 247.563 133.286 239.704C127.978 236.464 124.78 232.493 123.694 228.372C122 221.946 125.439 215.157 134.01 210.209Z" fill="#181A1E"/>
<path d="M128.786 252.973C145.838 262.818 173.485 262.818 190.536 252.973C198.353 248.46 202.587 242.662 203.237 236.757L203.322 226.045M128.786 252.973C120.65 248.276 116.396 242.187 116.024 236.034L115.997 225.722M128.786 252.973L128.786 243.521M203.322 226.045C203.17 232.379 198.908 238.687 190.536 243.52C173.485 253.365 145.838 253.366 128.786 243.521M203.322 226.045L203.325 225.574M203.322 226.045C203.325 225.889 203.327 225.732 203.325 225.574M115.997 225.722C116.01 229.492 117.48 233.288 120.406 236.751C122.473 239.196 125.266 241.489 128.786 243.521M115.997 225.722C115.986 219.261 120.249 212.799 128.786 207.87C145.838 198.025 173.485 198.024 190.536 207.869C199.01 212.761 203.273 219.163 203.325 225.574M115.997 225.722C115.997 225.713 115.997 225.73 115.997 225.722ZM134.01 210.209C148.322 201.945 171.528 201.945 185.841 210.209M134.01 210.209C125.439 215.157 122 221.946 123.694 228.372M134.01 210.209V216.61M185.841 210.209V216.61M185.841 210.209C193.353 215.064 196.312 221.488 194.716 227.539M123.694 228.372C124.829 224.067 128.267 219.925 134.01 216.61M123.694 228.372C124.78 232.493 127.978 236.464 133.286 239.704C147.647 247.563 170.324 247.428 184.401 239.301C190.143 235.986 193.582 231.845 194.716 227.539M134.01 216.61C148.322 208.347 171.528 208.347 185.841 216.61M185.841 216.61C190.721 219.765 193.679 223.608 194.716 227.539" stroke="#545454" stroke-width="0.494186"/>


<defs>
<filter id="filter0_di_49_252" x="0" y="0" width="357" height="357" filterUnits="userSpaceOnUse" color-interpolation-filters="sRGB">
<feFlood flood-opacity="0" result="BackgroundImageFix"/>
<feColorMatrix in="SourceAlpha" type="matrix" values="0 0 0 0 0 0 0 0 0 0 0 0 0 0 0 0 0 0 127 0" result="hardAlpha"/>
<feMorphology radius="1" operator="dilate" in="SourceAlpha" result="effect1_dropShadow_49_252"/>
<feOffset/>
<feComposite in2="hardAlpha" operator="out"/>
<feColorMatrix type="matrix" values="0 0 0 0 0.105882 0 0 0 0 0.109804 0 0 0 0 0.117647 0 0 0 1 0"/>
<feBlend mode="normal" in2="BackgroundImageFix" result="effect1_dropShadow_49_252"/>
<feBlend mode="normal" in="SourceGraphic" in2="effect1_dropShadow_49_252" result="shape"/>
<feColorMatrix in="SourceAlpha" type="matrix" values="0 0 0 0 0 0 0 0 0 0 0 0 0 0 0 0 0 0 127 0" result="hardAlpha"/>
<feMorphology radius="1" operator="erode" in="SourceAlpha" result="effect2_innerShadow_49_252"/>
<feOffset/>
<feComposite in2="hardAlpha" operator="arithmetic" k2="-1" k3="1"/>
<feColorMatrix type="matrix" values="0 0 0 0 0.027451 0 0 0 0 0.0313726 0 0 0 0 0.0392157 0 0 0 1 0"/>
<feBlend mode="normal" in2="shape" result="effect2_innerShadow_49_252"/>
</filter>
<radialGradient id="paint0_radial_49_252" cx="0" cy="0" r="1" gradientUnits="userSpaceOnUse" gradientTransform="translate(177.5 177.5) scale(251.023)">
<stop offset="0.0207973" stop-color="#2F3031"/>
<stop offset="0.0207973" stop-color="#2F3031" stop-opacity="0"/>
</radialGradient>
</defs>
</svg>

