<svg width="357" height="357" viewBox="0 0 357 357" fill="none" xmlns="http://www.w3.org/2000/svg">


<g clip-path="url(#clip0_49_314)">
<path d="M152.763 150.287L216.139 186.877C235.52 198.067 266.944 198.067 286.325 186.877C294.101 182.388 298.757 176.78 300.293 170.95C298.757 165.121 294.101 159.513 286.325 155.023L222.949 118.433C203.568 107.244 172.145 107.244 152.763 118.433C144.988 122.923 140.332 128.531 138.795 134.36C140.332 140.19 144.988 145.798 152.763 150.287Z" fill="#02193B"/>
<path d="M286.325 146.355L222.95 109.765C203.568 98.5756 172.145 98.5756 152.764 109.765C141.158 116.466 136.502 125.66 138.795 134.36C140.332 128.531 144.988 122.923 152.764 118.433C172.145 107.244 203.568 107.244 222.95 118.433L286.325 155.023C294.101 159.513 298.757 165.121 300.293 170.95C302.587 162.249 297.931 153.056 286.325 146.355Z" fill="#02193B"/>
<path fill-rule="evenodd" clip-rule="evenodd" d="M222.95 109.765L286.325 146.355C297.931 153.056 302.587 162.249 300.293 170.95C298.757 176.78 294.101 182.388 286.325 186.877C266.944 198.067 235.52 198.067 216.139 186.877L152.764 150.287C144.988 145.798 140.332 140.19 138.795 134.36C136.502 125.66 141.158 116.466 152.764 109.765C172.145 98.5756 203.568 98.5756 222.95 109.765Z" fill="#02193B"/>
<path d="M224.736 107.481C203.83 95.4113 169.938 95.4113 149.032 107.481L152.763 109.765C172.145 98.5751 203.568 98.5751 222.949 109.765L286.325 146.355L288.386 144.229L225.659 108.014L224.736 107.481Z" fill="#02193B"/>
<path d="M286.325 146.355L222.95 109.765M286.325 146.355C297.931 153.055 302.587 162.249 300.293 170.95M286.325 146.355L288.386 144.229L225.66 108.014M286.325 146.355V155.023M222.95 109.765C203.568 98.5751 172.145 98.5751 152.764 109.765M222.95 109.765V118.433M222.95 109.765L225.66 108.014M300.293 170.95C298.757 165.12 294.101 159.512 286.325 155.023M300.293 170.95C298.757 176.779 294.101 182.388 286.325 186.877C266.944 198.067 235.52 198.067 216.139 186.877L152.764 150.287C144.988 145.798 140.332 140.189 138.795 134.36M225.66 108.014L224.736 107.481C203.831 95.4113 169.938 95.4113 149.032 107.481L152.764 109.765M286.325 155.023L222.95 118.433M152.764 109.765C141.158 116.465 136.502 125.659 138.795 134.36M152.764 109.765V118.433M138.795 134.36C140.332 128.53 144.988 122.922 152.764 118.433M152.764 118.433C172.145 107.243 203.568 107.243 222.95 118.433" stroke="#143CA3" stroke-width="0.461289"/>
<path d="M230.66 148.573L228.897 149.591C222.15 153.487 218.538 158.507 218.064 163.607L218.057 165.844C218.215 167.678 218.779 169.502 219.749 171.268C221.49 174.441 224.539 177.426 228.897 179.941C243.414 188.322 266.949 188.322 281.465 179.941L283.228 178.923C287.586 176.407 290.635 173.422 292.377 170.25C293.412 168.366 293.984 166.416 294.096 164.458V163.038C293.796 157.785 290.174 152.583 283.228 148.573C268.712 140.192 245.176 140.192 230.66 148.573Z" fill="#63A1FF"/>
<path d="M283.228 178.923L281.465 179.941C266.949 188.322 243.414 188.322 228.897 179.941C224.539 177.425 221.49 174.44 219.749 171.268C218.779 169.502 218.215 167.678 218.057 165.844V178.848C218.5 183.975 222.114 189.029 228.897 192.945C243.413 201.326 266.949 201.326 281.465 192.945L283.228 191.927C290.174 187.917 293.796 182.715 294.096 177.462V164.458C293.984 166.415 293.412 168.366 292.377 170.25C290.635 173.422 287.586 176.407 283.228 178.923Z" fill="#2E6FCF"/>
<path d="M294.096 163.038C293.796 157.785 290.174 152.583 283.228 148.573C268.713 140.192 245.176 140.192 230.66 148.573L228.897 149.591C222.15 153.487 218.538 158.507 218.064 163.607M294.096 163.038V164.458M294.096 163.038C294.123 163.511 294.123 163.985 294.096 164.458M218.064 163.607L218.057 165.844M218.064 163.607C217.995 164.352 217.991 165.099 218.057 165.844M294.096 164.458C293.984 166.416 293.412 168.366 292.377 170.25C290.635 173.422 287.586 176.407 283.228 178.923L281.465 179.941C266.949 188.322 243.414 188.322 228.897 179.941C224.54 177.426 221.49 174.441 219.749 171.268C218.779 169.502 218.215 167.678 218.057 165.844M294.096 164.458V177.462C293.796 182.715 290.174 187.917 283.228 191.927L281.465 192.945C266.949 201.326 243.413 201.326 228.897 192.945C222.114 189.029 218.5 183.976 218.057 178.848V165.844" stroke="#143CA3" stroke-width="0.461289"/>
<path d="M290.062 200.493C299.644 194.961 304.835 187.852 305.632 180.612L305.736 167.48C305.55 175.246 300.325 182.979 290.062 188.905V200.493Z" fill="#02193B"/>
<path d="M149.032 151.316L214.358 189.032C235.263 201.101 269.157 201.101 290.062 189.032L286.325 187.004C267.225 198.032 236.429 198.192 216.99 187.484C216.704 187.326 216.42 187.167 216.139 187.004L152.763 150.414C152.228 150.106 151.708 149.791 151.203 149.472C144.362 145.152 140.226 139.916 138.795 134.488C136.502 125.787 141.158 116.593 152.763 109.892L149.032 107.608C138.566 113.651 133.34 121.574 133.354 129.493L133.354 129.524C133.37 134.147 135.171 138.769 138.759 143.015C141.292 146.013 144.717 148.824 149.032 151.316Z" fill="#02193B"/>
<path d="M149.033 162.905L214.359 200.621C235.263 212.69 269.157 212.69 290.062 200.621V200.493V189.032C269.157 201.102 235.263 201.102 214.359 189.032L149.033 151.316C144.717 148.825 141.293 146.014 138.759 143.015C135.172 138.77 133.37 134.148 133.354 129.524L133.387 142.137C133.843 149.681 139.058 157.146 149.033 162.905Z" fill="#02193B"/>
<path d="M305.74 166.904C305.676 159.043 300.449 151.194 290.062 145.197L288.387 144.229L286.325 146.355C297.931 153.056 302.587 162.249 300.294 170.95C298.757 176.78 294.101 182.388 286.325 186.877L290.062 188.905C300.325 182.979 305.55 175.246 305.736 167.48L305.74 166.904Z" fill="#02193B"/>
<path d="M290.062 200.621C269.157 212.69 235.263 212.69 214.358 200.621M290.062 200.621V189.032M290.062 200.621V200.492M214.358 200.621L149.032 162.905M214.358 200.621V189.032M290.062 189.032C269.157 201.101 235.263 201.101 214.358 189.032M290.062 189.032L286.325 187.004C267.225 198.032 236.429 198.192 216.99 187.484M290.062 189.032V200.492M290.062 200.492C299.644 194.96 304.835 187.851 305.631 180.611L305.735 167.48M290.062 200.492V188.904M149.032 162.905C139.058 157.146 133.843 149.68 133.386 142.136L133.354 129.524M149.032 162.905V151.316M214.358 189.032L149.032 151.316M214.358 189.032L216.99 187.484M133.354 129.524C133.37 134.147 135.171 138.769 138.759 143.015C141.292 146.013 144.717 148.824 149.032 151.316M133.354 129.524L133.354 129.493M133.354 129.524C133.354 129.514 133.354 129.504 133.354 129.493M149.032 151.316L151.203 149.472M216.99 187.484C216.704 187.326 216.42 187.167 216.139 187.004L152.763 150.414C152.228 150.106 151.708 149.791 151.203 149.472M151.203 149.472C144.362 145.152 140.226 139.916 138.795 134.488C136.502 125.787 141.158 116.593 152.763 109.892L149.032 107.608C138.566 113.651 133.34 121.574 133.354 129.493M305.735 167.48C305.55 175.245 300.325 182.978 290.062 188.904M305.735 167.48L305.74 166.903M305.735 167.48C305.74 167.288 305.742 167.095 305.74 166.903M290.062 188.904L286.325 186.877C294.101 182.387 298.757 176.779 300.294 170.95C302.587 162.249 297.931 153.055 286.325 146.355L288.386 144.229L290.062 145.196C300.449 151.194 305.675 159.043 305.74 166.903" stroke="#143CA3" stroke-width="0.461289"/>
<path d="M71.4361 199.58L134.812 236.17C154.194 247.36 185.616 247.36 204.998 236.17C212.773 231.681 217.429 226.072 218.966 220.243C217.429 214.413 212.773 208.806 204.998 204.316L141.622 167.726C122.241 156.537 90.8175 156.537 71.4361 167.726C63.6605 172.216 59.0044 177.824 57.4678 183.653C59.0044 189.483 63.6605 195.091 71.4361 199.58Z" fill="#07080A"/>
<path d="M204.998 195.648L141.622 159.058C122.241 147.869 90.8173 147.869 71.4359 159.058C59.8302 165.759 55.1741 174.952 57.4676 183.653C59.0042 177.824 63.6603 172.216 71.4359 167.726C90.8173 156.537 122.241 156.537 141.622 167.726L204.998 204.316C212.773 208.806 217.429 214.414 218.966 220.244C221.259 211.542 216.603 202.349 204.998 195.648Z" fill="#07080A"/>
<path fill-rule="evenodd" clip-rule="evenodd" d="M208.735 194.491L143.409 156.775C122.504 144.705 88.61 144.705 67.705 156.775C57.2388 162.818 52.0126 170.74 52.0264 178.66L52.0265 178.69C52.0424 183.314 53.844 187.936 57.4314 192.181C59.9652 195.18 63.3897 197.991 67.705 200.483L133.031 238.198C153.936 250.267 187.83 250.267 208.735 238.198C218.997 232.272 224.222 224.54 224.408 216.774L224.412 216.197C224.348 208.337 219.122 200.488 208.735 194.491ZM141.622 159.059L204.998 195.649C216.603 202.349 221.259 211.543 218.967 220.244C217.43 226.073 212.773 231.682 204.998 236.171C185.616 247.36 154.194 247.36 134.812 236.171L71.4362 199.581C63.6606 195.092 59.0045 189.483 57.4679 183.654C55.1744 174.953 59.8305 165.759 71.4362 159.059C90.8176 147.869 122.241 147.869 141.622 159.059Z" fill="#07080A"/>
<path d="M67.7049 212.071L133.031 249.787C153.936 261.856 187.83 261.856 208.734 249.787C218.318 244.254 223.507 237.146 224.305 229.906L224.408 216.774C224.222 224.54 218.997 232.272 208.734 238.198C187.83 250.267 153.936 250.267 133.031 238.198L67.7049 200.483C63.3896 197.991 59.9651 195.18 57.4313 192.181C53.8439 187.936 52.0423 183.314 52.0264 178.69L52.0591 191.303C52.5154 198.847 57.7307 206.313 67.7049 212.071Z" fill="#07080A"/>
<path d="M208.735 249.787C187.83 261.856 153.936 261.856 133.031 249.787M208.735 249.787C218.318 244.254 223.507 237.146 224.305 229.906L224.408 216.774M208.735 249.787V238.198M133.031 249.787L67.705 212.071M133.031 249.787V238.198M224.408 216.774C224.222 224.54 218.997 232.272 208.735 238.198M224.408 216.774L224.412 216.197M224.408 216.774C224.412 216.581 224.414 216.39 224.412 216.197M208.735 238.198C187.83 250.267 153.936 250.267 133.031 238.198M67.705 212.071C57.7308 206.313 52.5155 198.847 52.0592 191.303L52.0265 178.69M67.705 212.071V200.483M133.031 238.198L67.705 200.483M52.0265 178.69C52.0424 183.314 53.844 187.936 57.4314 192.181C59.9652 195.18 63.3897 197.991 67.705 200.483M52.0265 178.69L52.0264 178.66M52.0265 178.69C52.0264 178.68 52.0264 178.67 52.0264 178.66M224.412 216.197C224.348 208.337 219.122 200.488 208.735 194.491L143.409 156.775C122.504 144.705 88.61 144.705 67.705 156.775C57.2388 162.818 52.0126 170.74 52.0264 178.66M204.998 195.649L141.622 159.059M204.998 195.649C216.603 202.349 221.259 211.543 218.967 220.244M204.998 195.649V204.317M141.622 159.059C122.241 147.869 90.8176 147.869 71.4362 159.059M141.622 159.059V167.727M218.967 220.244C217.43 214.414 212.773 208.806 204.998 204.317M218.967 220.244C217.43 226.073 212.773 231.682 204.998 236.171C185.616 247.36 154.194 247.36 134.812 236.171L71.4362 199.581C63.6606 195.092 59.0045 189.483 57.4679 183.654M204.998 204.317L141.622 167.727M71.4362 159.059C59.8305 165.759 55.1744 174.953 57.4679 183.654M71.4362 159.059V167.727M57.4679 183.654C59.0045 177.824 63.6606 172.216 71.4362 167.727M71.4362 167.727C90.8176 156.537 122.241 156.537 141.622 167.727" stroke="#545454" stroke-width="0.461289"/>
<path d="M74.5908 191.719C67.8077 187.802 64.1943 182.749 63.7503 177.622C63.6857 176.876 63.6882 176.129 63.7575 175.384C64.2323 170.285 67.8434 165.264 74.5908 161.368L76.3542 160.35C90.8705 151.969 114.406 151.969 128.923 160.35C135.868 164.36 139.49 169.562 139.79 174.815C139.816 175.289 139.816 175.762 139.79 176.235C139.49 181.489 135.868 186.691 128.923 190.701L127.159 191.719C112.643 200.099 89.1071 200.099 74.5908 191.719Z" fill="#181A1E"/>
<path d="M127.159 206.752L128.922 205.734C135.878 201.719 139.499 196.508 139.789 191.247V176.235C139.49 181.489 135.868 186.691 128.922 190.7L127.159 191.719C112.643 200.099 89.1069 200.099 74.5905 191.719C67.8075 187.802 64.194 182.749 63.75 177.621L63.7041 191.719C63.712 192.409 63.777 193.099 63.8995 193.786C69.6112 199.985 94.7299 212.744 94.7299 212.744C106.171 213.846 118.332 211.849 127.159 206.752Z" fill="#0F1013"/>
<path d="M139.79 174.815C139.49 169.562 135.868 164.36 128.923 160.35C114.406 151.969 90.8705 151.969 76.3542 160.35L74.5908 161.368C67.8434 165.264 64.2323 170.285 63.7575 175.384M139.79 174.815V176.235M139.79 174.815C139.816 175.289 139.816 175.762 139.79 176.235M63.7575 175.384L63.7503 177.622M63.7575 175.384C63.6882 176.129 63.6857 176.876 63.7503 177.622M139.79 176.235V191.247C139.499 196.508 135.878 201.719 128.923 205.734L127.159 206.752C118.332 211.849 106.171 213.846 94.7302 212.745C94.7302 212.745 69.6115 199.985 63.8998 193.786C63.7773 193.099 63.7122 192.409 63.7044 191.719L63.7503 177.622M139.79 176.235C139.49 181.489 135.868 186.691 128.923 190.701L127.159 191.719C112.643 200.099 89.1071 200.099 74.5908 191.719C67.8077 187.802 64.1943 182.749 63.7503 177.622" stroke="#545454" stroke-width="0.461289"/>
</g>


<defs>
<filter id="filter0_di_49_314" x="0" y="0" width="357" height="357" filterUnits="userSpaceOnUse" color-interpolation-filters="sRGB">
<feFlood flood-opacity="0" result="BackgroundImageFix"/>
<feColorMatrix in="SourceAlpha" type="matrix" values="0 0 0 0 0 0 0 0 0 0 0 0 0 0 0 0 0 0 127 0" result="hardAlpha"/>
<feMorphology radius="1" operator="dilate" in="SourceAlpha" result="effect1_dropShadow_49_314"/>
<feOffset/>
<feComposite in2="hardAlpha" operator="out"/>
<feColorMatrix type="matrix" values="0 0 0 0 0.105882 0 0 0 0 0.109804 0 0 0 0 0.117647 0 0 0 1 0"/>
<feBlend mode="normal" in2="BackgroundImageFix" result="effect1_dropShadow_49_314"/>
<feBlend mode="normal" in="SourceGraphic" in2="effect1_dropShadow_49_314" result="shape"/>
<feColorMatrix in="SourceAlpha" type="matrix" values="0 0 0 0 0 0 0 0 0 0 0 0 0 0 0 0 0 0 127 0" result="hardAlpha"/>
<feMorphology radius="1" operator="erode" in="SourceAlpha" result="effect2_innerShadow_49_314"/>
<feOffset/>
<feComposite in2="hardAlpha" operator="arithmetic" k2="-1" k3="1"/>
<feColorMatrix type="matrix" values="0 0 0 0 0.027451 0 0 0 0 0.0313726 0 0 0 0 0.0392157 0 0 0 1 0"/>
<feBlend mode="normal" in2="shape" result="effect2_innerShadow_49_314"/>
</filter>
<radialGradient id="paint0_radial_49_314" cx="0" cy="0" r="1" gradientUnits="userSpaceOnUse" gradientTransform="translate(177.5 177.5) scale(251.023)">
<stop offset="0.0207973" stop-color="#2F3031"/>
<stop offset="0.0207973" stop-color="#2F3031" stop-opacity="0"/>
</radialGradient>
<clipPath id="clip0_49_314">
<rect width="255" height="162.172" fill="white" transform="translate(51 97.4092)"/>
</clipPath>
</defs>
</svg>

